<?xml version="1.0" encoding="utf-8"?>
<!-- Generator: Adobe Adobe Illustrator 24.2.0, SVG Export Plug-In . SVG Version: 6.00 Build 0)  -->
<svg version="1.1" xmlns="http://www.w3.org/2000/svg" xmlns:xlink="http://www.w3.org/1999/xlink" x="0px" y="0px"
	 viewBox="0 0 1728 1728" style="enable-background:new 0 0 1728 1728;" xml:space="preserve">
<style type="text/css">
	.st0{display:none;}
	.st1{display:inline;fill:#3E4550;}
	.st2{display:inline;fill:#FFFFFF;}
	.st3{fill:#FFFFFF;}
</style>
<g id="Layer_1" class="st0">
	<ellipse class="st1" cx="864" cy="864" rx="1305" ry="1265"/>
</g>
<g id="Layer_2" class="st0">
	<path class="st2" d="M67.52,311.5L67.52,311.5c0-77.17,62.56-139.73,139.73-139.73h1313.5c77.17,0,139.73,62.56,139.73,139.73v0
		c0,77.17-62.56,139.73-139.73,139.73H207.25C130.08,451.23,67.52,388.67,67.52,311.5z"/>
	<path class="st2" d="M67.52,864L67.52,864c0-77.17,62.56-139.73,139.73-139.73h1313.5c77.17,0,139.73,62.56,139.73,139.73v0
		c0,77.17-62.56,139.73-139.73,139.73H207.25C130.08,1003.73,67.52,941.17,67.52,864z"/>
	<path class="st2" d="M67.52,1416.5L67.52,1416.5c0-77.17,62.56-139.73,139.73-139.73h1313.5c77.17,0,139.73,62.56,139.73,139.73v0
		c0,77.17-62.56,139.73-139.73,139.73H207.25C130.08,1556.24,67.52,1493.68,67.52,1416.5z"/>
</g>
<g id="Layer_3">
	<path class="st3" d="M300.8,300.8L300.8,300.8c54.57-54.57,143.04-54.57,197.61,0l928.79,928.79c54.57,54.57,54.57,143.04,0,197.61
		l0,0c-54.57,54.57-143.04,54.57-197.61,0L300.8,498.41C246.23,443.84,246.23,355.37,300.8,300.8z"/>
	<path class="st3" d="M1427.2,300.8L1427.2,300.8c54.57,54.57,54.57,143.04,0,197.61L498.41,1427.2
		c-54.57,54.57-143.04,54.57-197.61,0l0,0c-54.57-54.57-54.57-143.04,0-197.61l928.79-928.79
		C1284.16,246.23,1372.63,246.23,1427.2,300.8z"/>
</g>
</svg>
