<?xml version="1.0" encoding="utf-8"?>
<!-- Generator: Adobe Adobe Illustrator 24.2.0, SVG Export Plug-In . SVG Version: 6.00 Build 0)  -->
<svg version="1.1" xmlns="http://www.w3.org/2000/svg" xmlns:xlink="http://www.w3.org/1999/xlink" x="0px" y="0px"
	 viewBox="0 0 1920 1080" style="enable-background:new 0 0 1920 1080;" xml:space="preserve">
<style type="text/css">
	.st0{fill:url(#SVGID_1_);stroke:#000000;stroke-miterlimit:10;}
	.st1{fill:#FB5C8B;}
	.st2{fill:#FF5286;}
	.st3{fill:#FC6B96;}
	.st4{fill:#FFC796;}
	.st5{fill:#FA497D;}
	.st6{fill:#FC6794;}
	.st7{fill:#FB6290;}
	.st8{fill:#FF82A8;}
	.st9{fill:#FFD5B0;}
	.st10{fill:#FB5989;}
	.st11{fill:#FF7AA2;}
	.st12{fill:#FC6C97;}
	.st13{fill:#233FDE;}
	.st14{fill:#2C47E6;}
	.st15{fill:#0424D9;}
	.st16{fill:#FFFFFF;}
	.st17{clip-path:url(#SVGID_3_);}
	.st18{clip-path:url(#SVGID_5_);}
	.st19{clip-path:url(#SVGID_13_);fill:#001CBD;}
	.st20{clip-path:url(#SVGID_13_);fill:#FFB435;}
	.st21{clip-path:url(#SVGID_15_);fill:url(#SVGID_16_);}
	.st22{clip-path:url(#SVGID_20_);fill:#0424D9;}
	.st23{clip-path:url(#SVGID_22_);fill:#001CBD;}
	.st24{clip-path:url(#SVGID_24_);fill:#FFB435;}
	.st25{clip-path:url(#SVGID_26_);fill:url(#SVGID_27_);}
	.st26{opacity:0.6784;clip-path:url(#SVGID_35_);}
	.st27{opacity:0.1686;clip-path:url(#SVGID_35_);}
	.st28{clip-path:url(#SVGID_39_);}
	.st29{clip-path:url(#SVGID_43_);fill:#93EAD7;}
	.st30{clip-path:url(#SVGID_45_);fill:url(#SVGID_46_);}
	.st31{clip-path:url(#SVGID_48_);fill:#41D9B9;}
	.st32{opacity:0.7216;clip-path:url(#SVGID_48_);}
	.st33{clip-path:url(#SVGID_50_);}
	.st34{clip-path:url(#SVGID_52_);fill:url(#SVGID_53_);}
	.st35{clip-path:url(#SVGID_55_);fill:url(#SVGID_56_);}
	.st36{clip-path:url(#SVGID_58_);fill:url(#SVGID_59_);}
	.st37{clip-path:url(#SVGID_61_);fill:#340CAB;}
	.st38{clip-path:url(#SVGID_61_);fill:#FFB435;}
	.st39{clip-path:url(#SVGID_61_);fill:#435BE3;}
	.st40{clip-path:url(#SVGID_61_);fill:#0424D9;}
	.st41{clip-path:url(#SVGID_67_);fill:#8597FF;}
	.st42{clip-path:url(#SVGID_69_);fill:url(#SVGID_70_);}
	.st43{clip-path:url(#SVGID_72_);fill:#8597FF;}
	.st44{clip-path:url(#SVGID_78_);fill:url(#SVGID_79_);}
	.st45{clip-path:url(#SVGID_81_);fill:#FFB435;}
	.st46{clip-path:url(#SVGID_83_);fill:url(#SVGID_84_);}
	.st47{clip-path:url(#SVGID_86_);fill:url(#SVGID_87_);}
	.st48{clip-path:url(#SVGID_89_);fill:#FFB435;}
	.st49{clip-path:url(#SVGID_91_);fill:url(#SVGID_92_);}
	.st50{clip-path:url(#SVGID_96_);fill:#FFB435;}
	.st51{clip-path:url(#SVGID_98_);fill:#233FDE;}
	.st52{clip-path:url(#SVGID_102_);fill:#001AB0;}
	.st53{clip-path:url(#SVGID_104_);fill:url(#SVGID_105_);}
	.st54{clip-path:url(#SVGID_109_);fill:url(#SVGID_110_);}
	.st55{clip-path:url(#SVGID_112_);fill:url(#SVGID_113_);}
	.st56{clip-path:url(#SVGID_115_);fill:url(#SVGID_116_);}
	.st57{clip-path:url(#SVGID_118_);fill:#0424D9;}
	.st58{clip-path:url(#SVGID_120_);fill:#001CBD;}
	.st59{clip-path:url(#SVGID_122_);fill:#435BE3;}
	.st60{clip-path:url(#SVGID_122_);fill:#0424D9;}
	.st61{clip-path:url(#SVGID_124_);fill:#6377E7;}
	.st62{display:none;}
	.st63{display:inline;opacity:0.1804;fill:#FC6C97;}
	.st64{display:inline;}
	.st65{clip-path:url(#SVGID_126_);}
	.st66{font-family:'Avenir-Black';}
	.st67{font-size:235.4646px;}
	.st68{letter-spacing:-4;}
	.st69{clip-path:url(#SVGID_126_);fill:#FFFFFF;}
	.st70{clip-path:url(#SVGID_128_);fill:none;stroke:#FFFFFF;stroke-width:5;stroke-miterlimit:10;}
	.st71{clip-path:url(#SVGID_128_);fill:#FFFFFF;}
</style>
<g id="Layer_1">
	<linearGradient id="SVGID_1_" gradientUnits="userSpaceOnUse" x1="0" y1="540" x2="1920" y2="540">
		<stop  offset="0" style="stop-color:#FD83A9"/>
		<stop  offset="1" style="stop-color:#FA487C"/>
	</linearGradient>
	<rect class="st0" width="1920" height="1080"/>
</g>
<g id="Layer_3">
	
		<rect x="1490.19" y="151.26" transform="matrix(0.2728 0.9621 -0.9621 0.2728 1515.4028 -1444.8357)" class="st1" width="446.5" height="257.47"/>
	
		<rect x="1577.58" y="217.32" transform="matrix(0.2728 0.9621 -0.9621 0.2728 1555.1166 -1546.9355)" class="st2" width="446.5" height="75.79"/>
	
		<rect x="1636.54" y="-42.35" transform="matrix(0.2728 0.9621 -0.9621 0.2728 1289.2052 -1532.8175)" class="st3" width="44" height="257.47"/>
	
		<rect x="1644.26" y="-69.77" transform="matrix(0.2728 0.9621 -0.9621 0.2728 1257.1722 -1545.277)" class="st4" width="13" height="257.47"/>
	<path class="st4" d="M1542.45,111.5L1542.45,111.5c0.82-1.44,2.66-1.94,4.09-1.11l13.02,7.45c1.44,0.82,1.94,2.66,1.11,4.09v0
		c-0.82,1.44-2.66,1.94-4.09,1.11l-13.02-7.45C1542.12,114.77,1541.62,112.94,1542.45,111.5z"/>
	<path class="st4" d="M1556.78,107.6L1556.78,107.6c1.44,0.82,1.94,2.66,1.11,4.09l-7.45,13.02c-0.82,1.44-2.66,1.94-4.09,1.11l0,0
		c-1.44-0.82-1.94-2.66-1.11-4.09l7.45-13.02C1553.5,107.28,1555.34,106.78,1556.78,107.6z"/>
</g>
<g id="Layer_2">
	
		<rect x="1159.39" y="311.13" transform="matrix(0.7071 0.7071 -0.7071 0.7071 802.7 -915.4426)" class="st3" width="694" height="400.19"/>
	
		<rect x="1255.16" y="79.9" transform="matrix(0.7071 0.7071 -0.7071 0.7071 571.4758 -819.6663)" class="st5" width="40" height="400.19"/>
	
		<rect x="1274.91" y="134.65" transform="matrix(0.7071 0.7071 -0.7071 0.7071 626.2245 -842.344)" class="st3" width="110" height="400.19"/>
	
		<rect x="1349.91" y="209.65" transform="matrix(0.7071 0.7071 -0.7071 0.7071 701.2245 -873.41)" class="st6" width="110" height="400.19"/>
	
		<rect x="1499.91" y="359.65" transform="matrix(0.7071 0.7071 -0.7071 0.7071 851.2244 -935.5421)" class="st4" width="110" height="400.19"/>
	
		<rect x="1658.44" y="520.28" transform="matrix(0.7071 0.7071 -0.7071 0.7071 1011.2405 -1000.59)" class="st6" width="110" height="400.19"/>
	
		<rect x="1421.84" y="281.58" transform="matrix(0.7071 0.7071 -0.7071 0.7071 773.1497 -903.2024)" class="st7" width="110" height="400.19"/>
	<path class="st5" d="M1368.33,628.88l-38.7-38.7c-5.03-5.03-5.03-13.19,0-18.22l38.7-38.7c5.03-5.03,13.19-5.03,18.22,0l38.7,38.7
		c5.03,5.03,5.03,13.19,0,18.22l-38.7,38.7C1381.52,633.91,1373.36,633.91,1368.33,628.88z"/>
	<path class="st8" d="M1296.41,556.95l-38.7-38.7c-5.03-5.03-5.03-13.19,0-18.22l38.7-38.7c5.03-5.03,13.19-5.03,18.22,0l38.7,38.7
		c5.03,5.03,5.03,13.19,0,18.22l-38.7,38.7C1309.6,561.99,1301.44,561.98,1296.41,556.95z"/>
	<path class="st7" d="M1221.41,481.95l-38.7-38.7c-5.03-5.03-5.03-13.19,0-18.22l38.7-38.7c5.03-5.03,13.19-5.03,18.22,0l38.7,38.7
		c5.03,5.03,5.03,13.19,0,18.22l-38.7,38.7C1234.6,486.98,1226.44,486.98,1221.41,481.95z"/>
	<path class="st9" d="M1446.41,706.95l-38.7-38.7c-5.03-5.03-5.03-13.19,0-18.22l38.7-38.7c5.03-5.03,13.19-5.03,18.22,0l38.7,38.7
		c5.03,5.03,5.03,13.19,0,18.22l-38.7,38.7C1459.6,711.99,1451.44,711.99,1446.41,706.95z"/>
	<path class="st5" d="M1604.94,867.59l-38.7-38.7c-5.03-5.03-5.03-13.19,0-18.22l38.7-38.7c5.03-5.03,13.19-5.03,18.22,0l38.7,38.7
		c5.03,5.03,5.03,13.19,0,18.22l-38.7,38.7C1618.12,872.62,1609.97,872.62,1604.94,867.59z"/>
	<path class="st7" d="M1523.95,790.2l-38.7-38.7c-5.03-5.03-5.03-13.19,0-18.22l38.7-38.7c5.03-5.03,13.19-5.03,18.22,0l38.7,38.7
		c5.03,5.03,5.03,13.19,0,18.22l-38.7,38.7C1537.14,795.23,1528.98,795.23,1523.95,790.2z"/>
	<path class="st8" d="M1364.61,450.05L1364.61,450.05c-6.44-6.44-6.44-16.89,0-23.33l130.81-130.81c6.44-6.44,16.89-6.44,23.33,0h0
		c6.44,6.44,6.44,16.89,0,23.33l-130.81,130.81C1381.5,456.49,1371.06,456.49,1364.61,450.05z"/>
	<path class="st5" d="M1436.54,521.97L1436.54,521.97c-6.44-6.44-6.44-16.89,0-23.33l130.81-130.81c6.44-6.44,16.89-6.44,23.33,0
		l0,0c6.44,6.44,6.44,16.89,0,23.33l-130.81,130.81C1453.43,528.41,1442.98,528.41,1436.54,521.97z"/>
	<path class="st9" d="M1514.61,600.05L1514.61,600.05c-6.44-6.44-6.44-16.89,0-23.33l130.81-130.81c6.44-6.44,16.89-6.44,23.33,0
		l0,0c6.44,6.44,6.44,16.89,0,23.33l-130.81,130.81C1531.5,606.49,1521.06,606.49,1514.61,600.05z"/>
	<path class="st5" d="M1673.14,760.68L1673.14,760.68c-6.44-6.44-6.44-16.89,0-23.33l130.81-130.81c6.44-6.44,16.89-6.44,23.33,0
		l0,0c6.44,6.44,6.44,16.89,0,23.33l-130.81,130.81C1690.03,767.12,1679.59,767.12,1673.14,760.68z"/>
	<path class="st7" d="M1592.16,683.29L1592.16,683.29c-6.44-6.44-6.44-16.89,0-23.33l130.81-130.81c6.44-6.44,16.89-6.44,23.33,0
		l0,0c6.44,6.44,6.44,16.89,0,23.33l-130.81,130.81C1609.05,689.74,1598.6,689.74,1592.16,683.29z"/>
	<path class="st7" d="M1289.61,375.05L1289.61,375.05c-6.44-6.44-6.44-16.89,0-23.33l130.81-130.81c6.44-6.44,16.89-6.44,23.33,0
		l0,0c6.44,6.44,6.44,16.89,0,23.33l-130.81,130.81C1306.5,381.49,1296.06,381.49,1289.61,375.05z"/>
</g>
<g id="Layer_4">
	
		<rect x="193.67" y="298.75" transform="matrix(-0.3857 0.9226 -0.9226 -0.3857 1348.0834 183.5076)" class="st8" width="838.57" height="483.56"/>
	
		<rect x="741.64" y="-66.86" transform="matrix(-0.3857 0.9226 -0.9226 -0.3857 1222.5708 -464.1505)" class="st10" width="48.33" height="483.56"/>
	<path class="st11" d="M669.91,238.83L669.91,238.83c2.51-6.01,9.42-8.84,15.43-6.33L906.61,325c6.01,2.51,8.84,9.42,6.33,15.43v0
		c-2.51,6.01-9.42,8.84-15.43,6.33l-221.27-92.51C670.24,251.74,667.4,244.83,669.91,238.83z"/>
	<path class="st11" d="M657.71,268.02L657.71,268.02c2.51-6.01,9.42-8.84,15.43-6.33L843,332.71c6.01,2.51,8.84,9.42,6.33,15.43l0,0
		c-2.51,6.01-9.42,8.84-15.43,6.33l-169.87-71.02C658.03,280.94,655.2,274.03,657.71,268.02z"/>
	<path class="st11" d="M602.59,375.7L602.59,375.7c2.51-6.01,9.42-8.84,15.43-6.33l221.27,92.51c6.01,2.51,8.84,9.42,6.33,15.43v0
		c-2.51,6.01-9.42,8.84-15.43,6.33l-221.27-92.51C602.92,388.62,600.08,381.71,602.59,375.7z"/>
	<path class="st11" d="M590.24,405.25L590.24,405.25c2.51-6.01,9.42-8.84,15.43-6.33l37.38,15.63c6.01,2.51,8.84,9.42,6.33,15.43
		l0,0c-2.51,6.01-9.42,8.84-15.43,6.33l-37.38-15.63C590.56,418.17,587.73,411.26,590.24,405.25z"/>
	<path class="st11" d="M548.4,505.34L548.4,505.34c2.51-6.01,9.42-8.84,15.43-6.33l221.27,92.51c6.01,2.51,8.84,9.42,6.33,15.43l0,0
		c-2.51,6.01-9.42,8.84-15.43,6.33l-221.27-92.51C548.72,518.25,545.89,511.34,548.4,505.34z"/>
	<path class="st11" d="M493.65,636.29L493.65,636.29c2.51-6.01,9.42-8.84,15.43-6.33l221.27,92.51c6.01,2.51,8.84,9.42,6.33,15.43h0
		c-2.51,6.01-9.42,8.84-15.43,6.33l-221.27-92.51C493.97,649.21,491.14,642.3,493.65,636.29z"/>
	<path class="st11" d="M481.4,665.61L481.4,665.61c2.51-6.01,9.42-8.84,15.43-6.33l221.27,92.51c6.01,2.51,8.84,9.42,6.33,15.43l0,0
		c-2.51,6.01-9.42,8.84-15.43,6.33l-221.27-92.51C481.72,678.52,478.88,671.61,481.4,665.61z"/>
	<path class="st11" d="M434.8,767.25L434.8,767.25c2.51-6.01,9.42-8.84,15.43-6.33l221.27,92.51c6.01,2.51,8.84,9.42,6.33,15.43v0
		c-2.51,6.01-9.42,8.84-15.43,6.33l-221.27-92.51C435.12,780.17,432.28,773.26,434.8,767.25z"/>
	<path class="st11" d="M422.39,796.92L422.39,796.92c2.51-6.01,9.42-8.84,15.43-6.33l114.79,47.99c6.01,2.51,8.84,9.42,6.33,15.43v0
		c-2.51,6.01-9.42,8.84-15.43,6.33l-114.79-47.99C422.71,809.83,419.88,802.93,422.39,796.92z"/>
	<circle class="st11" cx="572.32" cy="214.32" r="45.4"/>
	<circle class="st11" cx="515.03" cy="352.23" r="45.4"/>
	<circle class="st11" cx="458.87" cy="480.62" r="45.4"/>
	<circle class="st11" cx="400.81" cy="613.88" r="45.4"/>
	<circle class="st11" cx="343.42" cy="747.15" r="45.4"/>
</g>
<g id="Layer_5">
	
		<rect x="-138.47" y="207.25" transform="matrix(-0.9102 0.4142 -0.4142 -0.9102 530.8409 680.1545)" class="st12" width="660.3" height="380.76"/>
	
		<rect x="457.12" y="78.57" transform="matrix(-0.9102 0.4142 -0.4142 -0.9102 1020.9305 316.5289)" class="st10" width="38.06" height="380.76"/>
	<path class="st8" d="M385.34,254.29l1.54-0.7c4.24-1.93,9.25-0.06,11.18,4.19l78.92,173.42c1.93,4.24,0.06,9.25-4.19,11.18
		l-1.54,0.7c-4.24,1.93-9.25,0.06-11.18-4.19l-78.92-173.42C379.22,261.23,381.1,256.22,385.34,254.29z"/>
	<path class="st8" d="M362.66,264.61l1.54-0.7c4.24-1.93,9.25-0.06,11.18,4.19l79.8,175.35c1.93,4.24,0.06,9.25-4.19,11.18
		l-1.54,0.7c-4.24,1.93-9.25,0.06-11.18-4.19l-79.8-175.35C356.55,271.55,358.42,266.54,362.66,264.61z"/>
	<path class="st8" d="M340.99,276.29l1.54-0.7c4.24-1.93,9.25-0.06,11.18,4.19l78.09,171.6c1.93,4.24,0.06,9.25-4.19,11.18
		l-1.54,0.7c-4.24,1.93-9.25,0.06-11.18-4.19l-78.09-171.6C334.88,283.23,336.75,278.22,340.99,276.29z"/>
	<path class="st8" d="M318.04,286.74l1.54-0.7c4.24-1.93,9.25-0.06,11.18,4.19l29.83,65.55c1.93,4.24,0.06,9.25-4.19,11.18
		l-1.54,0.7c-4.24,1.93-9.25,0.06-11.18-4.19l-29.83-65.55C311.92,293.67,313.8,288.67,318.04,286.74z"/>
	<path class="st8" d="M227.35,327.46l1.54-0.7c4.24-1.93,9.25-0.06,11.18,4.19l78.92,173.42c1.93,4.24,0.06,9.25-4.19,11.18
		l-1.54,0.7c-4.24,1.93-9.25,0.06-11.18-4.19l-78.92-173.42C221.24,334.4,223.11,329.39,227.35,327.46z"/>
	<path class="st8" d="M202.82,337.46l1.54-0.7c4.24-1.93,9.25-0.06,11.18,4.19l78.92,173.42c1.93,4.24,0.06,9.25-4.19,11.18
		l-1.54,0.7c-4.24,1.93-9.25,0.06-11.18-4.19l-78.92-173.42C196.7,344.4,198.58,339.39,202.82,337.46z"/>
	<path class="st8" d="M180.05,347.82l1.54-0.7c4.24-1.93,9.25-0.06,11.18,4.19l42.64,93.7c1.93,4.24,0.06,9.25-4.19,11.18l-1.54,0.7
		c-4.24,1.93-9.25,0.06-11.18-4.19L175.86,359C173.93,354.76,175.81,349.75,180.05,347.82z"/>
	<path class="st8" d="M66.31,404.72l1.54-0.7c4.24-1.93,9.25-0.06,11.18,4.19l78.92,173.42c1.93,4.24,0.06,9.25-4.19,11.18
		l-1.54,0.7c-4.24,1.93-9.25,0.06-11.18-4.19L62.12,415.9C60.19,411.65,62.07,406.65,66.31,404.72z"/>
	<path class="st8" d="M43.27,415.2l1.54-0.7c4.24-1.93,9.25-0.06,11.18,4.19l41.28,90.7c1.93,4.24,0.06,9.25-4.19,11.18l-1.54,0.7
		c-4.24,1.93-9.25,0.06-11.18-4.19l-41.28-90.7C37.15,422.14,39.02,417.13,43.27,415.2z"/>
	<path class="st8" d="M266.65,175.52l77.71-35.37c6.95-3.16,15.16-0.09,18.32,6.86l30.54,67.11c3.16,6.95,0.09,15.16-6.86,18.32
		l-77.71,35.37c-6.95,3.16-15.16,0.09-18.32-6.86l-30.54-67.11C256.62,186.89,259.7,178.69,266.65,175.52z"/>
	<path class="st8" d="M114.63,244.7l77.71-35.37c6.95-3.16,15.16-0.09,18.32,6.86l30.54,67.11c3.16,6.95,0.09,15.16-6.86,18.32
		L156.63,337c-6.95,3.16-15.16,0.09-18.32-6.86l-30.54-67.11C104.6,256.07,107.68,247.87,114.63,244.7z"/>
	<path class="st8" d="M-41.16,315.6l77.71-35.37c6.95-3.16,15.16-0.09,18.32,6.86l30.54,67.11c3.16,6.95,0.09,15.16-6.86,18.32
		L0.84,407.89c-6.95,3.16-15.16,0.09-18.32-6.86l-30.54-67.11C-51.18,326.97-48.11,318.76-41.16,315.6z"/>
</g>
<g id="Layer_7">
	<path class="st13" d="M1793.68,803.44c-48.49-12.36-279.43-56.29-351.99-56.29c-85.07,0-178.42,18.33-328.15,66.79
		c-66.63,21.57-191.81,72.43-274.68,72.43c-72.91,0-174.86-14.97-241.91-41.96c-71.68-28.85-164.83-81.04-356.74-72.49
		c-78.55,3.5-95.56,2.73-240.21,22.34V1080h1920V834.97C1919.62,834.77,1851.78,818.24,1793.68,803.44z"/>
	<path class="st14" d="M1793.68,817.44c-48.49-11.73-279.43-53.44-351.99-53.44c-85.07,0-178.42,17.4-328.15,63.41
		c-66.63,20.47-191.81,68.76-274.68,68.76c-72.91,0-174.86-14.21-241.91-39.84c-71.68-27.39-164.83-76.94-356.74-68.82
		c-78.55,3.32-95.56,2.59-240.21,21.21V1080h1920V847.38C1919.62,847.19,1851.78,831.49,1793.68,817.44z"/>
	<path class="st15" d="M959.95,885.8c1.37-37.5,375.04-139.92,476.17-132.6c183.42,13.29,298.39,74.18,364.64,152.33
		c31.62,37.3-298.07-63.15-510.58,9.05C1116.73,973.51,958.58,923.29,959.95,885.8z"/>
	<path class="st13" d="M944.75,1098.97c-16.22,71.51-531.22,187.23-657.08,151.44C59.39,1185.5-63.41,1044.16-117.55,880.27
		c-25.85-78.24,354.92,185.05,653.19,92.53C779.1,897.28,960.96,1027.47,944.75,1098.97z"/>
	<path class="st16" d="M1801.64,849.63c-157.19-84.89-277.53-85.82-351.99-89.63c-84.96-4.34-250.42,28.36-400.15,105.53
		c-66.63,34.34-175.42,62.3-258.08,56.47c-87.63-6.18-189.31-48.51-264.5-74.77c-83.33-29.09-179.84-49.74-264.75-54.69
		c-67.12-3.91-156.5-4.98-262.17,12.49v488.97l1927.96-4V899.85C1927.59,899.53,1856.81,879.43,1801.64,849.63z"/>
</g>
<g id="Layer_10">
	<g>
		<g>
			<defs>
				
					<rect id="SVGID_2_" x="867.51" y="116.69" transform="matrix(0.9911 -0.1333 0.1333 0.9911 -55.4495 189.9022)" width="1046.54" height="784.91"/>
			</defs>
			<clipPath id="SVGID_3_">
				<use xlink:href="#SVGID_2_"  style="overflow:visible;"/>
			</clipPath>
			<g class="st17">
				<defs>
					
						<rect id="SVGID_4_" x="867.51" y="116.69" transform="matrix(0.9911 -0.1333 0.1333 0.9911 -55.4495 189.9022)" width="1046.54" height="784.91"/>
				</defs>
				<clipPath id="SVGID_5_">
					<use xlink:href="#SVGID_4_"  style="overflow:visible;"/>
				</clipPath>
				<g class="st18">
					<defs>
						
							<rect id="SVGID_6_" x="867.51" y="116.69" transform="matrix(0.9911 -0.1333 0.1333 0.9911 -55.4495 189.9022)" width="1046.54" height="784.91"/>
					</defs>
					<clipPath id="SVGID_7_">
						<use xlink:href="#SVGID_6_"  style="overflow:visible;"/>
					</clipPath>
				</g>
				<g class="st18">
					<defs>
						
							<rect id="SVGID_8_" x="950.22" y="298.22" transform="matrix(0.9911 -0.1333 0.1333 0.9911 -66.7546 197.0085)" width="975.98" height="597.84"/>
					</defs>
					<clipPath id="SVGID_9_">
						<use xlink:href="#SVGID_8_"  style="overflow:visible;"/>
					</clipPath>
				</g>
				<g class="st18">
					<defs>
						
							<rect id="SVGID_10_" x="859.41" y="143.11" transform="matrix(0.9911 -0.1333 0.1333 0.9911 -50.9401 162.6405)" width="659.98" height="637.44"/>
					</defs>
					<clipPath id="SVGID_11_">
						<use xlink:href="#SVGID_10_"  style="overflow:visible;"/>
					</clipPath>
				</g>
				<g class="st18">
					<defs>
						
							<rect id="SVGID_12_" x="867.51" y="116.69" transform="matrix(0.9911 -0.1333 0.1333 0.9911 -55.4495 189.9022)" width="1046.54" height="784.91"/>
					</defs>
					<clipPath id="SVGID_13_">
						<use xlink:href="#SVGID_12_"  style="overflow:visible;"/>
					</clipPath>
					<path class="st19" d="M1398.68,733.36c-0.3-0.52-0.91-0.61-1.43-0.75c-0.67-0.18-1.32-0.38-1.97-0.62
						c-1.28-0.48-2.53-1.07-3.71-1.78c-0.49-0.3-1.04,0.42-0.54,0.73c0.08,0.05,0.16,0.09,0.24,0.14c-0.06,0.05-0.13,0.09-0.18,0.15
						c-0.19,0.12-0.34,0.3-0.44,0.55c-0.05,0.12-0.09,0.24-0.14,0.36c-0.06,0.09-0.12,0.19-0.16,0.31
						c-0.13,0.36-0.25,0.71-0.38,1.07c-0.07,0.08-0.13,0.18-0.19,0.29c-0.29,0.62-0.59,1.24-0.88,1.86
						c-0.41,0.69-0.77,1.41-1.07,2.17c-0.22,0.46-0.44,0.93-0.65,1.39c-0.16-0.13-1.28,1.28-1.31,1.53
						c-0.83,8.78-1.43,10.6-1.66,17.65c-0.01,0.39,0.43,0.69,0.71,0.42c1.66-1.57,2.81-3.63,3.89-5.65c1.25-2.32,2.48-4.64,3.8-6.91
						c1.31-2.24,2.66-4.46,4.02-6.67c0.59-0.96,1.17-1.95,1.59-3.01c0.19-0.49,0.35-1,0.46-1.52
						C1398.82,734.54,1398.97,733.86,1398.68,733.36"/>
					<path class="st19" d="M1392.81,732.35c-0.01-0.12-0.04-0.22-0.08-0.33c0.01-0.18-0.02-0.35-0.08-0.51
						c-0.08-0.19-0.2-0.35-0.36-0.48c-0.16-0.13-0.34-0.2-0.54-0.23c-0.21-0.03-0.4,0-0.6,0.08c-0.19,0.06-0.4,0.25-0.52,0.41
						c-0.07,0.09-0.12,0.19-0.16,0.3l-0.08,0.29c0,0.01-0.01,0.03-0.01,0.04c-0.01,0.1-0.01,0.25,0,0.36c0,0.04,0.02,0.08,0.03,0.12
						c-0.12,0.21-0.2,0.41-0.25,0.67c-0.05,0.28,0,0.58,0.09,0.85c0.04,0.13,0.12,0.24,0.2,0.35c0.15,0.22,0.32,0.3,0.54,0.43
						c0.14,0.07,0.29,0.1,0.45,0.08c0.16,0.02,0.31-0.01,0.46-0.08c0.09-0.05,0.17-0.11,0.26-0.16c0.12-0.09,0.22-0.21,0.28-0.35
						c0.06-0.08,0.1-0.18,0.11-0.28c0.05-0.15,0.07-0.31,0.04-0.47c-0.01-0.02-0.01-0.05-0.02-0.07c0.05-0.08,0.1-0.17,0.13-0.26
						C1392.8,732.83,1392.82,732.64,1392.81,732.35"/>
					<path class="st20" d="M1391.16,730.09c-3.92-1.25-7.68-3.1-11.3-5.09c-0.73-0.41-1.46-0.82-2.19-1.25
						c-0.17-0.1-0.34-0.2-0.52-0.29c-2.73-1.6-5.41-3.29-8.07-5.01c-2.15-1.38-4.3-2.77-6.46-4.15c-0.3-0.19-0.63,0.26-0.33,0.45
						c0.4,0.26,0.8,0.53,1.2,0.79c-0.87-0.1-1.69,0.66-1.6,1.67c0.11,1.22,0.23,2.42,0.04,3.63c-0.2,1.28-0.68,2.51-0.87,3.79
						c-0.06,0.4,0.03,0.73,0.21,1c-0.19,0.38-0.38,0.77-0.57,1.16c-0.28,0.57-0.03,1.29,0.43,1.7c-0.09,0.32-0.13,0.64-0.04,0.97
						c0.01,0.05,0.04,0.09,0.05,0.14c-0.52-0.02-1.04-0.03-1.56-0.07c-0.99-0.07-2.11-0.26-2.66-1.22c-0.16-0.28-0.62,0-0.47,0.29
						c0.86,1.69,2.08,2.54,3.66,2.59c2.4,0.08,5.5-0.22,7.89,0.1c4.11,0.54,8.29,1.12,12.29,2.27c0.53,0.22,1.09,0.38,1.65,0.51
						c0.06,0.02,0.13,0.04,0.19,0.06c0.63,0.21,1.3,0.39,1.9,0.66c0.32,0.15,0.36,0.48,0.47,0.83c0.11,0.33,0.22,0.66,0.31,0.99
						c0.42,1.45,0.67,2.96,0.8,4.47c0.02,0.28,0.46,0.43,0.6,0.17c1.91-3.45,3.61-7.03,5.11-10.69
						C1391.42,730.39,1391.34,730.15,1391.16,730.09"/>
				</g>
				<g class="st18">
					<defs>
						<path id="SVGID_14_" d="M1361.94,720.85c-0.2,1.28-0.68,2.51-0.87,3.79c-0.06,0.4,0.03,0.73,0.21,1
							c-0.19,0.38-0.38,0.77-0.57,1.16c-0.28,0.57-0.03,1.29,0.43,1.7c-0.09,0.32-0.13,0.64-0.04,0.97
							c0.01,0.05,0.04,0.09,0.05,0.14c-0.52-0.02-1.04-0.03-1.56-0.07c-0.99-0.07-2.11-0.26-2.66-1.22c-0.16-0.28-0.62,0-0.47,0.29
							c0.86,1.69,2.08,2.54,3.66,2.59c2.4,0.08,5.5-0.22,7.89,0.1c4.11,0.54,8.29,1.12,12.29,2.27c0.53,0.22,1.09,0.38,1.65,0.51
							c0.06,0.02,0.13,0.04,0.19,0.06c0.63,0.21,1.3,0.39,1.9,0.66c0.32,0.15,0.36,0.48,0.47,0.83c0.11,0.33,0.22,0.66,0.31,0.99
							c0.42,1.45,0.67,2.96,0.8,4.47c0.02,0.28,0.46,0.43,0.6,0.17c1.39-2.51,2.66-5.08,3.83-7.71c-1.38-0.72-2.72-1.49-4.03-2.14
							c-3.67-1.83-7.37-3.6-11.05-5.43c-4.17-2.08-8.77-3.87-12.96-6.27C1362.03,720.08,1362,720.46,1361.94,720.85"/>
					</defs>
					<clipPath id="SVGID_15_">
						<use xlink:href="#SVGID_14_"  style="overflow:visible;"/>
					</clipPath>
					
						<linearGradient id="SVGID_16_" gradientUnits="userSpaceOnUse" x1="661.8702" y1="934.9168" x2="662.4758" y2="934.9168" gradientTransform="matrix(-7.7547 16.5925 16.5925 7.7547 -9004.1045 -17507.2305)">
						<stop  offset="0" style="stop-color:#FFB435"/>
						<stop  offset="1" style="stop-color:#0424D9"/>
					</linearGradient>
					<polygon class="st21" points="1399.9,721.92 1383.56,756.88 1346.44,739.53 1362.78,704.57 					"/>
				</g>
				<g class="st18">
					<defs>
						
							<rect id="SVGID_17_" x="867.51" y="116.69" transform="matrix(0.9911 -0.1333 0.1333 0.9911 -55.4495 189.9022)" width="1046.54" height="784.91"/>
					</defs>
					<clipPath id="SVGID_18_">
						<use xlink:href="#SVGID_17_"  style="overflow:visible;"/>
					</clipPath>
				</g>
				<g class="st18">
					<defs>
						
							<rect id="SVGID_19_" x="867.51" y="116.69" transform="matrix(0.9911 -0.1333 0.1333 0.9911 -55.4495 189.9022)" width="1046.54" height="784.91"/>
					</defs>
					<clipPath id="SVGID_20_">
						<use xlink:href="#SVGID_19_"  style="overflow:visible;"/>
					</clipPath>
					<path class="st22" d="M992.49,815.66c-5.15-0.29-10.35-1.1-15.43-2.03c-5.1-0.93-10.14-2.27-15.09-3.8
						c-9.89-3.06-19.45-7.13-28.41-12.33c-1.28-0.74-2.55-1.5-3.81-2.27c-1.22-0.74-2.4-1.63-3.68-2.25
						c-1.44-0.7-2.75-0.21-3.75,0.94c-0.2,0.23-0.39,0.45-0.58,0.68c-1.21,1.5-1.83,2.04-2.8,3.48c-0.81,1.2,0.86,2.23,1.81,1.19
						c0.48,0.2,1.1,0.14,1.46-0.35c0.13,0.1,0.25,0.2,0.37,0.3c0.52,0.44,1.05,0.88,1.58,1.32c1.02,0.85,2.06,1.68,3.11,2.49
						c2.1,1.63,4.22,3.23,6.38,4.77c4.37,3.09,8.85,6.02,13.44,8.78c4.6,2.76,9.32,5.33,14.12,7.74c4.5,2.25,9.6,4.5,14.73,3.29
						c5.56-1.31,9.45-5.68,14.48-8.06c0.6-0.29,0.79-0.82,0.7-1.33c0.37,0.03,0.75,0.06,1.12,0.09
						C993.97,818.47,994.2,815.76,992.49,815.66"/>
				</g>
				<g class="st18">
					<defs>
						
							<rect id="SVGID_21_" x="867.51" y="116.69" transform="matrix(0.9911 -0.1333 0.1333 0.9911 -55.4495 189.9022)" width="1046.54" height="784.91"/>
					</defs>
					<clipPath id="SVGID_22_">
						<use xlink:href="#SVGID_21_"  style="overflow:visible;"/>
					</clipPath>
					<path class="st23" d="M1009.69,849.01c-6.04-1.26-11.96-3.54-17.47-6.28c-1.78-0.89-3.53-1.85-5.24-2.87
						c0.02-0.51-0.32-0.95-0.8-1.18c-1.57-0.77-3.09-1.83-4.55-2.78c-1.51-0.98-3.02-2-4.43-3.12c-1.87-1.49-2.99-2.54-4.72-4.18
						c0.15-0.7-0.37-0.95-1.48-1.74c-0.59-0.42-2.18-1.04-2.97-1.42c-0.67-0.32-1.89-0.94-2.56-1.23c-1.71-0.76-3.4-1.57-5.1-2.33
						c-3.38-1.52-6.68-3.14-9.92-4.9c-6.57-3.57-12.91-7.5-18.97-11.89c-3.42-2.48-6.64-5.18-9.98-7.76
						c-0.71-0.54-1.89-0.31-2.36,0.44c-0.6,0.95-1.21,1.87-1.86,2.79c-0.37,0.53-0.38,1.44,0.11,1.92
						c5.96,5.88,11.63,12.03,17.63,17.87c5.98,5.81,12.1,11.49,18.47,16.88c6.53,5.53,13.29,10.78,20.02,16.07
						c3.42,2.69,6.84,5.39,10.28,8.05c1.68,1.31,3.35,2.63,5.05,3.91c0.83,0.62,1.67,1.24,2.5,1.87c0.79,0.59,1.56,1.24,2.46,1.68
						c2.22,1.08,4.68-0.2,6.83-0.9c1.11-0.36,2.22-0.71,3.33-1.06c0.53-0.17,1.06-0.33,1.59-0.5c0.78-0.25,1.02-0.72,1.23-1.45
						c1.34-4.68,2.72-9.34,4.11-14C1011.16,849.93,1010.59,849.2,1009.69,849.01"/>
				</g>
				<g class="st18">
					<defs>
						
							<rect id="SVGID_23_" x="867.51" y="116.69" transform="matrix(0.9911 -0.1333 0.1333 0.9911 -55.4495 189.9022)" width="1046.54" height="784.91"/>
					</defs>
					<clipPath id="SVGID_24_">
						<use xlink:href="#SVGID_23_"  style="overflow:visible;"/>
					</clipPath>
					<path class="st24" d="M1041.52,786.71c-1.04,1.05-2.06,2.14-3.05,3.26c0.73-1.95-0.83-3.78-2.5-3.74
						c0.23-0.85-0.02-1.67-0.54-2.27c-0.18-1.77-2.57-3.15-4.24-1.75c-0.14-0.15-0.3-0.28-0.46-0.4c0.04-1.13-0.82-2.06-1.85-2.29
						c-0.23-0.8-0.99-1.42-1.82-1.58c-0.5-1.04-1.66-1.71-2.7-0.98c-0.02-0.08-0.04-0.17-0.07-0.25c0-0.01,0.01-0.02,0.01-0.03
						c0.69-1.91-2.2-3.54-3.26-1.67c-0.13,0.23-0.26,0.47-0.39,0.7c-0.56,0.12-1.08,0.48-1.4,1.17c-0.45,0.98-0.9,1.95-1.36,2.93
						c-0.11,0.12-0.21,0.26-0.31,0.42c-5.99,10.09-12.18,20.26-19.28,29.62c-6.4,8.45-13.96,15.36-24.7,17.15
						c-1.91,0.32-3,2.94-1.55,4.4c9.8,9.81,23.88,19.78,37.96,19.21c1.09-0.04,1.05-0.66,1.47-1.72
						c3.98-10.2,8.57-23.62,14.26-32.97c2.73-4.49,5.63-8.87,8.69-13.13c3.25-4.53,6.92-8.76,10.14-13.3
						C1045.92,787.58,1043.22,785.01,1041.52,786.71"/>
				</g>
				<g class="st18">
					<defs>
						<path id="SVGID_25_" d="M1021.05,774.99c-0.13,0.23-0.26,0.47-0.39,0.7c-0.56,0.12-1.08,0.48-1.4,1.17
							c-0.23,0.5-0.46,1-0.7,1.51c3.72,7.61,0.46,16.29-2.41,23.65c-2.98,7.66-7.01,15.06-12.8,20.97
							c-5.51,5.62-12.77,9.71-20.64,10.74c-2.62,0.34-5.5,0.36-8.3-0.08c9.63,9.02,22.62,17.47,35.61,16.94
							c1.09-0.04,1.05-0.66,1.47-1.72c3.98-10.19,8.58-23.62,14.26-32.97c2.73-4.49,5.63-8.87,8.69-13.13
							c3.25-4.53,6.92-8.75,10.14-13.3c1.33-1.88-1.37-4.46-3.07-2.75c-1.05,1.05-2.06,2.14-3.05,3.25c0.73-1.95-0.83-3.78-2.5-3.74
							c0.23-0.85-0.02-1.67-0.54-2.27c-0.18-1.77-2.57-3.15-4.24-1.75c-0.14-0.15-0.3-0.28-0.46-0.4c0.03-1.13-0.82-2.06-1.85-2.29
							c-0.23-0.8-0.99-1.42-1.82-1.58c-0.5-1.04-1.66-1.71-2.7-0.98c-0.02-0.08-0.04-0.17-0.07-0.25c0-0.01,0.01-0.02,0.01-0.03
							c0.5-1.4-0.91-2.65-2.11-2.49C1021.75,774.24,1021.33,774.49,1021.05,774.99"/>
					</defs>
					<clipPath id="SVGID_26_">
						<use xlink:href="#SVGID_25_"  style="overflow:visible;"/>
					</clipPath>
					
						<linearGradient id="SVGID_27_" gradientUnits="userSpaceOnUse" x1="655.1928" y1="935.9922" x2="655.7985" y2="935.9922" gradientTransform="matrix(47.1438 -149.4307 -149.4307 -47.1438 109977.2969 142879.9062)">
						<stop  offset="0" style="stop-color:#FFB435"/>
						<stop  offset="1" style="stop-color:#0424D9"/>
					</linearGradient>
					<polygon class="st25" points="947.21,845.59 977.27,750.31 1073.83,780.77 1043.77,876.06 					"/>
				</g>
				<g class="st18">
					<defs>
						
							<rect id="SVGID_28_" x="867.51" y="116.69" transform="matrix(0.9911 -0.1333 0.1333 0.9911 -55.4495 189.9022)" width="1046.54" height="784.91"/>
					</defs>
					<clipPath id="SVGID_29_">
						<use xlink:href="#SVGID_28_"  style="overflow:visible;"/>
					</clipPath>
				</g>
				<g class="st18">
					<defs>
						<path id="SVGID_30_" d="M1526.19,398.61c-6.03,3.49-10.86,9.45-11.82,16.07c-1.39,1-2.67,2.16-3.8,3.48
							c-5.09,5.98-7.28,15.78-4.24,23.13c3.81,9.22,13.59,12.84,22.5,15.2c3.89,1.03,4.71-5.21,0.85-6.21
							c-1.26-0.33-2.58-0.72-3.91-1.17c0.03-0.04,0.07-0.07,0.1-0.11c0.93-1.28,1.85-2.57,2.76-3.87c1.23,1.5,3.75,2.03,5.1,0.06
							c0.35-0.52,0.7-1.04,1.06-1.57c0.86,0.71,2.04,1,3.17,0.45c2.44-1.18,4.63-2.66,6.54-4.39c0.06,1.25,0.39,2.47,1.13,3.63
							c0.9,1.42,3.52,1.77,4.72,0.58c0.2-0.19,0.39-0.39,0.58-0.59c0.14,1.06,0.27,2.13,0.44,3.2c0.54,3.52,6.2,3.79,6.47,0.01
							c0.21-3-0.01-6.09-0.64-9.13c0.73,0.28,1.55,0.35,2.3,0.18c-1.35,2.27-0.4,4.79,2.24,5.39c1.98,0.45,3.53,0,4.75-0.99
							c-1.1,1.65-2.33,3.22-3.53,4.94c-2.09,2.99,1.49,6.45,4.46,4.41c6.31-4.32,9.46-13.85,9.96-21.12
							c0.56-8.04-1.5-16.27-6.41-22.74c-7.49-9.88-20.54-14.55-32.66-12.92C1534.05,395.11,1529.92,396.45,1526.19,398.61"/>
					</defs>
					<clipPath id="SVGID_31_">
						<use xlink:href="#SVGID_30_"  style="overflow:visible;"/>
					</clipPath>
				</g>
				<g class="st18">
					<defs>
						
							<rect id="SVGID_32_" x="867.51" y="116.69" transform="matrix(0.9911 -0.1333 0.1333 0.9911 -55.4495 189.9022)" width="1046.54" height="784.91"/>
					</defs>
					<clipPath id="SVGID_33_">
						<use xlink:href="#SVGID_32_"  style="overflow:visible;"/>
					</clipPath>
				</g>
				<g class="st18">
					<defs>
						
							<rect id="SVGID_34_" x="867.51" y="116.69" transform="matrix(0.9911 -0.1333 0.1333 0.9911 -55.4495 189.9022)" width="1046.54" height="784.91"/>
					</defs>
					<clipPath id="SVGID_35_">
						<use xlink:href="#SVGID_34_"  style="overflow:visible;"/>
					</clipPath>
					<g class="st26">
						<g>
							<defs>
								
									<rect id="SVGID_36_" x="1251.29" y="729.6" transform="matrix(0.9911 -0.1333 0.1333 0.9911 -89.6943 178.7587)" width="78.27" height="59.53"/>
							</defs>
							<clipPath id="SVGID_37_">
								<use xlink:href="#SVGID_36_"  style="overflow:visible;"/>
							</clipPath>
						</g>
					</g>
					<g class="st27">
						<g>
							<defs>
								
									<rect id="SVGID_38_" x="1339.41" y="745.36" transform="matrix(0.9911 -0.1333 0.1333 0.9911 -94.3801 201.0624)" width="230.55" height="120.32"/>
							</defs>
							<clipPath id="SVGID_39_">
								<use xlink:href="#SVGID_38_"  style="overflow:visible;"/>
							</clipPath>
							<g class="st28">
								<defs>
									<path id="SVGID_40_" d="M1564.44,791.77c-3.49-0.66-7.01-0.92-10.53-1.23c2.5-1.99,3.49-6.15,1.14-8.59
										c-1.87-1.94-4.1-3.42-6.53-4.64c0.38-0.94,0.52-1.98,0.37-3.01c-13.59,1.44-27.38,1.45-40.7,0.69
										c-24.12-1.36-47.98-5.71-71.49-11.13c-11.66-2.69-23.31-5.86-35.15-7.71c-5.68-0.88-11.6-1.62-17.35-1.59
										c-5.28,0.03-10.3,1.15-13.78,5.36c-2.89,3.48-4.62,7.84-5.8,12.17c-1.47,5.41-2.72,10.92-4.03,16.38
										c-2.76,11.49-5.21,23.06-7.21,34.7c-3.25,18.89-5.4,38.14-4.94,57.34c0.97-0.71,2.04-2.71,2.17-3.36
										c4.23-20.83,8.92-41.58,13.44-62.35c2.21-10.17,4.44-20.34,6.65-30.52c1.1-5.08,2.2-10.15,3.3-15.23
										c0.25-1.16,0.4-2.64,0.84-3.89c0.28-0.55,0.58-1.08,0.91-1.61c0.07-0.07,0.13-0.14,0.21-0.21
										c1.98-1.78,5.36-0.93,7.67-0.26c9.3,2.74,18.37,6.62,27.55,9.76c9.5,3.25,19.02,6.45,28.61,9.41
										c18.81,5.8,37.67,11.36,56.74,16.25c21.63,5.54,43.45,10.44,65.41,14.45c0.71,0.13,1.62-1.31,2.2-2.41
										c1.52-0.36,2.98-1,4.36-2.04c2.34-1.78,2.62-5.07,1.09-7.35C1571.08,797.61,1568.69,792.58,1564.44,791.77 M1519.75,799.95
										c1.17,0.24,2.34,0.48,3.51,0.71c0.21,0.07,0.43,0.14,0.64,0.21C1522.51,800.57,1521.13,800.27,1519.75,799.95"/>
								</defs>
								<clipPath id="SVGID_41_">
									<use xlink:href="#SVGID_40_"  style="overflow:visible;"/>
								</clipPath>
							</g>
						</g>
					</g>
				</g>
				<g class="st18">
					<defs>
						
							<rect id="SVGID_42_" x="867.51" y="116.69" transform="matrix(0.9911 -0.1333 0.1333 0.9911 -55.4495 189.9022)" width="1046.54" height="784.91"/>
					</defs>
					<clipPath id="SVGID_43_">
						<use xlink:href="#SVGID_42_"  style="overflow:visible;"/>
					</clipPath>
					<path class="st29" d="M1400.69,613.56c-5.96,4.58-11.5,9.75-17.1,14.79c-1.22,1.1-2.42,2.21-3.63,3.31
						c-0.25-3.8-3.58-7.23-7.37-7.2c-2.35-2.31-6.13-3.11-9.76-0.51c-0.96,0.68-1.9,1.38-2.86,2.07c-2.17-0.74-4.64-0.58-6.47,0.79
						c-1.32-0.4-2.73-0.47-4.11-0.14c-2.2-1.77-5.2-2.35-7.98-0.6c-2.85-1.86-6.91-1.79-9.91,1.79c-0.26,0.31-0.53,0.61-0.79,0.92
						c-1.91-0.95-4.17-1.12-6.07-0.08c-0.56,0.3-1.08,0.64-1.59,0.98c-2.26-2.49-6.11-3.6-8.88-1.82c-2.22-0.87-4.95-0.7-6.98,0.69
						c-0.73-0.28-1.68-0.08-2.09,0.85c-10.31,23.27-21.67,46.03-33.95,68.23c-1.5,2.71-2.95,5.48-4.57,8.11
						c-0.75,1.21-1.61,2.51-1.64,4.01c-0.03,1.72,0.81,3.17,1.76,4.53c3.36,4.85,7.59,9.25,12.29,12.72
						c1.07,0.79,2.25,1.52,3.51,1.91c1.4,0.43,2.83,0.52,4.28,0.56c3.31,0.09,6.63,0.18,9.94,0.27l19.26,0.57
						c14.56,0.43,29.13,0.87,43.69,1.3c1.16,0.03,2.07-0.73,2.22-1.94c0.58-4.51,1.12-9.02,1.73-13.53
						c0.13-0.98-0.56-1.84-1.37-2.21c-7.2-3.33-14.39-6.69-21.57-10.08c-6.09-2.88-12.12-5.91-18.21-8.8
						c9.37-10.3,19.06-20.28,28.96-30.03c10.76-10.6,21.73-20.97,32.89-31.11c6.32-5.74,12.89-11.22,19.01-17.18
						C1405.23,614.9,1402.76,611.98,1400.69,613.56 M1274.79,718.05c0.11-0.02,0.23-0.04,0.34-0.07c0.2,0.4,0.45,0.78,0.75,1.15
						C1275.51,718.78,1275.14,718.42,1274.79,718.05"/>
				</g>
				<g class="st18">
					<defs>
						<path id="SVGID_44_" d="M1341.41,626.07c0.84-0.53,1.7-0.84,2.55-0.98c-0.68-0.27-1.53-0.34-2.18-0.25
							C1340.88,624.96,1340.39,625.4,1341.41,626.07 M1400.69,613.56c-5.96,4.58-11.5,9.75-17.09,14.79
							c-1.22,1.1-2.42,2.21-3.63,3.31c-0.25-3.8-3.58-7.23-7.37-7.2c-2.35-2.31-6.13-3.11-9.76-0.51c-0.96,0.68-1.9,1.38-2.86,2.07
							c-2.17-0.74-4.64-0.58-6.47,0.79c-1.32-0.4-2.73-0.47-4.11-0.14c-1.53-1.24-3.46-1.89-5.43-1.58c1.02,0.4,1.63,1.24,0.47,2.62
							c-0.26,0.31-0.53,0.61-0.79,0.92c-1.91-0.95-4.17-1.12-6.07-0.08c-0.55,0.3-1.08,0.64-1.59,0.98
							c-0.74-0.81-1.64-1.47-2.62-1.94c-16.33,24.84-38.41,57.55-56.88,82.66c4.72,4.11,9.47,8.19,14.19,12.3
							c0.11,0.09,0.22,0.18,0.32,0.28c13.37,2.5,26.85,2.27,40.36,2.26c6.64-0.01,13.31-0.02,19.94,0.59
							c3.48,0.32,7.28,0.63,10.94,1.38c0.46-3.64,0.91-7.28,1.4-10.91c0.13-0.98-0.56-1.84-1.37-2.21
							c-7.2-3.33-14.39-6.69-21.57-10.08c-6.09-2.88-12.12-5.91-18.21-8.8c9.37-10.3,19.06-20.28,28.96-30.03
							c10.76-10.6,21.73-20.97,32.89-31.11c6.32-5.74,12.89-11.22,19.01-17.18c1.59-1.55,0.1-3.85-1.64-3.62
							C1401.37,613.17,1401.02,613.31,1400.69,613.56"/>
					</defs>
					<clipPath id="SVGID_45_">
						<use xlink:href="#SVGID_44_"  style="overflow:visible;"/>
					</clipPath>
					
						<linearGradient id="SVGID_46_" gradientUnits="userSpaceOnUse" x1="655.7521" y1="936.3746" x2="656.3578" y2="936.3746" gradientTransform="matrix(55.284 162.8106 162.8106 -55.284 -187375.3438 -54361.0156)">
						<stop  offset="0" style="stop-color:#0424D9"/>
						<stop  offset="0.1687" style="stop-color:#224ED9"/>
						<stop  offset="0.4616" style="stop-color:#5290D8"/>
						<stop  offset="0.7078" style="stop-color:#75C1D7"/>
						<stop  offset="0.8946" style="stop-color:#8BDFD7"/>
						<stop  offset="1" style="stop-color:#93EAD7"/>
					</linearGradient>
					<polygon class="st30" points="1395.94,587.23 1438.56,712.77 1288.88,763.59 1246.25,638.05 					"/>
				</g>
				<g class="st18">
					<defs>
						
							<rect id="SVGID_47_" x="867.51" y="116.69" transform="matrix(0.9911 -0.1333 0.1333 0.9911 -55.4495 189.9022)" width="1046.54" height="784.91"/>
					</defs>
					<clipPath id="SVGID_48_">
						<use xlink:href="#SVGID_47_"  style="overflow:visible;"/>
					</clipPath>
					<path class="st31" d="M1451.91,571.52c-4.13,6.6-7.58,13.66-11.68,20.25c-0.77-3.47-5.75-5.14-8.07-2.1
						c-4.14-0.75-8.68-0.46-12.79-1.2c-5.1-0.92-10.19-2.29-15.05-4.1c-9.46-3.52-17.63-10.31-28.03-10.46
						c-0.12-0.46-0.29-0.9-0.55-1.28c0.38-1.73-0.49-3.65-2.82-4.03c-1.41-0.23-2.83-0.38-4.25-0.49c0.97-1.88,0.36-4.4-2.4-4.77
						c-4.61-0.61-9.37-0.86-14.06-0.49c-0.52-0.3-1.15-0.43-1.84-0.31c-1.44,0.25-2.86,0.56-4.26,0.95
						c1.13-0.53,2.24-0.87,1.27-0.71c-28.68,4.74-63.45,9.76-92.13,14.47c-14.34,2.35-28.68,4.69-43.02,7.06
						c-12.04,1.99-24.74,3.84-35.55,9.49c-11.42,5.96-19.09,16.05-27.18,24.88c-9,9.83-18.02,19.65-27.03,29.47
						c-18,19.61-36.16,39.12-53.96,58.85c-19.27,21.36-38.63,43.12-55.02,66.12c-1.13,1.58-0.57,3.46,1.42,4.09
						c11.67,3.7,21.49,10.31,28.13,19.23c1.21,1.62,3.5,1.79,5.08,0.18c39.08-39.67,91.72-67.97,128.8-109.28
						c8.63-9.61,16.41-19.79,22.72-30.58c1.46-2.5,2.65-5.12,4.16-7.59c2.04-3.33,6.42-3.2,10.24-3.77
						c7.96-1.17,15.96-2.07,23.95-2.95c32.78-3.61,65.73-5.82,98.57-6.63c26.99-0.66,57.8,0.17,82.52-12.49
						c4.82-2.47,9.57-5.55,14.01-9c12.62-9.76,25.67-23.57,25.42-40.1C1458.48,570.76,1453.93,568.3,1451.91,571.52"/>
					<g class="st32">
						<g>
							<defs>
								
									<rect id="SVGID_49_" x="1020.5" y="598.42" transform="matrix(0.9911 -0.1333 0.1333 0.9911 -80.0539 172.1525)" width="450.79" height="171.28"/>
							</defs>
							<clipPath id="SVGID_50_">
								<use xlink:href="#SVGID_49_"  style="overflow:visible;"/>
							</clipPath>
							<g class="st33">
								<defs>
									<path id="SVGID_51_" d="M1451.86,571.13c-4.13,6.6-7.58,13.66-11.68,20.25c-0.77-3.47-5.75-5.14-8.07-2.1
										c-4.14-0.75-8.68-0.46-12.79-1.2c-5.1-0.92-14.4-1.72-19.26-3.53c-0.17-0.06,9.69-7.61,9.52-7.68
										c-23.53,7.13-26.63,21.08-50.68,25.73c-32.41,6.27-62.32,13.57-111.96,17.19c-8.22,0.6-44.32,5.81-51.06,10.5
										c-6.19,4.32-21.37,21.33-25.94,27.32c-39.1,51.25-95.59,85.38-137.79,128.21c7.91,3.83,5.89,3.62,10.84,10.25
										c1.21,1.62,3.5,1.79,5.08,0.18c39.08-39.67,91.72-67.97,128.8-109.28c8.63-9.61,16.41-19.79,22.72-30.58
										c1.46-2.5,2.65-5.12,4.16-7.59c2.04-3.33,6.42-3.2,10.24-3.77c7.96-1.17,15.96-2.07,23.95-2.95
										c32.78-3.61,65.73-5.82,98.57-6.63c26.99-0.66,57.8,0.17,82.52-12.49c4.82-2.47,9.57-5.55,14.01-9
										c12.62-9.76,25.67-23.57,25.42-40.1C1458.42,570.37,1453.88,567.91,1451.86,571.13"/>
								</defs>
								<clipPath id="SVGID_52_">
									<use xlink:href="#SVGID_51_"  style="overflow:visible;"/>
								</clipPath>
								
									<radialGradient id="SVGID_53_" cx="654.6166" cy="936.1027" r="0.7921" gradientTransform="matrix(213.6011 -28.7244 -28.7244 -213.6011 -111722.4609 219403.0469)" gradientUnits="userSpaceOnUse">
									<stop  offset="0" style="stop-color:#0424D9"/>
									<stop  offset="1" style="stop-color:#41D9B9"/>
								</radialGradient>
								<polygon class="st34" points="1010.87,627.48 1458.02,567.35 1481.16,739.41 1034,799.54 								"/>
							</g>
						</g>
					</g>
				</g>
				<g class="st18">
					<defs>
						<path id="SVGID_54_" d="M1201.55,288.68c-3.45,3.14-0.01,7.18,2.79,9.75c8.41,7.72,19.56,13.11,27.9,20.94
							c1.76,1.65,4.54,0.63,5.05-0.92c4.45,2.8,9.17,5.32,13.98,7.77c0.4,0.2,0.84,0.32,1.28,0.36c0.64,0.48,1.28,0.97,1.92,1.45
							c0.97,0.73,2.06,0.68,2.91,0.24c0.6,0.79,1.2,1.57,1.82,2.33c1.43,1.76,4.64,0.07,3.67-1.79
							c-2.74-5.27-6.59-10.33-10.08-15.29c-3.04-4.32-6.14-8.66-9.98-12.53c-3.32-3.35-7.22-6.29-11.75-8.41
							c-5.05-2.37-10.55-3.06-16.13-3.9c-2.73-0.41-7.02-1.72-10.31-1.28C1203.42,287.56,1202.36,287.94,1201.55,288.68"/>
					</defs>
					<clipPath id="SVGID_55_">
						<use xlink:href="#SVGID_54_"  style="overflow:visible;"/>
					</clipPath>
					
						<linearGradient id="SVGID_56_" gradientUnits="userSpaceOnUse" x1="646.7879" y1="940.7554" x2="647.3936" y2="940.7554" gradientTransform="matrix(15.9154 -36.8866 36.8866 15.9154 -43767.6016 9202.8789)">
						<stop  offset="0" style="stop-color:#FFB435"/>
						<stop  offset="0.5915" style="stop-color:#FFAE28"/>
						<stop  offset="1" style="stop-color:#FFA81C"/>
					</linearGradient>
					<polygon class="st35" points="1251.76,360.26 1281.66,290.96 1209.86,259.98 1179.96,329.28 					"/>
				</g>
				<g class="st18">
					<defs>
						<path id="SVGID_57_" d="M1270.39,218.46c-12.79,6.93-25.29,14.22-36.05,24.13c-10.03,9.23-18.18,20.57-22.42,33.61
							c-2.31,7.12-3.36,14.61-2.83,22.09c0.03,0.38,0.15,0.69,0.33,0.94c-0.07,1.41,1.88,2.62,3.03,1.23
							c12.92-15.64,30.91-26.69,41.38-44.42c2.72-4.6,4.77-9.55,5.93-14.77c0.38-1.72-1.75-2.38-2.83-1.35
							c-1.69,1.62-3.39,3.24-5.08,4.87c6.42-8.4,13.28-16.46,20.52-24.15c1.09-1.16-0.19-2.52-1.45-2.35
							C1270.74,218.31,1270.56,218.36,1270.39,218.46"/>
					</defs>
					<clipPath id="SVGID_58_">
						<use xlink:href="#SVGID_57_"  style="overflow:visible;"/>
					</clipPath>
					
						<radialGradient id="SVGID_59_" cx="654.1689" cy="930.498" r="0.7921" gradientTransform="matrix(46.628 3.2144 3.2144 -46.628 -32264.8086 41558.7266)" gradientUnits="userSpaceOnUse">
						<stop  offset="0" style="stop-color:#41D9B9"/>
						<stop  offset="0.1714" style="stop-color:#41D5BA"/>
						<stop  offset="0.3511" style="stop-color:#41C8BF"/>
						<stop  offset="0.5348" style="stop-color:#42B3C6"/>
						<stop  offset="0.7211" style="stop-color:#4296CF"/>
						<stop  offset="0.9077" style="stop-color:#4370DC"/>
						<stop  offset="1" style="stop-color:#435BE3"/>
					</radialGradient>
					<polygon class="st36" points="1200.6,212.96 1288.29,219 1282.22,307.08 1194.53,301.04 					"/>
				</g>
				<g class="st18">
					<defs>
						
							<rect id="SVGID_60_" x="867.51" y="116.69" transform="matrix(0.9911 -0.1333 0.1333 0.9911 -55.4495 189.9022)" width="1046.54" height="784.91"/>
					</defs>
					<clipPath id="SVGID_61_">
						<use xlink:href="#SVGID_60_"  style="overflow:visible;"/>
					</clipPath>
					<path class="st37" d="M1248.33,241.66c-21.44,20.01-37.13,46.01-43.89,74.59c-0.27,1.13,2.93-1.66,3.03-1.77
						c1.29-1.34,2.8-3.02,3.27-4.88c6.18-24.53,18.41-47.14,36.43-64.96C1248.01,243.79,1251.06,239.11,1248.33,241.66"/>
					<path class="st38" d="M1265.96,337.59c-2.49-2.09-4.89-4.25-7.34-6.36c-0.17,0.3-0.63,0.49-1.04,0.26
						c-0.04,0.01-0.08,0.01-0.12,0.02c0.4,0.58-0.42,1.27-1.13,0.79c-0.27-0.19-0.55-0.36-0.82-0.54c-0.17,0.21-0.52,0.32-0.86,0.27
						c-0.06,0.11-0.14,0.2-0.25,0.27c0.04,0.54-0.65,0.99-1.32,0.54c-0.07-0.05-0.14-0.09-0.21-0.13c-0.19,0.08-0.41,0.1-0.63,0.04
						c-0.2,0.21-0.53,0.3-0.89,0.09c-0.16-0.09-0.31-0.18-0.47-0.27c-0.03,0.01-0.06,0.02-0.09,0.03c0.75,0.58,1.46,1.18,2.13,1.82
						c0.76,0.72-0.42,1.82-1.18,1.09c-2.73-2.62-6.18-4.66-10.01-5.94c-4.09-1.36-8.56-1.4-12.65-2.76
						c-4.09-1.36-7.33-3.99-10.48-6.49c-1.76-1.4-3.52-2.79-5.27-4.19c-1.67-1.34-3.55-2.63-5-4.15c-1.12-1.17-1.7-2.81-0.69-4.13
						c1.06-1.4,3.14-1.13,4.76-0.61c3.35,1.09,5.6,3.56,8.47,5.26c3.53,2.09,7.95,1.87,11.97,2.73c4.15,0.89,8.17,2.39,11.85,4.26
						c4.28,2.18,8.18,4.84,11.81,7.74c3.76,3,7.3,6.2,10.59,9.57C1267.62,337.35,1266.56,338.09,1265.96,337.59"/>
					<path class="st39" d="M1450.07,386.86c-12.55-13.7-33.69-9.69-50.08-7.46c-18.82,2.56-37.25,6.32-55.61,10.93
						c-9.95-12.4-20.18-24.58-30.36-36.81c-11.03-13.24-21.85-26.65-33.03-39.78c-2.3-2.7-6.41-3.32-9.31-1.15
						c-7.75,5.77-15.49,11.55-23.31,17.25c-3.8,2.77-7.97,5.34-11.49,8.43c-4.13,3.62-5.15,8.68-2.16,13.37
						c2.36,3.7,5.7,6.97,8.6,10.28c3.07,3.51,6.16,6.99,9.29,10.45c6.13,6.79,12.37,13.5,18.71,20.11
						c12.82,13.36,26.02,26.34,39.74,38.82c3.48,3.16,6.83,6.55,11.05,8.79c4.34,2.31,9.19,2.75,14.03,2.65
						c8.96-0.19,18.02-1.47,26.86-2.75c9.97-1.44,19.87-3.35,29.64-5.72c10.2-2.47,20.4-5.24,30.04-9.33
						c4.75-2.02,2.78-10.27-2.62-8.88c-2.55,0.66-5.09,1.33-7.63,2c0.58-0.49,1.16-0.99,1.73-1.5c4.01-3.56,7.81-7.35,12.05-10.66
						c4.05-3.17,8.76-6.67,13.93-7.89c1.58-0.37,2.92-1.24,3.63-2.51c1.75,0.6,3.7,0.42,5.32-0.8
						C1451.43,392.95,1452.16,389.13,1450.07,386.86"/>
					<path class="st40" d="M1237.72,355.64c9.52-6.78,19.2-13.36,29.08-19.64c5.25-3.34,10.58-6.56,15.97-9.69
						c1.98-1.15,3.95-2.31,5.93-3.42c-2.56-3.06-5.12-6.12-7.71-9.15c-2.3-2.7-6.41-3.31-9.31-1.15
						c-7.75,5.77-15.49,11.56-23.31,17.25c-3.8,2.77-7.97,5.34-11.49,8.43c-4.13,3.62-8.88,5.37-2.16,13.37
						C1235.79,352.9,1236.63,354.35,1237.72,355.64"/>
					<path class="st40" d="M1286.28,364.28c5.35-3.66,10.76-7.21,16.24-10.69c2.53-1.6,5.05-3.22,7.6-4.77
						c-2.65-3.2-5.29-6.4-7.93-9.6c-2.31,1.42-4.65,2.78-6.99,4.19c-5.18,3.12-10.31,6.33-15.41,9.58
						c-9.43,6-18.66,12.28-27.76,18.74c0.19,0.21,0.39,0.43,0.58,0.65c2.96,3.28,5.94,6.53,8.95,9.77
						C1269.64,375.98,1277.88,370.03,1286.28,364.28"/>
					<path class="st40" d="M1450.07,386.86c-12.55-13.7-33.69-9.69-50.08-7.46c-18.82,2.56-37.25,6.32-55.61,10.93
						c-7.02-8.76-14.19-17.4-21.38-26.03c-3,2.02-6.08,3.95-9.09,5.96c-5.09,3.4-10.16,6.84-15.18,10.34
						c-7.72,5.39-15.32,10.95-22.76,16.69c11.36,11.67,23.02,23.04,35.1,34.01c3.48,3.16,6.83,6.55,11.05,8.79
						c4.34,2.31,9.19,2.75,14.03,2.65c8.96-0.19,18.02-1.47,26.86-2.75c9.97-1.44,19.87-3.35,29.64-5.72
						c10.2-2.47,20.4-5.24,30.04-9.33c4.75-2.02,2.78-10.27-2.62-8.88c-2.55,0.66-5.09,1.33-7.63,2c0.58-0.49,1.16-0.99,1.73-1.5
						c4.01-3.56,7.81-7.35,12.05-10.66c4.05-3.17,8.76-6.67,13.93-7.89c1.58-0.37,2.92-1.24,3.63-2.51c1.75,0.6,3.7,0.42,5.32-0.8
						C1451.43,392.95,1452.16,389.13,1450.07,386.86"/>
				</g>
				<g class="st18">
					<defs>
						<path id="SVGID_62_" d="M1435.21,571.5c0.01-0.01,0.01-0.03,0.02-0.04c0.67,0.28,1.45,0.25,2.08-0.26
							c0.66,0.66,1.65,0.93,2.54,0.46c0.54,0.3,1.17,0.39,1.77,0.19c0.7,1.2,2.57,1.76,3.64,0.78c0.45,0.09,0.93,0.04,1.38-0.17
							c0.18,0.19,0.38,0.35,0.59,0.48c-0.07,0.62-0.14,1.23-0.19,1.86c-0.22,2.82,3.59,3.95,4.81,1.31c0.17-0.38,0.33-0.75,0.5-1.13
							c0.6,0.09,1.21-0.04,1.7-0.45c0.73,1.23,2.67,1.54,3.79,0.67c0.72,0.2,1.51,0.09,2.14-0.37c0.68,0.51,1.55,0.72,2.31,0.49
							c0.21,0.58,0.52,1.15,0.96,1.7c1.09,1.37,3.07,1.1,3.96-0.16c0.04,0,0.07,0,0.11,0c0.1,0.53,0.2,1.05,0.32,1.57
							c0.19,0.86,0.72,1.42,1.35,1.71c-0.07,3.31-0.14,6.61-0.21,9.92c-12.78-4.75-27.19-2.49-40.35-5.98
							c0.76-0.93,0.88-2.46,0.14-3.5c0.18-0.21,0.33-0.45,0.45-0.71c1.98-0.32,3.79-1.15,4.83-3.09c0.78-1.47,0.87-3.01,0.51-4.55
							C1434.67,572.11,1434.97,571.87,1435.21,571.5 M1361.23,512.12c3.14,16.52,6.79,32.94,9.65,49.52
							c1.07,6.23,0.79,10.36,2.31,11.1c8.76,4.25,17.64,6.32,26.98,9.69c8.54,3.08,14.91,3.74,23.57,6.55
							c7.78,2.52,15.67,3.15,23.78,3.61c7.94,0.46,15.83,1.09,23,4.83c1.61,0.84,4.12-0.51,4.16-2.38c0.27-12.6,0.53-25.2,0.8-37.8
							c0.14-6.48,0.28-12.96,0.41-19.44c0.14-6.74,0.9-11.39-0.07-13.91c-17.29-0.14-34.68-1.55-51.8-3.19
							c-20.93-2-42.18-4.4-62.77-8.84C1361.25,511.96,1361.24,512.04,1361.23,512.12"/>
					</defs>
					<clipPath id="SVGID_63_">
						<use xlink:href="#SVGID_62_"  style="overflow:visible;"/>
					</clipPath>
				</g>
				<g class="st18">
					<defs>
						
							<rect id="SVGID_64_" x="867.51" y="116.69" transform="matrix(0.9911 -0.1333 0.1333 0.9911 -55.4495 189.9022)" width="1046.54" height="784.91"/>
					</defs>
					<clipPath id="SVGID_65_">
						<use xlink:href="#SVGID_64_"  style="overflow:visible;"/>
					</clipPath>
				</g>
				<g class="st18">
					<defs>
						
							<rect id="SVGID_66_" x="867.51" y="116.69" transform="matrix(0.9911 -0.1333 0.1333 0.9911 -55.4495 189.9022)" width="1046.54" height="784.91"/>
					</defs>
					<clipPath id="SVGID_67_">
						<use xlink:href="#SVGID_66_"  style="overflow:visible;"/>
					</clipPath>
					<path class="st41" d="M1252.97,522.31l-10.86-72.24c-0.3-1.97,1.06-3.82,3.04-4.11l112.62-16.93c1.97-0.3,3.82,1.06,4.11,3.04
						l10.86,72.24c0.3,1.97-1.06,3.82-3.04,4.11l-112.62,16.92C1255.11,525.65,1253.27,524.29,1252.97,522.31"/>
				</g>
				<g class="st18">
					<defs>
						<path id="SVGID_68_" d="M1356.6,431.63l-112.27,16.87c-1.4,0.21-2.36,1.51-2.15,2.91l10.78,71.74
							c0.21,1.4,1.51,2.36,2.91,2.15l112.27-16.87c1.4-0.21,2.36-1.51,2.15-2.91l-10.78-71.74c-0.21-1.39-1.49-2.34-2.87-2.16
							C1356.63,431.62,1356.61,431.63,1356.6,431.63"/>
					</defs>
					<clipPath id="SVGID_69_">
						<use xlink:href="#SVGID_68_"  style="overflow:visible;"/>
					</clipPath>
					
						<linearGradient id="SVGID_70_" gradientUnits="userSpaceOnUse" x1="655.5103" y1="935.7421" x2="656.1159" y2="935.7421" gradientTransform="matrix(186.5005 79.5952 80.5379 -185.3924 -196364.7969 121758.8828)">
						<stop  offset="0" style="stop-color:#6377E7"/>
						<stop  offset="1" style="stop-color:#8358C1"/>
					</linearGradient>
					<polygon class="st42" points="1266,390.88 1398.1,447.25 1346.48,566.08 1214.38,509.7 					"/>
				</g>
				<g class="st18">
					<defs>
						
							<rect id="SVGID_71_" x="867.51" y="116.69" transform="matrix(0.9911 -0.1333 0.1333 0.9911 -55.4495 189.9022)" width="1046.54" height="784.91"/>
					</defs>
					<clipPath id="SVGID_72_">
						<use xlink:href="#SVGID_71_"  style="overflow:visible;"/>
					</clipPath>
					<path class="st43" d="M1310.17,475.59c-1.36-1.52-3.13-2.66-5.14-3.11c-2.27-0.51-4.62-0.1-6.66,0.99
						c-4.03,2.15-6.99,6.8-6.35,11.45c0.08,0.56,0.23,1.09,0.46,1.62c0,0,0.01,0.01,0.01,0.01c0.06,0.15,0.11,0.3,0.17,0.45
						c0.05,0.13,0.1,0.27,0.16,0.4c0.04,0.11,0.08,0.26,0.17,0.36c1.8,3.74,5.96,5.76,10.01,5.76c2.08,0,4.18-0.51,5.95-1.62
						c1.76-1.11,3.11-2.78,3.79-4.76C1314.09,483.21,1312.89,478.64,1310.17,475.59 M1309.58,481.02c-0.28,1.27,0.13,2.54,0.65,3.68
						c0.15,0.32,0.31,0.65,0.31,1.02c0,0.27-0.09,0.53-0.19,0.77c-0.26,0.58-0.7,1.05-1.01,1.6c-0.44,0.76-0.68,1.97,0.06,2.62
						c-1.43,1.14-3.19,1.8-5,2.02c-0.14,0.02-0.29,0.03-0.43,0.04c-0.37-1.25-1.66-1.65-2.54-2.48c-0.24-0.22-0.49-0.52-0.44-0.87
						c0.04-0.28,0.25-0.54,0.38-0.78c0.26-0.52,0.27-1.11-0.05-1.61c-0.29-0.47-0.83-0.74-1.38-0.71c-0.34,0.02-0.59,0.17-0.89,0.3
						c-0.32,0.13-0.62,0.03-0.88-0.18c-0.53-0.44-0.7-1.18-1.06-1.74c-0.32-0.49-0.78-0.86-1.33-1.07
						c-1.11-0.42-2.36-0.03-3.09,0.86c-0.05-0.46-0.07-0.92-0.04-1.39c0.06-1.09,0.32-2.16,0.72-3.18c0.3-0.77,0.7-1.51,1.16-2.2
						c-0.17,0.62-0.19,1.26,0.13,1.86c0.5,0.96,1.52,1.07,2.46,0.74c0.84-0.29,2.26-1.13,2.8,0.04c0.22,0.47,0.32,0.96,0.77,1.28
						c0.39,0.28,0.87,0.34,1.3,0.52c0.55,0.23,0.76,0.72,0.97,1.25c0.19,0.47,0.4,0.92,0.8,1.26c0.72,0.62,1.96,0.87,2.64,0.06
						c0.76-0.9,0.27-2.11-0.08-3.07c-0.22-0.6-0.38-1.26-0.06-1.85c0.27-0.49,0.72-0.85,0.98-1.34c0.26-0.49,0.36-1.09-0.02-1.55
						c-0.21-0.25-0.52-0.41-0.79-0.58c-0.31-0.2-0.62-0.4-0.94-0.6c-0.64-0.41-1.29-0.8-1.91-1.23c-0.62-0.43-0.87-0.97-1.13-1.66
						c0.35-0.03,0.71-0.04,1.07-0.02c1.96,0.11,3.81,0.94,5.28,2.24c1.13,0.99,2.03,2.24,2.68,3.61c-0.03,0-0.05,0-0.08,0.01
						C1310.42,479.11,1309.79,480.03,1309.58,481.02"/>
				</g>
				<g class="st18">
					<defs>
						
							<rect id="SVGID_73_" x="867.51" y="116.69" transform="matrix(0.9911 -0.1333 0.1333 0.9911 -55.4495 189.9022)" width="1046.54" height="784.91"/>
					</defs>
					<clipPath id="SVGID_74_">
						<use xlink:href="#SVGID_73_"  style="overflow:visible;"/>
					</clipPath>
				</g>
				<g class="st18">
					<defs>
						<path id="SVGID_75_" d="M1423.25,594.35C1423.25,594.35,1423.25,594.35,1423.25,594.35
							C1423.25,594.35,1423.25,594.35,1423.25,594.35 M1421.35,594.27c-0.01,0.04,1.83,0.04,1.9,0.08c-0.41-0.55-0.88-1.12-1.4-1.69
							C1421.65,593.19,1421.47,593.73,1421.35,594.27 M1397.92,555.44c1.54,3.25,2.38,5.68,3.93,9.94c1.62,2.89,1.48,7.03,3.19,9.64
							c3.08,4.7,6.36,7.87,11.43,12.42c1.63,1.47,3.72,3.36,5.38,5.21c0.39-1.06,0.82-2.11,0.88-3.21c0.16-3.08-0.31-6.96-1.17-9.98
							c-5.61-10.53-12.94-19.15-20.66-29.07c-1.82-2.33-3.04-3.18-3.78-3.09C1395.6,547.51,1396.15,551.7,1397.92,555.44"/>
					</defs>
					<clipPath id="SVGID_76_">
						<use xlink:href="#SVGID_75_"  style="overflow:visible;"/>
					</clipPath>
				</g>
				<g class="st18">
					<defs>
						<path id="SVGID_77_" d="M1244.81,483.93c-2.58,3.39,1.61,8.15,3.15,11.04c2.32,4.35,4.43,8.67,8.43,12.12
							c3.59,3.09,7.99,5.4,12.74,7.12c5.49,1.98,11.37,3.21,17.21,4.4c6.7,1.36,13.6,3,20.5,3.64c2.44,0.23,3.68-2.94,1.26-3.58
							c-1.05-0.28-2.11-0.54-3.19-0.79c0.33-0.84,0.13-1.76-0.96-2.33c-0.73-0.38-1.45-0.76-2.18-1.14
							c-0.16-0.35-0.4-0.68-0.73-0.95c-4.04-3.22-8.14-6.35-12.51-9.16c1.73-0.9,2.27-3.51-0.1-4.45
							c-11.25-4.49-20.27-12.04-31.4-16.62c-2.34-0.96-5.45-1.96-8.14-1.6C1247.31,481.86,1245.88,482.53,1244.81,483.93"/>
					</defs>
					<clipPath id="SVGID_78_">
						<use xlink:href="#SVGID_77_"  style="overflow:visible;"/>
					</clipPath>
					
						<linearGradient id="SVGID_79_" gradientUnits="userSpaceOnUse" x1="658.1943" y1="940.1158" x2="658.7999" y2="940.1158" gradientTransform="matrix(-43.8158 35.0062 35.0062 43.8158 -2782.4971 -63739.8438)">
						<stop  offset="0" style="stop-color:#FFB435"/>
						<stop  offset="0.5915" style="stop-color:#FFAE28"/>
						<stop  offset="1" style="stop-color:#FFA81C"/>
					</linearGradient>
					<polygon class="st44" points="1330.42,506.68 1268.43,556.2 1222.1,498.2 1284.08,448.69 					"/>
				</g>
				<g class="st18">
					<defs>
						
							<rect id="SVGID_80_" x="867.51" y="116.69" transform="matrix(0.9911 -0.1333 0.1333 0.9911 -55.4495 189.9022)" width="1046.54" height="784.91"/>
					</defs>
					<clipPath id="SVGID_81_">
						<use xlink:href="#SVGID_80_"  style="overflow:visible;"/>
					</clipPath>
					<path class="st45" d="M1317.98,522.12c-3.07-1.41-6.19-2.74-9.27-4.11c0.32-0.23,0.43-0.67,0.06-0.94c0-0.03,0-0.07-0.01-0.1
						c0.79,0.16,1.41-0.74,0.67-1.17c-0.28-0.17-0.56-0.34-0.84-0.51c0.21-0.21,0.26-0.53,0.12-0.79c0.11-0.08,0.2-0.18,0.26-0.29
						c0.65-0.13,1.02-0.84,0.33-1.25c-0.07-0.04-0.14-0.09-0.21-0.13c0.05-0.18,0.03-0.37-0.1-0.53c0.2-0.23,0.23-0.53-0.1-0.76
						c-0.15-0.1-0.29-0.2-0.44-0.31c0-0.03,0.01-0.06,0.01-0.08c0.86,0.44,1.75,0.84,2.66,1.2c1.04,0.4,2.06-0.9,1.02-1.31
						c-3.75-1.45-6.99-3.67-9.4-6.45c-2.58-2.96-3.68-6.64-6.25-9.6c-2.57-2.96-6.46-4.83-10.17-6.66
						c-2.07-1.02-4.13-2.05-6.21-3.07c-1.98-0.97-3.96-2.13-6.1-2.86c-1.65-0.56-3.73-0.54-5.06,0.69c-1.4,1.3-0.6,2.94,0.4,4.12
						c2.08,2.43,5.54,3.53,8.23,5.38c3.31,2.28,4.09,5.99,6.06,9.04c2.03,3.16,4.76,6.01,7.84,8.48c3.59,2.87,7.67,5.27,11.96,7.38
						c4.45,2.18,9.07,4.13,13.85,5.81C1318.09,523.56,1318.72,522.46,1317.98,522.12"/>
				</g>
				<g class="st18">
					<defs>
						<path id="SVGID_82_" d="M1416.43,219.85c-19.79,4.39-31.41,18.29-37.17,31.48c-9.29,21.27-3.32,34.25,6.43,54.06
							c2.58,5.24,5.36,10.38,8.3,15.44c1.37,2.36,3.91,3.82,6.64,2.65c2.34-1.01,3.95-4.22,2.65-6.64
							c-0.71-1.32-1.41-2.64-2.09-3.97c1.99,0.7,4.3,0.72,6.74-0.08c1.98-0.65,3.74-1.8,5.46-2.97c4.51-3.05,3.41-9.86-0.78-12.48
							c-1.03-4.32-2.81-8.58-4.4-12.56c-0.96-2.42-2-4.81-2.94-7.24c-1.21-3.14-1.79-4.9-2.25-7.28c-0.23-1.24-0.4-2.48-0.48-3.73
							c-0.01-0.19-0.03-0.31-0.04-0.38c0.02-0.14,0.03-0.3,0.05-0.49c0.06-0.66,0.1-1.31,0.19-1.97c0.27-1.96,1.02-4.36,2.47-6.88
							c-0.03,0.09,0.56-0.81,0.58-0.83c0.4-0.55,0.78-1.11,1.2-1.66c0.52-0.68,1.08-1.33,1.64-1.97c0.18-0.2,0.28-0.32,0.33-0.38
							c0.05-0.05,0.1-0.09,0.16-0.16c2.03-2,4.87-4.09,6.98-5.33c4.25-2.51,11.05-5.06,15.49-6.24c1.58-0.42,3.2-0.76,4.82-1.01
							c0.72-0.11,1.44-0.2,2.16-0.27c0.2-0.02,1.65-0.03,1.63-0.05c1.18,0.06,2.36,0.24,3.52,0.48c0.08,0.03,0.16,0.06,0.26,0.09
							c0.86,0.32,1.71,0.62,2.54,1.01c0.38,0.17,0.75,0.36,1.12,0.55c0.12,0.08,0.65,0.4,0.77,0.49c1,0.73,2.01,1.43,2.96,2.22
							c0.6,0.5,1.19,1.01,1.76,1.55c0.05,0.04,0.08,0.07,0.12,0.11c0.05,0.06,0.12,0.14,0.23,0.25c1.09,1.18,2.12,2.4,3.1,3.68
							c3.41,4.48,5.28,8.18,7.61,13.68c5.15,12.14,9.03,25.1,17.85,35.21c-0.69,1.11-1.07,2.27-1.19,3.44
							c-1.45-0.93-2.9-1.87-4.33-2.83c-0.29-2.76-2.28-5.46-4.73-6.47c-4.17-1.72-7.85,0.53-9.87,4.09c-5.45,9.6-2.68,21.4,3,30.17
							c0.04,0.07,0.09,0.13,0.14,0.2c-2.32,0.08-4.62,1.63-5.49,3.75c-1.36,3.29,0.4,6.28,3.26,7.85
							c49.5,27.39,109.1,54.37,165.98,33.06c26.35-9.87,45.2-31.1,68.18-46.35c10.74-7.12,22.94-12.85,35.86-14.32
							c6.09-0.69,12.43-0.32,18.29,1.57c6.92,2.24,13.24,5.93,19.97,8.65c29.26,11.84,62,3.58,87.92-12.4
							c2.44-1.5,11.11-9.8,13.22-11.45c7.96-6.2-3.1-3.83-11.23-1.85c-3.31,0.81-6.14,1.55-6.98,1.62
							c-11.29,0.89-22.76-0.67-33.38-4.63c-10.69-4-20.06-10.39-29.47-16.7c-8.75-5.87-17.67-11.45-27.29-15.8
							c-9.17-4.15-18.77-7.27-28.57-9.51c-18.85-4.32-38.96-4.82-57.84-0.38c-9.54,2.24-18.78,5.61-27.34,10.4
							c-8.79,4.92-16.6,11.16-24.56,17.28c-7.48,5.76-15.22,11.26-24.25,14.32c-10.45,3.54-22.07,2.04-32.34-1.39
							c-10.46-3.5-19.95-9.17-28.06-16.65c-7.38-6.82-12.06-16.27-19.42-23.05c-10.95-10.11-21.39-17.39-40.81-26.3
							c-15.44-7.09-37.55-8.6-55.72-6.15C1421.99,218.75,1419.13,219.25,1416.43,219.85"/>
					</defs>
					<clipPath id="SVGID_83_">
						<use xlink:href="#SVGID_82_"  style="overflow:visible;"/>
					</clipPath>
					
						<linearGradient id="SVGID_84_" gradientUnits="userSpaceOnUse" x1="654.7224" y1="936.3078" x2="655.328" y2="936.3078" gradientTransform="matrix(535.744 66.4491 66.4491 -535.744 -411432.9688 458394.1562)">
						<stop  offset="0" style="stop-color:#233FDE"/>
						<stop  offset="0.598" style="stop-color:#6951C9"/>
						<stop  offset="1" style="stop-color:#945CBC"/>
					</linearGradient>
					<polygon class="st46" points="1379.52,99.61 1911.04,165.53 1872.38,477.2 1340.87,411.28 					"/>
				</g>
				<g class="st18">
					<defs>
						<path id="SVGID_85_" d="M1468.32,303.43c-0.71,0.65-0.77,0.73-1.77,2.03c-0.57,0.75-1.11,1.52-1.61,2.32
							c0.11-0.12-1,1.95-1.1,2.17c-0.42,0.94-0.8,1.89-1.14,2.86c-0.64,1.82-1.15,4.13-1.5,6.6c0.98,2.53,2.23,4.96,3.68,7.18
							c0.04,0.07,0.09,0.13,0.14,0.2c-1.6,0.05-3.17,0.82-4.29,1.97c0.04,0.8,0.1,1.66,0.18,2.69c0.14,2,0.29,3.99,0.49,5.98
							c0.42,0.36,0.89,0.68,1.39,0.96c49.5,27.39,109.1,54.37,165.98,33.06c26.35-9.87,45.2-31.1,68.18-46.35
							c10.74-7.12,22.94-12.85,35.86-14.32c6.09-0.69,12.43-0.32,18.29,1.57c6.92,2.24,13.24,5.93,19.97,8.65
							c29.26,11.84,62,3.58,87.92-12.4c2.44-1.5,11.11-9.8,13.22-11.45c3.16-2.46,3.32-3.57,1.86-3.89
							c-26.19,13.09-57.17,15.69-85.79,10.63c-15.72-2.78-31.01-7.55-46.63-10.84c-14.7-3.1-29.89-5.05-44.68-1.46
							c-13.96,3.38-26.37,11.27-38.43,18.76c-13.41,8.33-28.87,23.81-44.04,28.16c-29.45,8.44-61.14,1.61-91.12-5.74
							c-14.99-3.68-28.82-9.99-40.45-20.28c-4.08-3.61-7.78-7.55-11.23-11.7C1470.52,301.6,1469.38,302.46,1468.32,303.43"/>
					</defs>
					<clipPath id="SVGID_86_">
						<use xlink:href="#SVGID_85_"  style="overflow:visible;"/>
					</clipPath>
					
						<linearGradient id="SVGID_87_" gradientUnits="userSpaceOnUse" x1="654.7961" y1="936.4544" x2="655.4017" y2="936.4544" gradientTransform="matrix(655.2485 28.7772 28.7772 -655.2485 -454531.2188 595085.3125)">
						<stop  offset="0" style="stop-color:#001CBD"/>
						<stop  offset="0.1751" style="stop-color:#0F23BE"/>
						<stop  offset="0.5141" style="stop-color:#3836C0"/>
						<stop  offset="0.9794" style="stop-color:#7855C3"/>
						<stop  offset="1" style="stop-color:#7B56C3"/>
					</linearGradient>
					<polygon class="st47" points="1459.96,229.35 1887.74,248.14 1880,424.35 1452.22,405.57 					"/>
				</g>
				<g class="st18">
					<defs>
						
							<rect id="SVGID_88_" x="867.51" y="116.69" transform="matrix(0.9911 -0.1333 0.1333 0.9911 -55.4495 189.9022)" width="1046.54" height="784.91"/>
					</defs>
					<clipPath id="SVGID_89_">
						<use xlink:href="#SVGID_88_"  style="overflow:visible;"/>
					</clipPath>
					<path class="st48" d="M1470.74,375.4c-0.84-27.8-0.16-55.93,1.1-83.86c0.77-17.13-5.11-4.93-5.3-0.66
						c-0.31,6.91-0.57,13.8-0.76,20.69c-0.78,0.18-1.49,0.81-1.79,2.01c-1.19,4.67-2.42,9.31-3.65,13.96
						c-0.72,0.22-1.41,0.82-1.86,1.91c-1.01,2.45-2.04,4.89-3.08,7.32c-0.52,0.17-1.01,0.58-1.37,1.32
						c-0.92,1.89-1.83,3.79-2.74,5.68c-0.86-0.23-1.84,0.09-2.6,1.25c-1.25,1.9-3.04,2.27-4.21,4.24c-0.18,0.13-0.35,0.29-0.52,0.5
						c-0.16,0.2-0.32,0.4-0.48,0.6c0,0,0,0,0,0l0,0.01c-0.12,0.15-0.25,0.31-0.37,0.46c-0.42,0.3-0.8,0.75-1.09,1.36
						c-0.1,0.2-0.2,0.4-0.29,0.6c-0.58,0.9-1.34-1.27-1.82-0.29c-1.57-1.02-3.03,4.33-3.09,7.14c-0.33,13.99-0.66,27.98-0.79,41.96
						c-0.02,2.59,2.52,2.94,3.92,1.86c0.08-0.07,0.17-0.13,0.25-0.2c0.13-0.07,0.27-0.15,0.39-0.25
						c5.77-4.36,11.51-8.77,17.28-13.13c4.2-3.17,9.66,0.65,12.42-4.67C1470.81,384.2,1471.04,376.23,1470.74,375.4"/>
				</g>
				<g class="st18">
					<defs>
						<path id="SVGID_90_" d="M1461.04,313.61c-0.2,5.32-0.35,10.62-0.44,15.93c-0.66,0.13-1.25,0.61-1.5,1.53
							c-0.96,3.58-1.96,7.15-2.96,10.71c-0.61,0.16-1.19,0.61-1.56,1.45c-0.83,1.88-4.45,0.99-5.31,2.85
							c-0.44,0.13-0.85,0.44-1.15,1c-0.76,1.45-2.09,1.33-2.85,2.79c-0.73-0.19-1.56,0.05-2.19,0.93c-1.05,1.45-0.95,0.21-1.92,1.71
							c-0.15,0.1-0.3,0.22-0.44,0.38c-0.14,0.15-0.27,0.31-0.4,0.46c0,0,0,0,0,0l0,0c-0.1,0.12-0.21,0.23-0.31,0.35
							c-0.16,0.11-0.32-0.09-0.47-0.29c-0.18-0.24-0.34-0.47-0.47-0.22c-0.04,0.08-0.16-0.42-0.27-0.91
							c-0.12-0.49-0.23-0.99-0.27-0.91c-0.48,0.68-0.27,4.62-0.67,5.37c-1.34-0.8-1.35,7.36-1.37,9.53
							c-0.09,7.06-0.01,6.37-0.06,13.44c1.94-2.88,4.1-0.64,5.9-3.62c3.54-5.87,6.44-9.29,9.75-15.33
							c5.36-9.8,11.27-19.94,13.02-31.21c1.08-5.9,1.13-12.9,1.02-18.02c-0.1-4.57-0.74-6.09-1.53-5.98
							C1463.12,305.73,1461.12,311.47,1461.04,313.61"/>
					</defs>
					<clipPath id="SVGID_91_">
						<use xlink:href="#SVGID_90_"  style="overflow:visible;"/>
					</clipPath>
					
						<linearGradient id="SVGID_92_" gradientUnits="userSpaceOnUse" x1="650.6021" y1="938.0747" x2="651.2078" y2="938.0747" gradientTransform="matrix(9.9041 -75.2799 -83.2887 -10.843 73133.0078 59533.5781)">
						<stop  offset="0" style="stop-color:#FFB435"/>
						<stop  offset="0.1068" style="stop-color:#FAB138"/>
						<stop  offset="0.2316" style="stop-color:#ECA941"/>
						<stop  offset="0.3654" style="stop-color:#D49C51"/>
						<stop  offset="0.5056" style="stop-color:#B48966"/>
						<stop  offset="0.6508" style="stop-color:#897082"/>
						<stop  offset="0.8002" style="stop-color:#5653A4"/>
						<stop  offset="0.9502" style="stop-color:#1A30CB"/>
						<stop  offset="1" style="stop-color:#0424D9"/>
					</linearGradient>
					<polygon class="st49" points="1418.34,377.35 1428.45,300.51 1483.89,307.72 1473.78,384.56 					"/>
				</g>
				<g class="st18">
					<defs>
						
							<rect id="SVGID_93_" x="867.51" y="116.69" transform="matrix(0.9911 -0.1333 0.1333 0.9911 -55.4495 189.9022)" width="1046.54" height="784.91"/>
					</defs>
					<clipPath id="SVGID_94_">
						<use xlink:href="#SVGID_93_"  style="overflow:visible;"/>
					</clipPath>
				</g>
				<g class="st18">
					<defs>
						
							<rect id="SVGID_95_" x="867.51" y="116.69" transform="matrix(0.9911 -0.1333 0.1333 0.9911 -55.4495 189.9022)" width="1046.54" height="784.91"/>
					</defs>
					<clipPath id="SVGID_96_">
						<use xlink:href="#SVGID_95_"  style="overflow:visible;"/>
					</clipPath>
					<path class="st50" d="M1492.6,288.64c-0.65-5.89-5.03-10.2-10.95-10.68c-2.87-0.23-5.79,0.48-8.05,2.05
						c0.86-4.54,1.23-9.12,0.92-13.82c-0.23-3.4-0.8-6.76-1.67-10.06c-0.83-3.11-2.46-6.42-4.67-8.86
						c-1.65-1.82-6.28-4.18-7.39-4.59c-24.33-8.95-46.56-4.96-54.69,2.89c-6.78,6.55-7.88,8.18-9.88,11.21
						c-0.14,0.22-1.71,5.08-1.69,5.37c0.69,16.33-5.37,27.62-2.12,51.83c1.33,9.86,1.37,16.33,8.35,26.84
						c4.65,7,8.7,11.91,18.42,17.61c10.06,5.9,15.56,0.99,31.2-8.85c7.58-4.77,14.57-24.57,15.56-39.55
						c6.33-0.09,12.52-0.86,18.02-4.44C1489.48,302.02,1493.34,295.31,1492.6,288.64"/>
				</g>
				<g class="st18">
					<defs>
						
							<rect id="SVGID_97_" x="867.51" y="116.69" transform="matrix(0.9911 -0.1333 0.1333 0.9911 -55.4495 189.9022)" width="1046.54" height="784.91"/>
					</defs>
					<clipPath id="SVGID_98_">
						<use xlink:href="#SVGID_97_"  style="overflow:visible;"/>
					</clipPath>
					<path class="st51" d="M1479.14,269.22c-1.01-1.95-2.16-3.81-3.48-5.54c3.32,0.37,6.56-3.18,3.93-6.62
						c-0.48-0.63-1-1.22-1.54-1.78c2.67-1.08,4.05-5.15,1.15-7.2c-3.23-2.29-6.47-4.58-9.74-6.82c-1.55-1.06-3.1-2.12-4.65-3.18
						c-0.42-0.29-0.86-0.57-1.28-0.87c1.5-1.57,1.85-4.26-0.34-5.82c-5.46-3.9-11.3,2.18-9.79,7.67c-2.11-0.43-4.21-0.76-6.32-0.99
						c-4.81-2.31-9.71-4.82-14.85-6.14c-1.76-0.45-3.98-0.76-6.17-0.67c-0.09-0.6-0.64-1.11-1.3-0.75
						c-0.47,0.26-0.94,0.52-1.41,0.78c-0.18-0.48-0.69-0.85-1.24-0.56c-1.42,0.75-2.83,1.51-4.23,2.3c-0.06-0.21-0.13-0.41-0.22-0.6
						c0.79-0.58,1.58-1.17,2.38-1.74c0.96-0.69-0.14-2.03-1.11-1.43c-0.87,0.54-1.74,1.1-2.61,1.66c-0.21-0.13-0.42-0.24-0.65-0.33
						c0.59-0.42,1.17-0.86,1.76-1.27c0.97-0.68-0.14-2.03-1.11-1.43c-8.91,5.53-17.06,12.18-24.28,19.77
						c-0.27,0.28-0.28,0.59-0.16,0.85c-0.09,0.75,0.71,1.48,1.48,0.89c2.79-2.17,5.61-4.29,8.46-6.38
						c-0.14,0.12-0.28,0.24-0.41,0.36c-0.91,0.82,0.16,2.21,1.17,1.5c1.23-0.85,2.46-1.69,3.71-2.51c0.24,0.21,0.57,0.28,0.95,0.07
						c1.13-0.62,2.26-1.25,3.39-1.88c0.08,0.57,0.61,1.07,1.27,0.74c0.52-0.26,1.03-0.52,1.54-0.79c1.52,2.09,3.68,3.82,5.97,5.26
						c6.05,3.82,12.21,7.42,18.88,10.08c1.79,0.71,3.6,1.26,5.43,1.73c5.06,2.8,10.26,5.21,15.53,7.59
						c5.07,2.29,9.93,4.75,13.96,8.66C1476.01,276.56,1480.86,272.55,1479.14,269.22 M1408.18,236.22c1.04-0.83,2.1-1.62,3.15-2.43
						c0,0.12-0.02,0.24-0.02,0.35C1410.27,234.83,1409.22,235.52,1408.18,236.22"/>
					<path class="st51" d="M1527.41,292.1c-0.58-2.26-1.29-4.44-2.26-6.56c-1.06-2.3-1.88-4.78-4.4-5.81
						c-0.56-0.23-1.16-0.28-1.75-0.2c-2.82-0.59-6.06,2.96-3.87,6.1c1.89,2.72,3.67,5.54,5.26,8.45c0.87,1.61,2.51,2.62,4.37,2.06
						C1526.36,295.67,1527.87,293.9,1527.41,292.1"/>
				</g>
				<g class="st18">
					<defs>
						
							<rect id="SVGID_99_" x="867.51" y="116.69" transform="matrix(0.9911 -0.1333 0.1333 0.9911 -55.4495 189.9022)" width="1046.54" height="784.91"/>
					</defs>
					<clipPath id="SVGID_100_">
						<use xlink:href="#SVGID_99_"  style="overflow:visible;"/>
					</clipPath>
				</g>
				<g class="st18">
					<defs>
						
							<rect id="SVGID_101_" x="867.51" y="116.69" transform="matrix(0.9911 -0.1333 0.1333 0.9911 -55.4495 189.9022)" width="1046.54" height="784.91"/>
					</defs>
					<clipPath id="SVGID_102_">
						<use xlink:href="#SVGID_101_"  style="overflow:visible;"/>
					</clipPath>
					<path class="st52" d="M1406.4,297.71c-0.96,0.85-1.76,1.7-2.96,2.22c-1.06,0.45-2.26,0.62-3.4,0.46
						c-1.44-0.19-2.8-0.88-4.07-1.55c-1.46-0.77-2.9-1.57-4.35-2.36c-1-0.55-2.03,0.91-1.02,1.48c1.65,0.92,3.28,1.88,4.94,2.78
						c1.5,0.82,3.1,1.52,4.83,1.63c2.7,0.18,6.17-1.17,7.33-3.78C1408.03,297.84,1406.98,297.2,1406.4,297.71"/>
				</g>
				<g class="st18">
					<defs>
						<path id="SVGID_103_" d="M1411.97,240.37c-3.07,2.13-6.01,4.46-8.92,6.78c-4.68,3.72-9.03,7.66-12.78,12.29
							c-0.96,1.34-1.86,2.72-2.66,4.16c-2.89,5.21-4.28,11.03-4.58,16.96c-0.33,6.36,0.39,12.71,0.92,19.04
							c0.26,3.11,0.49,6.23,0.52,9.36c0.03,2.99-0.13,5.97-0.35,8.95c-0.43,5.9-1.08,11.8-1.04,17.73
							c0.04,5.85,0.79,11.67,3.01,17.12c1.99,4.89,5.02,9.3,8.52,13.22c3.58,4.01,7.61,7.6,11.74,11.02
							c4.43,3.68,8.88,7.63,14.07,10.21c1.32,0.65,2.68,1.18,4.1,1.57c0.96,0.26,2.08-0.77,1.29-1.7
							c-6.75-7.94-12.98-16.34-18.73-25.02c-5.37-8.13-11.28-16.83-11.58-26.9c-0.16-5.26,0.95-10.47,1.51-15.67
							c0.57-5.26,0.29-10.47-0.5-15.69c-1.44-9.58-4.24-19.79-0.96-29.31c0.77-2.25,1.88-4.33,3.36-6.19
							c1.52-1.9,3.32-3.54,5.05-5.24c3.55-3.49,6.59-7.37,8.97-11.75c0.13-0.23,0.24-0.47,0.37-0.71c1.19,1.73,2.56,3.34,4.11,4.78
							c6.58,6.12,15.56,8.49,23.87,11.25c4.15,1.38,8.3,2.9,12.09,5.11c3.59,2.09,6.89,4.71,9.73,7.73
							c2.91,3.1,5.38,6.62,7.27,10.43c2.03,4.1,3.28,8.48,4.2,12.94c1.84,8.93,2.87,18.12,7.13,26.32
							c3.57,6.87,8.8,12.75,14.96,17.41c12.64,9.56,28.83,14.17,44.59,13.57c15.59-0.59,31.69-6.42,42.09-18.43
							c1.24-1.43,2.38-2.95,3.43-4.52c0.68-1.02-0.5-2.26-1.54-1.52c-12.86,9.18-28.56,15.07-44.51,14.38
							c-14.36-0.62-28.73-7.02-38.05-18.1c-4.9-5.82-7.85-12.69-9.83-19.98c-2.07-7.64-3.38-15.5-6.17-22.93
							c-2.77-7.37-7.24-13.95-13.29-19.02c-6.49-5.43-14.44-8.53-22.38-11.21c-2.92-0.98-5.88-1.93-8.8-2.96
							c-4.54-1.11-8.99-2.86-12.84-4.76c-5.9-2.92-11.22-6.93-16.07-11.36C1412.86,239.95,1412.42,240.16,1411.97,240.37"/>
					</defs>
					<clipPath id="SVGID_104_">
						<use xlink:href="#SVGID_103_"  style="overflow:visible;"/>
					</clipPath>
					
						<linearGradient id="SVGID_105_" gradientUnits="userSpaceOnUse" x1="656.2822" y1="936.2158" x2="656.8879" y2="936.2158" gradientTransform="matrix(64.4613 284.3759 284.3759 -64.4613 -307077.0625 -126045.2734)">
						<stop  offset="0" style="stop-color:#001AB0"/>
						<stop  offset="0.3559" style="stop-color:#021CB1"/>
						<stop  offset="0.541" style="stop-color:#0A24B6"/>
						<stop  offset="0.6867" style="stop-color:#1830BE"/>
						<stop  offset="0.8118" style="stop-color:#2B43CA"/>
						<stop  offset="0.9227" style="stop-color:#435AD9"/>
						<stop  offset="1" style="stop-color:#596FE6"/>
					</linearGradient>
					<polygon class="st53" points="1567.63,200.78 1604.58,363.77 1394.13,411.47 1357.18,248.48 					"/>
				</g>
				<g class="st18">
					<defs>
						
							<rect id="SVGID_106_" x="867.51" y="116.69" transform="matrix(0.9911 -0.1333 0.1333 0.9911 -55.4495 189.9022)" width="1046.54" height="784.91"/>
					</defs>
					<clipPath id="SVGID_107_">
						<use xlink:href="#SVGID_106_"  style="overflow:visible;"/>
					</clipPath>
				</g>
				<g class="st18">
					<defs>
						<path id="SVGID_108_" d="M1397.9,314.55c-2.83-0.28-5.36-1.57-7.35-3.58c-3.86-3.88-5.61-10.19-3.94-15.45
							c0.83-2.62,2.43-4.94,4.78-6.43c2.26-1.43,5.02-2.11,7.68-2.06c6.03,0.11,12.22,3.56,14.06,9.55
							c0.02,0.07,0.05,0.13,0.08,0.19c1.4,6.02-1.72,12.1-6.71,15.48c-1.73,1.17-3.75,1.97-5.84,2.25
							C1399.73,314.62,1398.81,314.64,1397.9,314.55 M1430.83,310.72c-5.85-3.45-9.34-10.68-8.65-17.39
							c0.34-3.31,1.78-6.44,4.26-8.7c2.32-2.11,5.33-3.36,8.41-3.8c6.12-0.89,13.04,1.29,16.79,6.4c0.45,0.62,0.84,1.25,1.17,1.94
							c0.04,0.09,0.09,0.17,0.15,0.24c1.11,3.12,1.4,6.27,0.69,9.52c-0.7,3.22-2.45,6.24-4.72,8.61c-2.25,2.35-5.14,4.16-8.35,4.85
							c-0.32,0.07-0.64,0.12-0.96,0.17C1436.59,312.95,1433.46,312.27,1430.83,310.72 M1420.89,290.31
							c-0.48,1.67-0.67,3.41-0.64,5.15c-0.07-0.01-0.13-0.02-0.2-0.02c-0.94,0.06-1.87,0.12-2.81,0.17
							c-0.46,0.02-0.92,0.06-1.38,0.09c-0.4,0.02-0.8,0.02-1.19,0.09c-1.9-5.84-7.67-9.57-13.59-10.31
							c-2.96-0.37-6.13-0.05-8.86,1.21c-2.84,1.32-5.05,3.53-6.49,6.29c-2.9,5.59-1.59,13.03,2.17,17.89
							c1.93,2.49,4.6,4.36,7.67,5.17c3.26,0.85,6.75,0.33,9.75-1.16c5.83-2.9,10.8-9.45,9.97-16.25c-0.04-0.3-0.1-0.59-0.16-0.89
							c0.32-0.02,0.64-0.07,0.94-0.09c0.48-0.04,0.95-0.07,1.43-0.11c0.93-0.09,1.87-0.16,2.8-0.23c0.02,0,0.03-0.01,0.05-0.01
							c0.6,5.2,3.28,10.24,7.27,13.52c2.95,2.43,6.65,3.86,10.49,3.78c3.69-0.08,7.16-1.5,10.08-3.73
							c5.72-4.36,9.62-12.44,7.73-19.65c-0.1-0.4-0.23-0.78-0.37-1.16c7.05-2.14,13.11-4.92,20.17-7.02
							c1.29-0.38,3.06-2.41,1.79-2.05c-7.1,2-15.71,5.09-22.77,7.21c-1.63-3.23-4.11-5.72-7.31-7.41
							c-3.12-1.65-6.83-2.29-10.33-2.18c-0.65,0.02-1.3,0.08-1.94,0.16C1428.67,279.63,1422.77,283.76,1420.89,290.31"/>
					</defs>
					<clipPath id="SVGID_109_">
						<use xlink:href="#SVGID_108_"  style="overflow:visible;"/>
					</clipPath>
					
						<linearGradient id="SVGID_110_" gradientUnits="userSpaceOnUse" x1="663.8808" y1="934.1728" x2="664.4865" y2="934.1728" gradientTransform="matrix(-0.0777 43.133 43.133 0.0777 -38810.2539 -28420.3184)">
						<stop  offset="0" style="stop-color:#41D9B9"/>
						<stop  offset="0.2928" style="stop-color:#74C5CA"/>
						<stop  offset="0.7774" style="stop-color:#C4A5E5"/>
						<stop  offset="1" style="stop-color:#E399F0"/>
					</linearGradient>
					<polygon class="st54" points="1482.68,273.04 1482.59,322.18 1381.1,322 1381.19,272.85 					"/>
				</g>
				<g class="st18">
					<defs>
						<path id="SVGID_111_" d="M1436.36,334.99c-0.73,1.2-0.92,1.29-2,2.21c-1.2,1.02-2.64,1.36-4.16,1.57
							c-0.57,0.08-1.16,0.14-1.75,0.2c-2.48,0.26-5.01,0.52-6.94,2.28c-1.04,0.94-1.86,2.19-1.99,3.62
							c-0.16,1.78,1.11,2.56,2.63,2.94c2.78,0.68,5.93,0.12,8.35-1.38c1.4-0.86,2.57-2.1,3.5-3.44c0.76-1.1,0.58-0.72,1.33-1.97
							c0.06-0.09,0.97-1.6,1.01-1.7c0.53-1.2,1.18-2.06,1.39-3.61c0.17-1.25,0-1.82-0.36-1.77
							C1437.11,333.98,1436.76,334.34,1436.36,334.99"/>
					</defs>
					<clipPath id="SVGID_112_">
						<use xlink:href="#SVGID_111_"  style="overflow:visible;"/>
					</clipPath>
					
						<linearGradient id="SVGID_113_" gradientUnits="userSpaceOnUse" x1="642.7972" y1="930.352" x2="643.4028" y2="930.352" gradientTransform="matrix(19.317 -17.687 -17.687 -19.317 5461.2358 29687.6172)">
						<stop  offset="0" style="stop-color:#435BE3"/>
						<stop  offset="1" style="stop-color:#0424D9"/>
					</linearGradient>
					<polygon class="st55" points="1412.62,341.47 1430.11,325.46 1444.9,341.61 1427.41,357.63 					"/>
				</g>
				<g class="st18">
					<defs>
						<path id="SVGID_114_" d="M1417.43,314.25c0.05,1.55-0.39,3.13-1.17,4.47c-0.43,0.74-0.99,1.39-1.6,1.98
							c-0.68,0.66-1.37,1.35-1.7,2.26c-0.72,1.95,0.35,4.1,2.54,4.21c0.99,0.05,2-0.15,2.96-0.37c1.12-0.26,2.23-0.6,3.27-1.08
							c1.03-0.48,0.66-2.24-0.55-2.01c-0.95,0.18-1.88,0.39-2.83,0.56c-0.48,0.08-0.95,0.17-1.43,0.24
							c-0.39,0.06-0.84,0.18-1.24,0.15c-0.08-0.01-0.3-0.07-0.32-0.08c0,0-0.04-0.1-0.05-0.14c-0.01-0.08-0.02-0.18,0.02-0.35
							c0.11-0.48,0.64-0.99,1.03-1.37c1.19-1.15,2.19-2.41,2.83-3.96c0.64-1.55,0.89-3.19,0.82-4.86c-0.03-0.7-0.81-1.2-1.46-1.11
							C1417.79,312.89,1417.41,313.54,1417.43,314.25"/>
					</defs>
					<clipPath id="SVGID_115_">
						<use xlink:href="#SVGID_114_"  style="overflow:visible;"/>
					</clipPath>
					
						<linearGradient id="SVGID_116_" gradientUnits="userSpaceOnUse" x1="640.3304" y1="928.534" x2="640.9361" y2="928.534" gradientTransform="matrix(16.2937 -14.9189 -14.9189 -16.2937 4831.2324 25006.8594)">
						<stop  offset="0" style="stop-color:#435BE3"/>
						<stop  offset="1" style="stop-color:#0424D9"/>
					</linearGradient>
					<polygon class="st56" points="1404.84,319.24 1417.04,308.07 1428.83,320.94 1416.63,332.11 					"/>
				</g>
				<g class="st18">
					<defs>
						
							<rect id="SVGID_117_" x="867.51" y="116.69" transform="matrix(0.9911 -0.1333 0.1333 0.9911 -55.4495 189.9022)" width="1046.54" height="784.91"/>
					</defs>
					<clipPath id="SVGID_118_">
						<use xlink:href="#SVGID_117_"  style="overflow:visible;"/>
					</clipPath>
					<path class="st57" d="M1451.75,289.91c-3.92,1.96-7.54,4.54-11.53,6.39c-3.01,1.4-7.31,2.25-9.78-0.65
						c-0.88-1.03-2.55,0.26-1.66,1.3c2.8,3.26,7.42,3.2,11.13,1.71c2.14-0.86,4.11-2.1,6.09-3.25c2.22-1.29,4.53-2.5,6.69-3.91
						C1453.57,290.93,1452.69,289.44,1451.75,289.91"/>
					<path class="st57" d="M1404.77,279.14c0.03-0.78-0.46-1.44-1.21-1.32c-2.88,0.46-5.74,1.23-8.52,2.25
						c-1.7,0.37-3.4,0.76-5.1,1.14c-0.1,0.02-0.19,0.05-0.27,0.09c-1.35-0.05-1.6,2.37-0.17,2.62c3.06,0.53,6.26,0.53,9.34-0.13
						C1401.11,283.31,1404.63,282.4,1404.77,279.14"/>
					<path class="st57" d="M1444.29,277.62c-4.31-0.2-8.62-0.33-12.93-0.38c-2.1-0.03-4.2-0.06-6.31-0.07
						c-1.38-0.01-3.02-0.24-4.14,0.54c-0.91-0.16-1.99,0.68-1.5,1.78c1.99,4.43,7.5,3.43,11.33,2.87c4.57-0.68,9.07-1.56,13.56-2.65
						C1445.38,279.44,1445.57,277.68,1444.29,277.62"/>
				</g>
				<g class="st18">
					<defs>
						
							<rect id="SVGID_119_" x="867.51" y="116.69" transform="matrix(0.9911 -0.1333 0.1333 0.9911 -55.4495 189.9022)" width="1046.54" height="784.91"/>
					</defs>
					<clipPath id="SVGID_120_">
						<use xlink:href="#SVGID_119_"  style="overflow:visible;"/>
					</clipPath>
					<path class="st58" d="M1461.59,435.32c3.11-3.51,5.38-7.62,5.93-12.54c0.45-4.07-0.49-7.68-2.37-10.76
						c-0.79-3.78-2.62-7.18-6.16-9.4c-4.08-2.57-8.8-2.35-13.43-2.28c-4.38,0.06-8.75,0.24-13.01,1.29
						c-4.02,0.99-7.98,2.83-11.31,5.43c-7.18,4-13.73,9.89-19.56,15.37c-6.75,6.34-10.24,11.78-13.8,20.28
						c-1.91,4.57-3.15,14-4.69,22.1c-0.99,5.21-1.39,11.16-2.07,16.41c-1.42,10.99-2.92,15.97-6.22,26.55
						c-1.36,4.36,3.94,7.4,6.67,5.06c0.11,0.14,0.23,0.26,0.36,0.38c0.02,0.21,0.03,0.43,0.05,0.64c0.42,4.5,5.39,5.37,8.4,3.22
						c0.87,0.44,1.84,0.67,2.79,0.62c0.05,0.44,0.1,0.89,0.15,1.33c0.53,4.16,5.73,5.41,8.44,2.93c1.76,1,4.29,0.8,5.98-0.51
						c0.16,0.06,0.32,0.12,0.49,0.16c0.9,3.78,6.38,5.48,8.6,2.12c2.23,1.03,5.16,0.5,6.31-2.37c2.9-7.21,5.89-14.39,8.99-21.51
						c0.41-0.93,0.42-1.85,0.18-2.69c10.69-16.72,18.2-35.14,25.55-53.55c0.27-0.68,0.37-1.35,0.33-1.99
						C1459.53,439.62,1460.64,437.52,1461.59,435.32"/>
					<path class="st58" d="M1497.13,431.69c-1.51,15.6,8.2,28.46,4.7,43.61c-2.01-2.22-6.33-2.34-8.18,0.25
						c-0.33,0.47-0.64,0.95-0.92,1.45c-1.93,0.69-3.49,2.44-3.27,5.05c0.15,1.71,0.12,3.41-0.05,5.08c-0.14,0.6-0.29,1.19-0.45,1.77
						c-1.21,4.58-2.33,9.17-3.68,13.71c-0.32,1.07-0.29,2.07-0.04,2.96c-5.27,15.25-12.65,29.68-20.9,43.66
						c-2.85-0.41-5.42,1.07-6.7,3.75c-4.27,8.9-8.86,17.62-13.95,26.06c-0.28,0.24-0.55,0.51-0.82,0.82
						c-0.69,0.81-1.38,1.63-2.07,2.44c-0.89-3.19-4.36-5.19-7.38-4.71c-1.3-1.29-3.27-1.83-5.63-0.8c-2.66,1.16-4.89,2.81-6.66,4.79
						c-1.14-0.46-2.46-0.49-3.59,0.02c-0.8-0.73-1.88-1.12-2.98-1.14c-0.74-2.47-3.65-3.32-5.91-2.36c-0.49-3.64-4.9-4.44-7.24-2.1
						c-0.77-0.49-1.69-0.74-2.61-0.74c-1.65-1.57-4.45-1.98-5.98-0.36c-0.82-0.75-1.94-1.11-3.03-1.08c-1.15-1.95-4-2.26-5.89-1.07
						c-1.28-0.94-3.07-1.08-4.45-0.31c-1.49-1.95-4.88-2.12-6.48-0.05c-0.8-0.7-1.83-1.11-2.84-1.17c-0.72-0.83-1.81-1.19-2.92-1.14
						c-0.01-0.07-0.02-0.14-0.03-0.2c-0.43-3.1-3.74-4.1-6.03-3c-1.02-1.93-4.27-12.67-6.09-11.43c-0.2-0.32-0.45-0.6-0.73-0.85
						c-0.83,0.91-2.1-1.47-3.7-1.66c-0.33-0.04-0.64,2.85-0.97,2.81c1.43,2.45-11.11,5.21,0.36,13.96
						c7.49,5.72,23.65,12.93,31.88,16.4c13.49,5.69,30.66,8.21,45.31,10.4c33.08,4.95,26.13,1.69,30.09-6.49
						c11.41-23.53,25.26-42.12,34.27-64.95c11.99-30.4,21.95-65.73,20.08-93.6C1511.35,427,1497.42,428.68,1497.13,431.69"/>
				</g>
				<g class="st18">
					<defs>
						
							<rect id="SVGID_121_" x="867.51" y="116.69" transform="matrix(0.9911 -0.1333 0.1333 0.9911 -55.4495 189.9022)" width="1046.54" height="784.91"/>
					</defs>
					<clipPath id="SVGID_122_">
						<use xlink:href="#SVGID_121_"  style="overflow:visible;"/>
					</clipPath>
					<path class="st59" d="M1509.06,407.01c-1.06-7.9-12.32-18.87-18.18-21.88c-7.43-3.81-18.8-6.57-26.78-3.52
						c-7.53,2.88-14.51,8.01-21.4,12.15c-8.06,4.85-16.1,9.71-24.2,14.5c-1.7,1.01-10.92,7.13-11.97,9.9
						c2.13-1.46,4.35-2.76,6.55-3.91c10.68-5.59,22.71-9.75,34.7-11.32c5.05-0.66,10.33,0.36,12.9,5.2
						c0.37,0.69,0.66,1.42,0.91,2.17c0.81,1.52,1.22,3.3,1.35,5.18c0.19,2.76-0.2,5.52-0.98,8.21c0.03,0.38,0.05,0.75,0.08,1.15
						c0.03,0.46-0.03,0.76-0.03,1.13c0,0.81-0.26,2.08-0.55,2.84c-9.14,23.76-22.25,49.03-33.2,73.58
						c-1.42,3.18-2.83,6.35-4.25,9.53c-1.41,3.17-2.61,7.2-4.63,10.02c0,0,0,0,0,0c-0.85-0.28-1.72-0.52-2.58-0.77
						c-1.64-0.49-3.28-0.99-4.94-1.45c-3.51-1-7.04-1.96-10.56-2.94c-13.67-3.78-27.3-7.73-40.88-11.82
						c-15.43-4.65-30.83-9.45-46.15-14.44c-3.67-1.19-6.51,1.35-6.45,5.02c0.32,16.94-0.9,33.88-3.45,50.63
						c-0.3,1.95,0.94,3.62,2.59,4.45c27.55,13.93,57.38,23.48,87.4,30.42c7.55,1.75,15.13,3.43,22.69,5.13
						c6.9,1.55,14.66,4.14,21.55,1.21c6.26-2.66,10.22-8.72,14.24-13.89c5.01-6.46,11.36-15.91,15.09-23.18
						c9-17.55,15.72-27.89,21.56-42.05c7.11-17.24,11.91-28.09,16.18-42.67C1514.18,436.55,1512.53,432.82,1509.06,407.01"/>
					<path class="st60" d="M1324.84,540.99c1.7-16.68,3.75-30.04,4.49-45.56c-4.06-1.29-10.91-3.93-15.05-4.92
						c-4.19-1-7.41,0.76-6.91,10.97c0.83,16.92-0.43,27.93-2.98,44.67c-0.3,1.95,0.94,3.62,2.59,4.45
						c5.68,2.87,10.26,4.97,16.11,7.48C1323.25,552.19,1324.25,546.83,1324.84,540.99"/>
					<path class="st60" d="M1365.38,545.87c1.29-14.26,3.61-24.18,4.85-38c-3.27-0.97-6.53-1.94-9.8-2.92
						c-3.13-0.94-5.29-1.48-8.42-2.43c-1.72,13-3.17,26-5.05,40.21c-1.1,8.27-2.35,15.4-3.1,23.62c5.77,1.97,12.23,4.44,18.09,6.15
						C1362.75,563.79,1364.64,553.99,1365.38,545.87"/>
					<path class="st60" d="M1509.06,407.01c-1.06-7.9-12.32-18.87-18.18-21.88c-7.43-3.81-18.8-6.57-26.78-3.52
						c-7.53,2.88-14.51,8.01-21.4,12.15c-8.06,4.85-16.1,9.71-24.2,14.5c-1.7,1.01-10.92,7.13-11.97,9.9
						c2.13-1.46,4.35-2.76,6.55-3.91c10.68-5.59,22.71-9.75,34.7-11.32c5.05-0.66,10.33,0.36,12.9,5.2
						c0.37,0.69,0.66,1.42,0.91,2.17c0.81,1.52,1.22,3.3,1.35,5.18c0.19,2.76-0.2,5.52-0.98,8.21c0.03,0.38,0.05,0.75,0.08,1.15
						c0.03,0.46-0.03,0.76-0.03,1.13c0,0.81-0.26,2.08-0.55,2.84c-9.14,23.76-22.25,49.03-33.2,73.58
						c-1.42,3.18-2.83,6.35-4.25,9.53c-1.41,3.17-2.61,7.2-4.63,10.02c0,0,0,0,0,0c-0.85-0.28-1.72-0.52-2.58-0.77
						c-1.64-0.49-3.28-0.99-4.94-1.45c-3.51-1-7.04-1.96-10.56-2.94c-3.07-0.85-6.13-1.71-9.2-2.57c-0.94,12.45-2.5,21.7-4.42,34.61
						c-0.66,4.43-3.74,28.69-3.73,29.71c1.37,0.33,9.04,2.2,10.42,2.52c7.55,1.75,15.13,3.43,22.69,5.13
						c6.9,1.55,14.66,4.14,21.55,1.21c6.26-2.66,10.22-8.72,14.24-13.89c5.01-6.46,11.36-15.91,15.09-23.18
						c9-17.55,15.72-27.89,21.56-42.05c7.11-17.24,11.91-28.09,16.18-42.67C1514.18,436.55,1512.19,430.27,1509.06,407.01"/>
				</g>
				<g class="st18">
					<defs>
						
							<rect id="SVGID_123_" x="867.51" y="116.69" transform="matrix(0.9911 -0.1333 0.1333 0.9911 -55.4495 189.9022)" width="1046.54" height="784.91"/>
					</defs>
					<clipPath id="SVGID_124_">
						<use xlink:href="#SVGID_123_"  style="overflow:visible;"/>
					</clipPath>
					<path class="st61" d="M1490.19,382.16c-6.47-1.43-12.81-3.61-18.71-6.62c-0.11-0.06-0.25-0.02-0.35,0.05
						c-9.59,6.55-19.54,12.6-29.59,18.41c-2.01,1.16-3.44,2.3-5.46,3.43c0.03-1.64,0.11-2.47,0.07-3.65
						c-0.04-1.53,0.04-3.42,0.06-4.88c0.04-2.96,0.22-5.44,0.14-8.4c0-0.15,0.18-3.19,0-3.17c-3.55,0.48-7.01,0.86-10.64,0.9
						c-0.33,0-0.63,0.33-0.47,0.62c2.7,5.17,2.83,11.18,1.95,16.83c-0.95,6.03-2.93,11.87-4.7,17.69
						c-1.04,3.42-2.08,6.85-3.11,10.27c-0.13,0.42,0.46,0.69,0.64,0.27c0.49-1.14,1.1-2.2,1.81-3.19c0.1-0.1,0.19-0.21,0.26-0.34
						c2.01-2.71,4.69-4.94,7.43-6.88c4.38-3.1,9-5.91,13.62-8.63c9.59-5.64,19.53-10.69,29.74-15.11
						c5.73-2.48,11.53-4.81,17.43-6.87C1490.68,382.76,1490.53,382.23,1490.19,382.16"/>
				</g>
			</g>
		</g>
	</g>
</g>
<g id="Layer_6" class="st62">
	<rect class="st63" width="1920" height="1080"/>
</g>
<g id="Layer_8" class="st62">
	<g class="st64">
		<g>
			<defs>
				<rect id="SVGID_125_" x="67.12" y="51.65" width="978.38" height="566.19"/>
			</defs>
			<clipPath id="SVGID_126_">
				<use xlink:href="#SVGID_125_"  style="overflow:visible;"/>
			</clipPath>
			<g class="st65">
				<text transform="matrix(1 0 0 1 190.0617 414.3829)"><tspan x="0" y="0" class="st16 st66 st67">nt</tspan><tspan x="230.99" y="0" class="st16 st66 st67 st68">r</tspan><tspan x="322.82" y="0" class="st16 st66 st67">esso</tspan></text>
			</g>
			<rect x="148.73" y="299.93" class="st69" width="35.67" height="114.94"/>
			<g class="st65">
				<defs>
					<rect id="SVGID_127_" x="67.12" y="51.65" width="978.38" height="566.19"/>
				</defs>
				<clipPath id="SVGID_128_">
					<use xlink:href="#SVGID_127_"  style="overflow:visible;"/>
				</clipPath>
				<circle class="st70" cx="166.57" cy="255.98" r="31.99"/>
				<path class="st71" d="M176.3,254.92c1.37-2.23,0.06-4.75-2-5.99c-2.26-1.37-5.03-1.43-7.56-1.01c-2.7,0.45-5.29,1.69-8.02,1.9
					c-1.02,0.08-2.24,0.03-3.04-0.7c-0.52-0.47-0.92-1.29-0.74-1.99c0.23-0.91,1.37-0.98,2.15-1.03c1.15-0.07,2.25-0.13,3.29-0.67
					c0.99-0.52,1.81-1.43,1.88-2.59c0.04-0.56-0.19-1.03-0.3-1.56c-0.1-0.47,0.09-0.88,0.37-1.26c0.71-0.93,1.88-1.37,2.85-1.96
					c1.04-0.63,1.97-1.45,2.5-2.56c1.09-2.3,0.62-4.91-0.55-7.07c-0.63-1.16-1.44-2.21-2.23-3.25c-1-1.32-2.85,0.07-1.82,1.4
					c1.42,1.82,2.96,3.89,2.87,6.31c-0.04,1.05-0.46,2.01-1.28,2.68c-0.88,0.71-1.98,1.1-2.89,1.77c-0.96,0.7-1.81,1.64-2.11,2.82
					c-0.15,0.57-0.14,1.18,0.01,1.75c0.09,0.35,0.34,0.68,0.14,1.01c-0.4,0.66-1.5,0.73-2.17,0.77c-1.16,0.07-2.38,0.11-3.4,0.72
					c-1.95,1.17-2.13,3.75-0.93,5.53c1.41,2.11,3.97,2.48,6.32,2.14c2.64-0.37,5.12-1.44,7.75-1.88c2.12-0.35,4.9-0.28,6.5,1.38
					c0.63,0.66,0.85,1.42,0.33,2.2c-0.5,0.76-1.23,1.35-1.76,2.08c-0.66,0.91-0.93,1.99-0.69,3.1c0.24,1.12,0.98,2.01,1.43,3.04
					c1.02,2.31-0.82,4.77-1.92,6.69c-0.63,1.11-1.21,2.29-1.45,3.56c-0.24,1.26-0.13,2.61-0.57,3.82c-0.26,0.73-0.8,1.48-1.66,1.34
					c-0.88-0.14-1.61-1-1.88-1.8c-0.41-1.22-0.23-2.58-0.09-3.83c0.13-1.14,0.25-2.27,0.18-3.42c-0.11-2.01-0.58-4.12-1.75-5.8
					c-1.26-1.82-3.09-2.83-5.27-3.11c-2.06-0.26-4.26,0.21-6.27-0.42c-2.05-0.64-2.57-2.83-3.17-4.64
					c-0.69-2.11-1.72-3.97-3.33-5.51c-1.58-1.51-3.49-2.66-5.44-3.64c-0.97-0.49-1.97-0.93-2.97-1.37
					c-0.59-0.26-1.27-0.17-1.62,0.43c-0.29,0.5-0.16,1.36,0.43,1.62c3.84,1.69,8.41,3.68,10.18,7.8c0.87,2.03,1.16,4.3,2.7,5.99
					c1.63,1.79,4.06,2.01,6.33,2c1.98,0,4.21-0.15,5.75,1.32c1.36,1.31,1.91,3.3,2.03,5.13c0.17,2.53-0.68,5.06-0.13,7.57
					c0.48,2.19,2.52,4.3,4.91,4.03c2.89-0.32,3.57-3.38,3.78-5.77c0.12-1.34,0.46-2.5,1.11-3.68c0.63-1.15,1.37-2.25,1.9-3.45
					c0.56-1.26,0.98-2.64,0.83-4.04c-0.13-1.3-0.75-2.32-1.35-3.44c-0.46-0.85-0.58-1.53,0.03-2.32
					C175.07,256.33,175.8,255.73,176.3,254.92"/>
				<path class="st71" d="M191.2,269.61c-0.64-0.61-1.15-1.22-1.27-2.12c-0.11-0.86,0.05-1.75,0.19-2.6
					c0.33-2.05,0.58-4.02-0.33-5.97c-0.84-1.79-2.43-3.06-3.74-4.48c-0.68-0.73-1.34-1.56-1.67-2.51c-0.35-1.01-0.12-1.82,0.21-2.8
					c0.35-1.01,0.62-2.07,0.21-3.11c-0.28-0.72-0.81-1.28-1.51-1.6c-1.33-0.6-2.81-0.29-4.21-0.27c-0.54,0.01-1.16,0.03-1.49-0.29
					c-0.03-0.03-0.19-0.29-0.21-0.52c-0.04-0.45,0.15-0.93,0.32-1.33c0.78-1.85,1.87-3.72,3.12-5.3c1.22-1.55,2.72-2.8,4.69-3.2
					c1.35-0.27,0.78-2.33-0.57-2.07c-3.9,0.77-6.44,4.07-8.25,7.36c-0.94,1.72-2.33,3.94-1.35,5.92c0.75,1.51,2.43,1.83,3.97,1.78
					c0.72-0.03,1.45-0.11,2.17-0.09c0.33,0.01,0.45,0.01,0.75,0.11c-0.01,0,0.11,0.05,0.17,0.08c-0.02,0,0.19,0.21,0.14,0.14
					c0.42,0.71-0.33,1.92-0.53,2.62c-0.3,1.08-0.27,2.23,0.11,3.29c0.75,2.09,2.38,3.55,3.88,5.11c0.67,0.7,1.34,1.45,1.74,2.34
					c0.39,0.87,0.39,1.8,0.3,2.73c-0.22,2.22-0.97,4.46,0.04,6.6c0.51,1.07,1.45,1.76,2.23,2.61c0.74,0.8,1.24,1.88,1.37,2.96
					c0.07,0.64,0.49,1.19,1.19,1.19c0.58,0,1.26-0.55,1.19-1.19C193.79,272.81,192.8,271.13,191.2,269.61"/>
				<path class="st71" d="M159.94,287.19c-1.77-1.68-1.37-4.13-1.64-6.33c-0.17-1.35-0.6-2.61-1.11-3.86
					c-0.4-0.98-0.81-1.96-1.43-2.82c-0.63-0.87-1.42-1.6-2.45-1.95c-1.17-0.4-2.38-0.05-3.57-0.21c-1.02-0.13-2.01-0.54-2.85-1.14
					c-0.87-0.63-1.41-1.48-2.03-2.32c-0.79-1.07-1.78-1.85-3.14-2.02c-1.25-0.15-2.39,0.23-3.35,1.02c-1.15,0.95,0.5,2.58,1.64,1.64
					c0.56-0.46,1.41-0.52,2.04-0.18c0.83,0.44,1.28,1.5,1.84,2.21c1.3,1.64,3.25,2.78,5.33,3.09c0.55,0.08,1.1,0.12,1.66,0.1
					c0.54-0.02,1.11-0.12,1.63,0.04c0.77,0.22,1.27,0.93,1.65,1.59c1.13,1.94,1.81,4.16,1.9,6.39c0.1,2.37,0.39,5.36,3.04,6.23
					C159.92,288.94,160.57,287.78,159.94,287.19"/>
			</g>
			<g class="st65">
				<defs>
					<rect id="SVGID_129_" x="67.12" y="51.65" width="978.38" height="566.19"/>
				</defs>
				<clipPath id="SVGID_130_">
					<use xlink:href="#SVGID_129_"  style="overflow:visible;"/>
				</clipPath>
			</g>
		</g>
	</g>
</g>
<g id="Layer_11">
</g>
</svg>
