<?xml version="1.0" encoding="utf-8"?>
<!-- Generator: Adobe Adobe Illustrator 24.2.0, SVG Export Plug-In . SVG Version: 6.00 Build 0)  -->
<svg version="1.1" xmlns="http://www.w3.org/2000/svg" xmlns:xlink="http://www.w3.org/1999/xlink" x="0px" y="0px"
	 viewBox="0 0 1728 1050" style="enable-background:new 0 0 1728 1050;" xml:space="preserve">
<style type="text/css">
	.st0{display:none;}
	.st1{display:inline;fill:#693434;stroke:#000000;stroke-miterlimit:10;}
	.st2{clip-path:url(#SVGID_2_);}
	.st3{fill:#FFFFFF;}
	.st4{font-family:'Avenir-Black';}
	.st5{font-size:415.875px;}
	.st6{letter-spacing:-7;}
	.st7{clip-path:url(#SVGID_2_);fill:#FFFFFF;}
	.st8{clip-path:url(#SVGID_4_);fill:none;stroke:#FFFFFF;stroke-width:8;stroke-miterlimit:10;}
	.st9{clip-path:url(#SVGID_4_);fill:#FFFFFF;}
</style>
<g id="Layer_2" class="st0">
	<rect class="st1" width="1728" height="1050"/>
</g>
<g id="Layer_1">
	<g>
		<g>
			<defs>
				<rect id="SVGID_1_" y="25" width="1728" height="1000"/>
			</defs>
			<clipPath id="SVGID_2_">
				<use xlink:href="#SVGID_1_"  style="overflow:visible;"/>
			</clipPath>
			<g class="st2">
				<text transform="matrix(1 0 0 1 222.855 665.6533)"><tspan x="0" y="0" class="st3 st4 st5">nt</tspan><tspan x="407.97" y="0" class="st3 st4 st5 st6">r</tspan><tspan x="570.16" y="0" class="st3 st4 st5">esso</tspan></text>
			</g>
			<rect x="144.14" y="463.5" class="st7" width="63" height="203"/>
			<g class="st2">
				<defs>
					<rect id="SVGID_3_" y="25" width="1728" height="1000"/>
				</defs>
				<clipPath id="SVGID_4_">
					<use xlink:href="#SVGID_3_"  style="overflow:visible;"/>
				</clipPath>
				<path class="st8" d="M125.56,396.56c0-27.66,22.42-50.08,50.08-50.08c27.66,0,50.08,22.42,50.08,50.08s-22.42,50.08-50.08,50.08
					C147.98,446.64,125.56,424.22,125.56,396.56z"/>
				<path class="st9" d="M190.41,393.88c2.15-3.49,0.09-7.43-3.12-9.38c-3.54-2.14-7.87-2.24-11.84-1.58
					c-4.22,0.7-8.28,2.64-12.55,2.97c-1.6,0.12-3.51,0.04-4.76-1.1c-0.81-0.73-1.44-2.02-1.16-3.12c0.35-1.42,2.14-1.53,3.36-1.61
					c1.8-0.12,3.52-0.2,5.16-1.05c1.56-0.81,2.83-2.24,2.94-4.05c0.06-0.88-0.3-1.61-0.48-2.45c-0.15-0.73,0.14-1.38,0.58-1.97
					c1.11-1.45,2.95-2.14,4.46-3.07c1.62-0.99,3.08-2.26,3.91-4.01c1.71-3.59,0.97-7.68-0.86-11.07c-0.98-1.82-2.25-3.45-3.5-5.09
					c-1.2-1.57-3.15-0.68-3.31,0.74c-0.71-0.03-1.42,0.06-2.12,0.24c-0.42-0.36-0.85-0.65-1.29-0.86c-2.83-1.32-6.51,1.5-9.57,4.68
					c-4.43,1.45-8.44,5.42-11.89,8.11c-3.78,2.95-14.89,10.89-12.94,16.94c0.02,0.07,0.06,0.14,0.09,0.21
					c-0.57-0.26-1.13-0.51-1.7-0.76c-0.92-0.4-1.99-0.27-2.54,0.67c-0.46,0.79-0.26,2.14,0.67,2.54
					c6.02,2.65,13.17,5.77,15.93,12.21c1.36,3.18,1.82,6.73,4.23,9.38c2.54,2.8,6.36,3.14,9.92,3.13c3.1,0,6.6-0.24,9.01,2.07
					c2.13,2.04,2.99,5.16,3.18,8.03c0.27,3.96-1.06,7.92-0.2,11.85c0.75,3.43,3.95,6.72,7.68,6.31c4.53-0.51,5.59-5.29,5.92-9.04
					c0.19-2.1,0.73-3.92,1.73-5.77c0.98-1.81,2.14-3.52,2.98-5.4c0.87-1.97,1.53-4.14,1.3-6.32c-0.21-2.03-1.17-3.63-2.12-5.39
					c-0.72-1.33-0.91-2.4,0.05-3.64C188.48,396.09,189.63,395.15,190.41,393.88"/>
				<path class="st9" d="M224.13,399.74c0.17-0.85,0.29-1.7,0.39-2.53c0.26-2.14,0.29-4.31,0.1-6.46
					c-0.38-4.22-1.64-8.27-3.73-11.95c-0.05-0.09-0.46,0.12-0.99,0.49c-1.91-6.8-3.29-14.08-9.16-18.72
					c-1.48-1.17-3.12-1.56-4.74-1.38c0.15-1.04-0.7-2.32-2.08-2.04c-6.11,1.2-10.08,6.37-12.92,11.53
					c-1.48,2.69-3.65,6.17-2.11,9.27c1.18,2.36,3.8,2.87,6.21,2.78c1.13-0.04,2.26-0.18,3.4-0.15c0.52,0.01,0.71,0.01,1.17,0.17
					c-0.01,0,0.17,0.08,0.26,0.13c-0.03,0.01,0.3,0.34,0.22,0.21c0.66,1.11-0.52,3-0.83,4.1c-0.47,1.7-0.42,3.49,0.18,5.14
					c1.18,3.27,3.72,5.56,6.07,8c1.05,1.09,2.1,2.26,2.72,3.67c0.6,1.36,0.61,2.81,0.47,4.27c-0.34,3.48-1.52,6.98,0.06,10.34
					c0.79,1.68,2.27,2.75,3.49,4.08c1.16,1.26,1.94,2.94,2.14,4.64c0.12,1,0.77,1.86,1.86,1.86c0.91,0,1.97-0.85,1.86-1.86
					c-0.12-1.08-0.38-2.06-0.72-3c0.51-0.36,0.99-0.88,1.21-1.09c0.22-0.22,1.53-1.45,1.23-1.85c-0.02-0.03-0.04-0.06-0.06-0.09
					c-0.03-0.05-0.09-0.06-0.15-0.06c-0.1-0.21-0.11-0.51-0.16-0.71c-0.1-0.36-0.25-0.7-0.42-1.03c0.27-0.28,0.52-0.58,0.71-0.9
					c0.01-0.02,0.02-0.03,0.03-0.04c0.23-0.38,0.26-0.56,0.17-0.61c0.01-0.01,0.03-0.01,0.04-0.02c-0.02-0.04,0.02-0.22,0.05-0.36
					c0.47-0.8,0.89-1.62,1.24-2.45c0.11-0.08,0.19-0.14,0.2-0.14c0.62-0.52,1.41-1.21,1.73-1.98c1.5-3.58,1.75-7.44,1-11.24
					C224.28,399.72,224.22,399.72,224.13,399.74"/>
				<path class="st9" d="M164.8,444.4c-2.77-2.62-2.15-6.47-2.57-9.91c-0.26-2.11-0.94-4.08-1.74-6.05
					c-0.63-1.53-1.27-3.07-2.24-4.42c-0.98-1.36-2.23-2.5-3.84-3.05c-1.84-0.62-3.72-0.08-5.59-0.33c-1.6-0.21-3.15-0.85-4.46-1.79
					c-1.37-0.98-2.2-2.31-3.18-3.64c-1.24-1.68-2.78-2.9-4.91-3.16c-1.95-0.24-3.75,0.37-5.25,1.6c-1.2,0.99-0.45,2.45,0.71,2.88
					c-0.51,0.55-0.82,1.08-0.66,1.43c0.67,1.43,1.22,2.88,2.04,4.24c0.79,1.32,1.76,2.54,2.7,3.76c1.93,2.48,4.07,4.61,6.54,6.55
					c2.5,1.97,5.34,3.43,7.82,5.4c2.23,1.77,3.87,4.24,6.65,5.23c0.46,0.16,1.54-0.71,2.41-1.65c0.55,2.32,1.7,4.38,4.23,5.2
					C164.77,447.13,165.78,445.33,164.8,444.4"/>
			</g>
			<g class="st2">
				<defs>
					<rect id="SVGID_5_" y="25" width="1728" height="1000"/>
				</defs>
				<clipPath id="SVGID_6_">
					<use xlink:href="#SVGID_5_"  style="overflow:visible;"/>
				</clipPath>
			</g>
			<g class="st2">
				<defs>
					<rect id="SVGID_7_" y="25" width="1728" height="1000"/>
				</defs>
				<clipPath id="SVGID_8_">
					<use xlink:href="#SVGID_7_"  style="overflow:visible;"/>
				</clipPath>
			</g>
		</g>
	</g>
</g>
</svg>
