<?xml version="1.0" encoding="utf-8"?>
<!-- Generator: Adobe Adobe Illustrator 24.2.0, SVG Export Plug-In . SVG Version: 6.00 Build 0)  -->
<svg version="1.1" id="Layer_1" xmlns="http://www.w3.org/2000/svg" xmlns:xlink="http://www.w3.org/1999/xlink" x="0px" y="0px"
	 viewBox="0 0 1920 350" style="enable-background:new 0 0 1920 350;" xml:space="preserve">
<style type="text/css">
	.st0{clip-path:url(#SVGID_2_);}
	.st1{opacity:0.6784;clip-path:url(#SVGID_26_);}
	.st2{opacity:0.1686;clip-path:url(#SVGID_26_);}
	.st3{opacity:0.7216;clip-path:url(#SVGID_34_);}
	.st4{clip-path:url(#SVGID_36_);}
	.st5{opacity:0.1804;clip-path:url(#SVGID_74_);}
	.st6{opacity:0.6784;clip-path:url(#SVGID_86_);}
	.st7{opacity:0.1686;clip-path:url(#SVGID_86_);}
	.st8{opacity:0.7216;clip-path:url(#SVGID_94_);}
	.st9{clip-path:url(#SVGID_96_);}
	.st10{opacity:0.6784;clip-path:url(#SVGID_114_);}
	.st11{opacity:0.1686;clip-path:url(#SVGID_114_);}
	.st12{opacity:0.7216;clip-path:url(#SVGID_120_);}
	.st13{opacity:0.6784;clip-path:url(#SVGID_128_);}
	.st14{opacity:0.1686;clip-path:url(#SVGID_128_);}
	.st15{opacity:0.7216;clip-path:url(#SVGID_134_);}
	.st16{opacity:0.302;clip-path:url(#SVGID_158_);}
	.st17{clip-path:url(#SVGID_162_);fill:#FA5183;}
</style>
<g>
	<g>
		<defs>
			<rect id="SVGID_1_" y="-730" width="1920" height="1080"/>
		</defs>
		<clipPath id="SVGID_2_">
			<use xlink:href="#SVGID_1_"  style="overflow:visible;"/>
		</clipPath>
		<g class="st0">
			<defs>
				<rect id="SVGID_3_" y="-730" width="1920" height="1080"/>
			</defs>
			<clipPath id="SVGID_4_">
				<use xlink:href="#SVGID_3_"  style="overflow:visible;"/>
			</clipPath>
		</g>
		<g class="st0">
			<defs>
				<rect id="SVGID_5_" y="-730" width="1920" height="1080"/>
			</defs>
			<clipPath id="SVGID_6_">
				<use xlink:href="#SVGID_5_"  style="overflow:visible;"/>
			</clipPath>
		</g>
		<g class="st0">
			<defs>
				<rect id="SVGID_7_" y="-730" width="1920" height="1080"/>
			</defs>
			<clipPath id="SVGID_8_">
				<use xlink:href="#SVGID_7_"  style="overflow:visible;"/>
			</clipPath>
		</g>
		<g class="st0">
			<defs>
				<rect id="SVGID_9_" y="-730" width="1920" height="1080"/>
			</defs>
			<clipPath id="SVGID_10_">
				<use xlink:href="#SVGID_9_"  style="overflow:visible;"/>
			</clipPath>
		</g>
		<g class="st0">
			<defs>
				<rect id="SVGID_11_" y="-730" width="1920" height="1080"/>
			</defs>
			<clipPath id="SVGID_12_">
				<use xlink:href="#SVGID_11_"  style="overflow:visible;"/>
			</clipPath>
		</g>
		<g class="st0">
			<defs>
				<rect id="SVGID_13_" y="-730" width="1920" height="1080"/>
			</defs>
			<clipPath id="SVGID_14_">
				<use xlink:href="#SVGID_13_"  style="overflow:visible;"/>
			</clipPath>
		</g>
		<g class="st0">
			<defs>
				<rect id="SVGID_15_" y="-730" width="1920" height="1080"/>
			</defs>
			<clipPath id="SVGID_16_">
				<use xlink:href="#SVGID_15_"  style="overflow:visible;"/>
			</clipPath>
		</g>
		<g class="st0">
			<defs>
				<polygon id="SVGID_17_" points="819.88,-540.07 924.49,237.83 1920,103.96 1920,-211.67 1857.08,-679.55 				"/>
			</defs>
			<clipPath id="SVGID_18_">
				<use xlink:href="#SVGID_17_"  style="overflow:visible;"/>
			</clipPath>
		</g>
		<g class="st0">
			<defs>
				<path id="SVGID_19_" d="M1361.94-9.15c-0.2,1.28-0.68,2.51-0.87,3.79c-0.06,0.4,0.03,0.73,0.21,1
					c-0.19,0.38-0.38,0.77-0.57,1.15c-0.28,0.57-0.03,1.29,0.43,1.69c-0.09,0.32-0.12,0.65-0.04,0.98c0.01,0.05,0.04,0.09,0.05,0.14
					c-0.52-0.02-1.04-0.03-1.56-0.07c-0.99-0.07-2.11-0.26-2.66-1.22c-0.16-0.28-0.62,0-0.47,0.29c0.86,1.69,2.08,2.54,3.66,2.59
					c0.91,0.03,1.93,0.01,2.97-0.02c1.69-0.04,3.44-0.08,4.92,0.12c4.11,0.54,8.28,1.12,12.29,2.27c0.53,0.22,1.09,0.38,1.65,0.51
					c0.06,0.02,0.13,0.04,0.19,0.06c0.63,0.21,1.3,0.39,1.9,0.66c0.33,0.15,0.36,0.49,0.47,0.83c0.11,0.33,0.22,0.66,0.31,0.99
					c0.42,1.46,0.67,2.96,0.8,4.47c0.03,0.28,0.46,0.44,0.6,0.17c1.39-2.51,2.66-5.08,3.83-7.71c-1.38-0.72-2.72-1.49-4.04-2.14
					c-3.67-1.83-7.37-3.6-11.05-5.43c-4.17-2.08-8.77-3.88-12.96-6.27C1362.03-9.92,1362-9.54,1361.94-9.15"/>
			</defs>
			<clipPath id="SVGID_20_">
				<use xlink:href="#SVGID_19_"  style="overflow:visible;"/>
			</clipPath>
		</g>
		<g class="st0">
			<defs>
				<polygon id="SVGID_21_" points="819.88,-540.07 924.49,237.83 1920,103.96 1920,-211.67 1857.08,-679.55 				"/>
			</defs>
			<clipPath id="SVGID_22_">
				<use xlink:href="#SVGID_21_"  style="overflow:visible;"/>
			</clipPath>
		</g>
		<g class="st0">
			<defs>
				<path id="SVGID_23_" d="M1022.19,44.18c-0.44,0.06-0.86,0.31-1.14,0.81c-0.13,0.23-0.26,0.47-0.39,0.7
					c-0.56,0.12-1.08,0.48-1.4,1.17c-0.23,0.5-0.46,1.01-0.7,1.51c3.72,7.61,0.46,16.29-2.4,23.65c-2.98,7.66-7.01,15.06-12.8,20.97
					c-5.51,5.62-12.77,9.71-20.64,10.74c-2.62,0.34-5.5,0.37-8.3-0.07c9.63,9.02,22.62,17.47,35.61,16.94
					c1.09-0.04,1.05-0.66,1.47-1.72c3.98-10.19,8.58-23.62,14.26-32.96c2.73-4.49,5.63-8.87,8.69-13.13
					c3.25-4.53,6.92-8.75,10.14-13.3c1.33-1.88-1.37-4.46-3.07-2.75c-1.04,1.05-2.06,2.14-3.05,3.26c0.73-1.95-0.83-3.78-2.5-3.74
					c0.23-0.85-0.02-1.67-0.54-2.27c-0.18-1.77-2.58-3.15-4.24-1.75c-0.14-0.15-0.3-0.28-0.46-0.4c0.04-1.13-0.82-2.06-1.85-2.29
					c-0.23-0.8-0.99-1.42-1.82-1.58c-0.5-1.04-1.66-1.71-2.7-0.98c-0.02-0.08-0.04-0.17-0.07-0.25c0.01-0.01,0.01-0.02,0.01-0.03
					c0.47-1.32-0.75-2.5-1.9-2.5C1022.33,44.16,1022.26,44.17,1022.19,44.18"/>
			</defs>
			<clipPath id="SVGID_24_">
				<use xlink:href="#SVGID_23_"  style="overflow:visible;"/>
			</clipPath>
		</g>
		<g class="st0">
			<defs>
				<polygon id="SVGID_25_" points="819.88,-540.07 924.49,237.83 1920,103.96 1920,-211.67 1857.08,-679.55 				"/>
			</defs>
			<clipPath id="SVGID_26_">
				<use xlink:href="#SVGID_25_"  style="overflow:visible;"/>
			</clipPath>
			<g class="st1">
				<g>
					<defs>
						<rect id="SVGID_27_" x="1247.67" y="-5.35" width="85.51" height="69.43"/>
					</defs>
					<clipPath id="SVGID_28_">
						<use xlink:href="#SVGID_27_"  style="overflow:visible;"/>
					</clipPath>
				</g>
			</g>
			<g class="st2">
				<g>
					<defs>
						<rect id="SVGID_29_" x="1332.42" y="0.54" width="244.53" height="149.97"/>
					</defs>
					<clipPath id="SVGID_30_">
						<use xlink:href="#SVGID_29_"  style="overflow:visible;"/>
					</clipPath>
				</g>
			</g>
		</g>
		<g class="st0">
			<defs>
				<path id="SVGID_31_" d="M1341.78-105.16c-0.91,0.12-1.39,0.56-0.37,1.23c0.84-0.53,1.7-0.84,2.55-0.98
					c-0.5-0.2-1.09-0.29-1.63-0.29C1342.14-105.19,1341.95-105.18,1341.78-105.16 M1401.7-116.87c-0.33,0.04-0.68,0.18-1.01,0.44
					c-5.96,4.58-11.5,9.74-17.09,14.79c-1.22,1.1-2.42,2.21-3.63,3.31c-0.25-3.8-3.58-7.23-7.37-7.2c-2.35-2.31-6.13-3.11-9.76-0.51
					c-0.96,0.68-1.9,1.38-2.86,2.07c-2.17-0.74-4.64-0.58-6.47,0.79c-1.32-0.39-2.73-0.47-4.11-0.14c-1.53-1.24-3.46-1.89-5.43-1.58
					c1.02,0.4,1.62,1.24,0.47,2.62c-0.26,0.31-0.53,0.61-0.79,0.92c-1.91-0.95-4.17-1.12-6.07-0.08c-0.55,0.3-1.08,0.64-1.59,0.98
					c-0.74-0.81-1.64-1.47-2.62-1.94c-16.33,24.84-38.41,57.55-56.88,82.66c4.72,4.11,9.47,8.18,14.19,12.3
					c0.11,0.1,0.22,0.18,0.32,0.28c13.37,2.5,26.85,2.27,40.36,2.26c6.64-0.01,13.31-0.01,19.94,0.59
					c3.48,0.32,7.28,0.63,10.94,1.38c0.46-3.64,0.9-7.27,1.4-10.91c0.13-0.98-0.56-1.84-1.37-2.21c-7.2-3.33-14.39-6.69-21.57-10.08
					c-6.09-2.88-12.12-5.91-18.21-8.8c9.37-10.3,19.06-20.28,28.96-30.03c10.76-10.6,21.73-20.97,32.89-31.11
					c6.32-5.74,12.89-11.22,19.01-17.17c1.52-1.47,0.24-3.63-1.39-3.63C1401.86-116.89,1401.78-116.89,1401.7-116.87"/>
			</defs>
			<clipPath id="SVGID_32_">
				<use xlink:href="#SVGID_31_"  style="overflow:visible;"/>
			</clipPath>
		</g>
		<g class="st0">
			<defs>
				<polygon id="SVGID_33_" points="819.88,-540.07 924.49,237.83 1920,103.96 1920,-211.67 1857.08,-679.55 				"/>
			</defs>
			<clipPath id="SVGID_34_">
				<use xlink:href="#SVGID_33_"  style="overflow:visible;"/>
			</clipPath>
			<g class="st3">
				<g>
					<defs>
						<rect id="SVGID_35_" x="1010.87" y="-162.65" width="470.29" height="232.19"/>
					</defs>
					<clipPath id="SVGID_36_">
						<use xlink:href="#SVGID_35_"  style="overflow:visible;"/>
					</clipPath>
					<g class="st4">
						<defs>
							<path id="SVGID_37_" d="M1454.03-160.34l-0.03,0c-0.81,0.11-1.57,0.57-2.14,1.48c-4.13,6.6-7.58,13.65-11.68,20.25
								c-0.77-3.47-5.75-5.14-8.07-2.1c-4.14-0.75-8.68-0.46-12.79-1.2c-5.1-0.92-14.4-1.72-19.26-3.53
								c-0.17-0.06,9.69-7.61,9.52-7.67c-23.52,7.13-26.63,21.08-50.68,25.73c-32.41,6.27-62.32,13.57-111.96,17.19
								c-8.22,0.6-44.32,5.81-51.06,10.5c-6.19,4.32-21.37,21.33-25.94,27.31c-39.1,51.26-95.59,85.38-137.79,128.21
								c7.91,3.83,5.89,3.62,10.83,10.25c1.21,1.62,3.5,1.79,5.08,0.18c39.08-39.67,91.72-67.97,128.8-109.28
								c8.63-9.61,16.41-19.79,22.72-30.58c1.46-2.5,2.65-5.12,4.16-7.59c2.04-3.33,6.42-3.2,10.24-3.77
								c7.96-1.17,15.96-2.07,23.95-2.95c32.78-3.61,65.73-5.82,98.57-6.63c26.99-0.66,57.8,0.17,82.52-12.49
								c4.82-2.47,9.57-5.55,14.01-8.99c12.62-9.76,25.66-23.57,25.42-40.1c0-0.16-0.01-0.32-0.03-0.47l0-0.04
								c-0.3-2.12-2.21-3.74-4.03-3.74C1454.28-160.37,1454.15-160.36,1454.03-160.34"/>
						</defs>
						<clipPath id="SVGID_38_">
							<use xlink:href="#SVGID_37_"  style="overflow:visible;"/>
						</clipPath>
					</g>
				</g>
			</g>
		</g>
		<g class="st0">
			<defs>
				<path id="SVGID_39_" d="M1204.6-442.6c-1.19,0.16-2.24,0.55-3.06,1.28c-3.45,3.14-0.01,7.18,2.79,9.75
					c8.41,7.72,19.56,13.11,27.9,20.94c1.75,1.65,4.54,0.63,5.04-0.93c4.45,2.8,9.17,5.32,13.98,7.77c0.4,0.2,0.84,0.32,1.28,0.36
					c0.64,0.48,1.28,0.97,1.92,1.46c0.97,0.73,2.06,0.68,2.91,0.23c0.6,0.79,1.2,1.57,1.82,2.33c1.43,1.76,4.64,0.07,3.67-1.79
					c-2.73-5.27-6.59-10.33-10.08-15.29c-3.04-4.32-6.14-8.66-9.98-12.53c-3.32-3.35-7.22-6.29-11.75-8.41
					c-5.05-2.37-10.55-3.06-16.13-3.9c-2.34-0.35-5.83-1.37-8.86-1.37C1205.56-442.7,1205.07-442.67,1204.6-442.6"/>
			</defs>
			<clipPath id="SVGID_40_">
				<use xlink:href="#SVGID_39_"  style="overflow:visible;"/>
			</clipPath>
		</g>
		<g class="st0">
			<defs>
				<path id="SVGID_41_" d="M1270.93-511.72c-0.18,0.03-0.36,0.08-0.54,0.18c-12.79,6.93-25.29,14.22-36.05,24.13
					c-10.03,9.23-18.18,20.57-22.42,33.6c-2.31,7.12-3.36,14.61-2.83,22.09c0.03,0.38,0.15,0.69,0.33,0.94
					c-0.07,1.41,1.88,2.62,3.03,1.23c12.93-15.65,30.91-26.69,41.38-44.42c2.72-4.6,4.77-9.55,5.93-14.77
					c0.38-1.72-1.75-2.38-2.83-1.35c-1.69,1.62-3.39,3.24-5.08,4.87c6.42-8.4,13.28-16.46,20.53-24.15
					c1.03-1.09-0.05-2.37-1.24-2.37C1271.07-511.73,1271-511.73,1270.93-511.72"/>
			</defs>
			<clipPath id="SVGID_42_">
				<use xlink:href="#SVGID_41_"  style="overflow:visible;"/>
			</clipPath>
		</g>
		<g class="st0">
			<defs>
				<polygon id="SVGID_43_" points="819.88,-540.07 924.49,237.83 1920,103.96 1920,-211.67 1857.08,-679.55 				"/>
			</defs>
			<clipPath id="SVGID_44_">
				<use xlink:href="#SVGID_43_"  style="overflow:visible;"/>
			</clipPath>
		</g>
		<g class="st0">
			<defs>
				<path id="SVGID_45_" d="M1356.64-298.38c-0.01,0-0.03,0-0.04,0.01l-112.27,16.87c-1.4,0.21-2.36,1.51-2.15,2.91l10.78,71.74
					c0.21,1.4,1.51,2.36,2.91,2.15l112.26-16.87c1.4-0.21,2.36-1.52,2.15-2.91l-10.78-71.74c-0.19-1.27-1.28-2.18-2.53-2.18
					C1356.87-298.4,1356.76-298.39,1356.64-298.38"/>
			</defs>
			<clipPath id="SVGID_46_">
				<use xlink:href="#SVGID_45_"  style="overflow:visible;"/>
			</clipPath>
		</g>
		<g class="st0">
			<defs>
				<polygon id="SVGID_47_" points="819.88,-540.07 924.49,237.83 1920,103.96 1920,-211.67 1857.08,-679.55 				"/>
			</defs>
			<clipPath id="SVGID_48_">
				<use xlink:href="#SVGID_47_"  style="overflow:visible;"/>
			</clipPath>
		</g>
		<g class="st0">
			<defs>
				<path id="SVGID_49_" d="M1248.88-248.35c-1.57,0.21-3,0.88-4.07,2.28c-2.58,3.39,1.61,8.15,3.15,11.04
					c2.32,4.35,4.43,8.67,8.43,12.12c3.59,3.09,7.99,5.4,12.74,7.12c5.49,1.98,11.37,3.21,17.21,4.4c6.69,1.36,13.6,3,20.5,3.64
					c2.44,0.23,3.68-2.94,1.26-3.58c-1.05-0.28-2.11-0.54-3.19-0.79c0.33-0.84,0.13-1.76-0.97-2.33c-0.73-0.38-1.45-0.76-2.18-1.14
					c-0.16-0.35-0.4-0.68-0.73-0.95c-4.04-3.22-8.14-6.35-12.51-9.16c1.73-0.9,2.27-3.51-0.1-4.45
					c-11.25-4.49-20.27-12.04-31.4-16.62c-2.01-0.83-4.57-1.67-6.96-1.67C1249.67-248.43,1249.27-248.41,1248.88-248.35"/>
			</defs>
			<clipPath id="SVGID_50_">
				<use xlink:href="#SVGID_49_"  style="overflow:visible;"/>
			</clipPath>
		</g>
		<g class="st0">
			<defs>
				<polygon id="SVGID_51_" points="819.88,-540.07 924.49,237.83 1920,103.96 1920,-211.67 1857.08,-679.55 				"/>
			</defs>
			<clipPath id="SVGID_52_">
				<use xlink:href="#SVGID_51_"  style="overflow:visible;"/>
			</clipPath>
		</g>
		<g class="st0">
			<defs>
				<path id="SVGID_53_" d="M1424.95-511.65c-2.96,0.4-5.81,0.9-8.52,1.5c-19.79,4.4-31.41,18.29-37.17,31.48
					c-9.29,21.28-3.32,34.25,6.43,54.06c2.58,5.24,5.36,10.38,8.3,15.44c1.37,2.36,3.91,3.82,6.64,2.65
					c2.34-1.01,3.95-4.22,2.65-6.64c-0.71-1.32-1.41-2.64-2.09-3.97c1.99,0.7,4.3,0.72,6.74-0.08c1.98-0.65,3.74-1.8,5.46-2.97
					c4.51-3.06,3.41-9.86-0.78-12.48c-1.03-4.32-2.81-8.58-4.4-12.56c-0.96-2.42-2-4.81-2.94-7.24c-1.21-3.14-1.79-4.9-2.25-7.28
					c-0.23-1.24-0.4-2.48-0.47-3.73c-0.01-0.19-0.03-0.31-0.04-0.38c0.02-0.14,0.03-0.3,0.05-0.49c0.06-0.66,0.1-1.31,0.19-1.97
					c0.27-1.96,1.02-4.36,2.47-6.88c-0.03,0.09,0.56-0.81,0.58-0.83c0.41-0.55,0.79-1.11,1.2-1.66c0.52-0.68,1.07-1.33,1.64-1.97
					c0.18-0.21,0.28-0.32,0.33-0.38c0.05-0.05,0.1-0.09,0.16-0.16c2.03-2.01,4.87-4.09,6.98-5.33c4.25-2.52,11.05-5.06,15.49-6.24
					c1.59-0.42,3.2-0.76,4.82-1.01c0.72-0.11,1.44-0.2,2.16-0.27c0.2-0.02,1.65-0.03,1.63-0.05c1.18,0.06,2.36,0.24,3.52,0.48
					c0.08,0.03,0.16,0.06,0.26,0.09c0.86,0.32,1.71,0.62,2.54,1.01c0.38,0.17,0.75,0.36,1.12,0.55c0.12,0.08,0.65,0.4,0.77,0.49
					c1,0.73,2.01,1.43,2.96,2.22c0.6,0.5,1.19,1.01,1.76,1.54c0.05,0.04,0.08,0.08,0.12,0.11c0.05,0.06,0.12,0.14,0.22,0.25
					c1.09,1.18,2.12,2.4,3.1,3.68c3.41,4.48,5.28,8.18,7.61,13.68c5.15,12.14,9.03,25.1,17.85,35.21c-0.69,1.11-1.07,2.27-1.19,3.44
					c-1.45-0.93-2.9-1.87-4.33-2.83c-0.29-2.76-2.29-5.46-4.73-6.47c-4.17-1.72-7.85,0.53-9.87,4.09c-5.45,9.6-2.68,21.4,3,30.17
					c0.04,0.07,0.09,0.13,0.14,0.2c-2.32,0.07-4.62,1.63-5.49,3.75c-1.36,3.29,0.4,6.28,3.26,7.85
					c49.5,27.39,109.1,54.37,165.98,33.06c26.35-9.87,45.2-31.1,68.18-46.34c10.74-7.13,22.94-12.85,35.86-14.32
					c6.09-0.69,12.43-0.32,18.29,1.57c6.92,2.24,13.24,5.93,19.97,8.65c29.26,11.84,62,3.57,87.92-12.4
					c2.44-1.5,11.11-9.8,13.22-11.45c7.96-6.2-3.1-3.83-11.23-1.85c-3.31,0.81-6.14,1.55-6.99,1.61
					c-11.29,0.89-22.76-0.67-33.38-4.64c-10.69-4-20.06-10.39-29.47-16.7c-8.75-5.87-17.67-11.45-27.29-15.8
					c-9.17-4.15-18.77-7.27-28.57-9.51c-18.85-4.32-38.96-4.82-57.84-0.38c-9.54,2.24-18.78,5.61-27.34,10.4
					c-8.79,4.92-16.6,11.16-24.56,17.28c-7.48,5.76-15.22,11.26-24.25,14.32c-10.45,3.54-22.07,2.04-32.34-1.39
					c-10.47-3.5-19.95-9.17-28.06-16.65c-7.38-6.81-12.06-16.26-19.42-23.05c-10.95-10.11-21.39-17.39-40.81-26.3
					c-10.94-5.02-25.22-7.24-39.09-7.24C1435.88-512.74,1430.25-512.36,1424.95-511.65"/>
			</defs>
			<clipPath id="SVGID_54_">
				<use xlink:href="#SVGID_53_"  style="overflow:visible;"/>
			</clipPath>
		</g>
		<g class="st0">
			<defs>
				<path id="SVGID_55_" d="M1696.97-438.4c-13.96,3.38-26.37,11.27-38.43,18.76c-13.41,8.33-28.87,23.81-44.04,28.17
					c-29.45,8.44-61.14,1.61-91.12-5.74c-14.99-3.68-28.83-9.99-40.45-20.28c-4.08-3.61-7.78-7.55-11.24-11.7
					c-1.17,0.8-2.3,1.66-3.36,2.63c-0.71,0.65-0.77,0.73-1.77,2.03c-0.57,0.75-1.11,1.52-1.61,2.33c0.11-0.12-1,1.95-1.1,2.17
					c-0.42,0.94-0.8,1.89-1.14,2.86c-0.64,1.82-1.15,4.13-1.49,6.6c0.98,2.53,2.23,4.96,3.68,7.18c0.04,0.07,0.09,0.13,0.14,0.2
					c-1.59,0.05-3.17,0.82-4.29,1.97c0.04,0.79,0.1,1.66,0.18,2.69c0.14,2,0.29,3.99,0.49,5.98c0.42,0.36,0.89,0.68,1.39,0.96
					c49.5,27.39,109.1,54.37,165.98,33.06c26.35-9.87,45.2-31.1,68.18-46.34c10.74-7.13,22.94-12.85,35.86-14.32
					c6.09-0.69,12.43-0.32,18.29,1.57c6.92,2.24,13.24,5.93,19.97,8.65c29.26,11.84,62,3.57,87.92-12.4
					c2.44-1.5,11.11-9.8,13.22-11.45c3.16-2.46,3.32-3.57,1.86-3.89c-26.19,13.09-57.16,15.69-85.78,10.62
					c-15.72-2.78-31.01-7.55-46.63-10.84c-9.09-1.92-18.37-3.39-27.62-3.39C1708.31-440.33,1702.61-439.77,1696.97-438.4"/>
			</defs>
			<clipPath id="SVGID_56_">
				<use xlink:href="#SVGID_55_"  style="overflow:visible;"/>
			</clipPath>
		</g>
		<g class="st0">
			<defs>
				<polygon id="SVGID_57_" points="819.88,-540.07 924.49,237.83 1920,103.96 1920,-211.67 1857.08,-679.55 				"/>
			</defs>
			<clipPath id="SVGID_58_">
				<use xlink:href="#SVGID_57_"  style="overflow:visible;"/>
			</clipPath>
		</g>
		<g class="st0">
			<defs>
				<path id="SVGID_59_" d="M1464.58-424.46c-1.47,0.2-3.46,5.94-3.54,8.07c-0.19,5.32-0.34,10.62-0.44,15.92
					c-0.66,0.14-1.26,0.61-1.5,1.53c-0.96,3.58-1.96,7.15-2.96,10.71c-0.61,0.16-1.19,0.61-1.56,1.45
					c-0.83,1.88-4.45,0.99-5.31,2.85c-0.44,0.13-0.85,0.44-1.15,1c-0.76,1.45-2.09,1.33-2.85,2.79c-0.73-0.19-1.56,0.05-2.19,0.93
					c-1.05,1.45-0.95,0.21-1.92,1.71c-0.15,0.1-0.3,0.22-0.44,0.38c-0.14,0.15-0.27,0.3-0.4,0.46v0l0,0.01
					c-0.1,0.12-0.21,0.23-0.31,0.35c-0.16,0.1-0.32-0.09-0.47-0.29c-0.18-0.24-0.34-0.47-0.47-0.22c-0.04,0.08-0.16-0.42-0.27-0.91
					c-0.12-0.49-0.23-0.99-0.28-0.91c-0.48,0.68-0.27,4.62-0.68,5.37c-1.34-0.8-1.34,7.36-1.37,9.53
					c-0.09,7.06-0.02,6.37-0.06,13.43c1.94-2.89,4.1-0.64,5.9-3.62c3.55-5.87,6.44-9.29,9.75-15.33
					c5.36-9.8,11.27-19.93,13.02-31.21c1.08-5.9,1.13-12.9,1.02-18.02c-0.09-4.42-0.7-5.98-1.45-5.98
					C1464.63-424.47,1464.61-424.47,1464.58-424.46"/>
			</defs>
			<clipPath id="SVGID_60_">
				<use xlink:href="#SVGID_59_"  style="overflow:visible;"/>
			</clipPath>
		</g>
		<g class="st0">
			<defs>
				<polygon id="SVGID_61_" points="819.88,-540.07 924.49,237.83 1920,103.96 1920,-211.67 1857.08,-679.55 				"/>
			</defs>
			<clipPath id="SVGID_62_">
				<use xlink:href="#SVGID_61_"  style="overflow:visible;"/>
			</clipPath>
		</g>
		<g class="st0">
			<defs>
				<path id="SVGID_63_" d="M1411.97-489.63c-3.07,2.13-6.01,4.46-8.92,6.78c-4.68,3.72-9.03,7.66-12.78,12.29
					c-0.96,1.34-1.85,2.72-2.66,4.16c-2.89,5.21-4.28,11.03-4.58,16.96c-0.33,6.36,0.39,12.7,0.92,19.04
					c0.26,3.11,0.49,6.23,0.52,9.36c0.03,2.99-0.13,5.97-0.35,8.95c-0.43,5.9-1.08,11.8-1.04,17.73c0.04,5.85,0.79,11.67,3.01,17.12
					c1.99,4.89,5.02,9.3,8.52,13.22c3.58,4.01,7.61,7.59,11.74,11.02c4.43,3.68,8.88,7.63,14.07,10.21c1.31,0.65,2.68,1.18,4.1,1.57
					c0.96,0.26,2.08-0.77,1.29-1.7c-6.75-7.94-12.98-16.34-18.73-25.02c-5.37-8.13-11.28-16.83-11.58-26.9
					c-0.16-5.26,0.95-10.47,1.52-15.67c0.57-5.27,0.29-10.47-0.5-15.69c-1.44-9.58-4.24-19.79-0.96-29.31
					c0.78-2.25,1.88-4.33,3.36-6.19c1.52-1.9,3.32-3.54,5.05-5.24c3.55-3.49,6.59-7.37,8.97-11.75c0.13-0.23,0.24-0.47,0.37-0.71
					c1.18,1.73,2.56,3.34,4.11,4.78c6.58,6.12,15.56,8.49,23.87,11.25c4.15,1.38,8.3,2.9,12.09,5.11c3.59,2.09,6.89,4.71,9.73,7.73
					c2.91,3.1,5.38,6.62,7.27,10.43c2.03,4.1,3.28,8.48,4.2,12.94c1.84,8.93,2.87,18.12,7.13,26.32c3.57,6.87,8.8,12.75,14.96,17.41
					c12.64,9.56,28.83,14.17,44.59,13.57c15.59-0.59,31.69-6.42,42.09-18.43c1.24-1.43,2.38-2.95,3.43-4.52
					c0.68-1.03-0.51-2.26-1.54-1.52c-12.86,9.18-28.56,15.07-44.51,14.38c-14.36-0.61-28.73-7.02-38.05-18.1
					c-4.9-5.82-7.85-12.69-9.83-19.98c-2.07-7.64-3.38-15.5-6.17-22.93c-2.77-7.37-7.24-13.95-13.29-19.02
					c-6.49-5.43-14.44-8.53-22.38-11.21c-2.92-0.98-5.88-1.93-8.8-2.95c-4.54-1.11-8.99-2.86-12.83-4.76
					c-5.9-2.92-11.22-6.93-16.07-11.36C1412.86-490.05,1412.42-489.84,1411.97-489.63"/>
			</defs>
			<clipPath id="SVGID_64_">
				<use xlink:href="#SVGID_63_"  style="overflow:visible;"/>
			</clipPath>
		</g>
		<g class="st0">
			<defs>
				<path id="SVGID_65_" d="M1397.9-415.45c-2.83-0.28-5.36-1.57-7.35-3.58c-3.85-3.88-5.61-10.19-3.94-15.45
					c0.83-2.62,2.43-4.93,4.78-6.43c2.26-1.43,5.02-2.11,7.68-2.06c6.03,0.11,12.22,3.56,14.06,9.55c0.02,0.07,0.05,0.13,0.08,0.19
					c1.4,6.02-1.72,12.1-6.71,15.47c-1.72,1.17-3.76,1.97-5.84,2.25c-0.54,0.07-1.08,0.11-1.62,0.11
					C1398.65-415.39,1398.27-415.41,1397.9-415.45 M1430.83-419.28c-5.85-3.45-9.34-10.68-8.65-17.39c0.34-3.32,1.78-6.44,4.26-8.7
					c2.32-2.11,5.33-3.36,8.41-3.8c6.12-0.89,13.04,1.29,16.79,6.4c0.45,0.62,0.84,1.25,1.17,1.94c0.04,0.09,0.1,0.17,0.15,0.24
					c1.11,3.12,1.4,6.27,0.69,9.53c-0.7,3.22-2.45,6.24-4.72,8.61c-2.25,2.35-5.15,4.16-8.35,4.85c-0.32,0.07-0.64,0.12-0.96,0.17
					c-0.58,0.08-1.16,0.11-1.74,0.11C1435.41-417.34,1432.96-418.02,1430.83-419.28 M1437.11-451.41c-0.65,0.02-1.3,0.08-1.94,0.16
					c-6.5,0.88-12.41,5.01-14.28,11.55c-0.48,1.67-0.68,3.41-0.64,5.15c-0.07-0.01-0.13-0.02-0.2-0.02
					c-0.94,0.06-1.88,0.12-2.81,0.17c-0.46,0.02-0.92,0.06-1.38,0.09c-0.4,0.02-0.8,0.02-1.19,0.09
					c-1.91-5.84-7.67-9.57-13.59-10.31c-2.96-0.37-6.13-0.05-8.86,1.21c-2.84,1.32-5.05,3.53-6.49,6.29
					c-2.89,5.59-1.59,13.03,2.17,17.89c1.93,2.49,4.6,4.36,7.67,5.16c3.26,0.85,6.75,0.33,9.75-1.16c5.83-2.9,10.8-9.45,9.97-16.25
					c-0.04-0.3-0.1-0.59-0.16-0.89c0.32-0.02,0.64-0.07,0.94-0.09c0.48-0.04,0.95-0.07,1.43-0.11c0.93-0.09,1.87-0.16,2.8-0.23
					c0.02,0,0.03-0.01,0.05-0.01c0.6,5.2,3.28,10.24,7.27,13.52c2.95,2.43,6.65,3.86,10.49,3.78c3.69-0.08,7.16-1.5,10.08-3.72
					c5.72-4.36,9.62-12.44,7.73-19.65c-0.1-0.4-0.23-0.78-0.37-1.16c7.05-2.14,13.11-4.92,20.17-7.02c1.29-0.38,3.06-2.41,1.79-2.06
					c-7.1,2-15.71,5.09-22.78,7.21c-1.63-3.23-4.11-5.72-7.31-7.41c-2.88-1.52-6.27-2.19-9.53-2.19
					C1437.65-451.42,1437.38-451.42,1437.11-451.41"/>
			</defs>
			<clipPath id="SVGID_66_">
				<use xlink:href="#SVGID_65_"  style="overflow:visible;"/>
			</clipPath>
		</g>
		<g class="st0">
			<defs>
				<path id="SVGID_67_" d="M1437.37-396.06c-0.26,0.04-0.62,0.39-1.02,1.05c-0.73,1.2-0.92,1.29-2,2.21
					c-1.2,1.02-2.64,1.36-4.16,1.57c-0.57,0.08-1.16,0.14-1.74,0.2c-2.48,0.26-5.01,0.52-6.95,2.28c-1.04,0.94-1.86,2.19-1.98,3.62
					c-0.16,1.78,1.11,2.56,2.63,2.94c2.78,0.68,5.93,0.12,8.35-1.38c1.4-0.86,2.57-2.1,3.5-3.44c0.76-1.09,0.58-0.72,1.33-1.97
					c0.06-0.09,0.97-1.6,1.01-1.7c0.53-1.2,1.18-2.06,1.39-3.61c0.17-1.2,0.02-1.78-0.31-1.78
					C1437.4-396.06,1437.39-396.06,1437.37-396.06"/>
			</defs>
			<clipPath id="SVGID_68_">
				<use xlink:href="#SVGID_67_"  style="overflow:visible;"/>
			</clipPath>
		</g>
		<g class="st0">
			<defs>
				<path id="SVGID_69_" d="M1418.54-417.22c-0.76,0.1-1.14,0.76-1.11,1.46c0.05,1.55-0.4,3.14-1.18,4.47
					c-0.43,0.74-0.99,1.39-1.6,1.98c-0.68,0.66-1.37,1.35-1.7,2.26c-0.72,1.95,0.35,4.1,2.54,4.21c0.99,0.05,2-0.15,2.97-0.37
					c1.12-0.26,2.23-0.6,3.27-1.08c1.03-0.48,0.66-2.24-0.56-2.01c-0.95,0.18-1.88,0.39-2.83,0.56c-0.48,0.08-0.95,0.17-1.43,0.24
					c-0.39,0.06-0.84,0.18-1.24,0.15c-0.08-0.01-0.3-0.07-0.32-0.08c0,0-0.04-0.1-0.05-0.14c-0.01-0.08-0.02-0.18,0.02-0.35
					c0.11-0.48,0.64-0.99,1.03-1.37c1.2-1.15,2.19-2.41,2.83-3.96c0.64-1.55,0.89-3.19,0.82-4.86c-0.03-0.65-0.69-1.12-1.31-1.12
					C1418.65-417.22,1418.59-417.22,1418.54-417.22"/>
			</defs>
			<clipPath id="SVGID_70_">
				<use xlink:href="#SVGID_69_"  style="overflow:visible;"/>
			</clipPath>
		</g>
		<g class="st0">
			<defs>
				<polygon id="SVGID_71_" points="819.88,-540.07 924.49,237.83 1920,103.96 1920,-211.67 1857.08,-679.55 				"/>
			</defs>
			<clipPath id="SVGID_72_">
				<use xlink:href="#SVGID_71_"  style="overflow:visible;"/>
			</clipPath>
		</g>
		<g class="st0">
			<defs>
				<rect id="SVGID_73_" y="-730" width="1920" height="1080"/>
			</defs>
			<clipPath id="SVGID_74_">
				<use xlink:href="#SVGID_73_"  style="overflow:visible;"/>
			</clipPath>
			<g class="st5">
				<g>
					<defs>
						<rect id="SVGID_75_" y="-730" width="1920" height="1080"/>
					</defs>
					<clipPath id="SVGID_76_">
						<use xlink:href="#SVGID_75_"  style="overflow:visible;"/>
					</clipPath>
				</g>
			</g>
		</g>
		<g class="st0">
			<defs>
				
					<rect id="SVGID_77_" x="827.14" y="-583.94" transform="matrix(0.9919 -0.1271 0.1271 0.9919 37.0917 167.4223)" width="1005.64" height="754.23"/>
			</defs>
			<clipPath id="SVGID_78_">
				<use xlink:href="#SVGID_77_"  style="overflow:visible;"/>
			</clipPath>
		</g>
		<g class="st0">
			<defs>
				<path id="SVGID_79_" d="M1300.99-3.57c-0.2,1.23-0.67,2.41-0.86,3.64c-0.06,0.38,0.03,0.7,0.19,0.96
					c-0.19,0.37-0.37,0.74-0.56,1.11c-0.27,0.55-0.04,1.24,0.41,1.63c-0.09,0.31-0.12,0.62-0.04,0.94c0.01,0.05,0.03,0.09,0.05,0.13
					c-0.5-0.02-1-0.04-1.49-0.07c-0.95-0.08-2.02-0.26-2.55-1.19c-0.15-0.27-0.59,0-0.45,0.27c0.82,1.63,1.98,2.45,3.5,2.51
					c0.88,0.04,1.85,0.02,2.85,0c1.63-0.03,3.31-0.05,4.73,0.14c3.95,0.55,7.96,1.13,11.8,2.25c0.51,0.21,1.05,0.38,1.58,0.5
					c0.06,0.02,0.12,0.04,0.18,0.06c0.6,0.21,1.24,0.38,1.82,0.65c0.31,0.14,0.34,0.47,0.45,0.8c0.11,0.32,0.2,0.63,0.29,0.95
					c0.39,1.4,0.63,2.85,0.74,4.3c0.02,0.27,0.44,0.42,0.58,0.17c1.35-2.4,2.59-4.87,3.73-7.38c-1.32-0.7-2.61-1.45-3.86-2.08
					c-3.52-1.79-7.06-3.5-10.58-5.29c-3.99-2.02-8.41-3.78-12.41-6.1C1301.08-4.31,1301.05-3.94,1300.99-3.57"/>
			</defs>
			<clipPath id="SVGID_80_">
				<use xlink:href="#SVGID_79_"  style="overflow:visible;"/>
			</clipPath>
		</g>
		<g class="st0">
			<defs>
				
					<rect id="SVGID_81_" x="827.14" y="-583.94" transform="matrix(0.9919 -0.1271 0.1271 0.9919 37.0917 167.4223)" width="1005.64" height="754.23"/>
			</defs>
			<clipPath id="SVGID_82_">
				<use xlink:href="#SVGID_81_"  style="overflow:visible;"/>
			</clipPath>
		</g>
		<g class="st0">
			<defs>
				<path id="SVGID_83_" d="M974.21,45.65c-0.43,0.05-0.83,0.29-1.1,0.77c-0.13,0.22-0.25,0.45-0.38,0.67
					c-0.53,0.11-1.04,0.46-1.35,1.11c-0.23,0.48-0.45,0.96-0.68,1.44c3.53,7.33,0.34,15.65-2.45,22.71
					c-2.91,7.34-6.83,14.43-12.42,20.07c-5.33,5.37-12.33,9.25-19.9,10.2c-2.52,0.31-5.29,0.32-7.97-0.12
					c9.2,8.72,21.63,16.92,34.12,16.49c1.04-0.04,1.02-0.63,1.42-1.65c3.88-9.77,8.38-22.65,13.89-31.59
					c2.65-4.3,5.46-8.49,8.43-12.57c3.15-4.33,6.7-8.37,9.82-12.71c1.29-1.8-1.29-4.3-2.93-2.67c-1.01,1-1.99,2.04-2.96,3.11
					c0.71-1.87-0.78-3.64-2.38-3.61c0.23-0.82-0.01-1.61-0.5-2.19c-0.16-1.7-2.46-3.04-4.06-1.71c-0.14-0.14-0.28-0.27-0.44-0.39
					c0.04-1.08-0.77-1.98-1.76-2.22c-0.22-0.77-0.94-1.37-1.74-1.53c-0.47-1-1.58-1.65-2.59-0.96c-0.02-0.08-0.04-0.16-0.06-0.24
					c0-0.01,0.01-0.02,0.01-0.03c0.46-1.27-0.71-2.41-1.82-2.41C974.34,45.64,974.27,45.64,974.21,45.65"/>
			</defs>
			<clipPath id="SVGID_84_">
				<use xlink:href="#SVGID_83_"  style="overflow:visible;"/>
			</clipPath>
		</g>
		<g class="st0">
			<defs>
				
					<rect id="SVGID_85_" x="827.14" y="-583.94" transform="matrix(0.9919 -0.1271 0.1271 0.9919 37.0917 167.4223)" width="1005.64" height="754.23"/>
			</defs>
			<clipPath id="SVGID_86_">
				<use xlink:href="#SVGID_85_"  style="overflow:visible;"/>
			</clipPath>
			<g class="st6">
				<g>
					<defs>
						<rect id="SVGID_87_" x="1191.1" y="-0.13" width="81.88" height="66.3"/>
					</defs>
					<clipPath id="SVGID_88_">
						<use xlink:href="#SVGID_87_"  style="overflow:visible;"/>
					</clipPath>
				</g>
			</g>
			<g class="st7">
				<g>
					<defs>
						<rect id="SVGID_89_" x="1272.38" y="6.92" width="234.44" height="142.84"/>
					</defs>
					<clipPath id="SVGID_90_">
						<use xlink:href="#SVGID_89_"  style="overflow:visible;"/>
					</clipPath>
				</g>
			</g>
		</g>
		<g class="st0">
			<defs>
				<path id="SVGID_91_" d="M1282.19-95.94c-0.87,0.11-1.34,0.53-0.36,1.18c0.81-0.5,1.64-0.8,2.46-0.92
					c-0.49-0.2-1.07-0.29-1.59-0.29C1282.51-95.97,1282.34-95.96,1282.19-95.94 M1339.84-106.85c-0.32,0.04-0.65,0.17-0.97,0.42
					c-5.75,4.36-11.11,9.3-16.51,14.11c-0.55,0.49-1.1,0.99-1.65,1.48c-0.76,0.68-1.98,0.42-2.35-0.52c-1-2.54-3.38-4.55-6.08-4.75
					c-0.3-0.02-0.59-0.14-0.81-0.34c-2.26-1.98-5.7-2.58-9.03-0.23c-0.72,0.51-1.45,1.03-2.17,1.55c-0.35,0.25-0.79,0.34-1.2,0.23
					c-1.74-0.45-3.62-0.31-5.15,0.6c-0.31,0.18-0.68,0.24-1.03,0.16c-0.92-0.21-1.88-0.26-2.84-0.11c-0.35,0.05-0.72-0.03-1.01-0.24
					c-1.38-0.97-3.05-1.46-4.76-1.2c0.98,0.39,1.55,1.2,0.44,2.52c-0.02,0.02-0.04,0.05-0.06,0.07c-0.4,0.48-1.06,0.62-1.65,0.41
					c-1.6-0.55-3.37-0.54-4.89,0.28c-0.19,0.1-0.37,0.2-0.54,0.31c-0.55,0.33-1.26,0.31-1.75-0.11c-0.15-0.13-0.3-0.25-0.46-0.36
					c-0.67-0.49-1.61-0.3-2.07,0.39c-14.99,22.47-36.72,48.57-51.97,74.14c-1.35,2.26-0.94,5.65,0.97,7.47
					c2.21,2.1,5.01,4.6,7.95,6.37c2.01,1.2,3.99,2.61,6.32,2.78c11.29,0.8,23.29,1.69,35,1.75c6.38,0.03,12.79,0.07,19.16,0.68
					c2.86,0.28,5.95,0.55,8.99,1.1c0.83,0.15,1.61-0.43,1.72-1.26c0.39-2.97,0.78-5.95,1.21-8.91c0.14-0.95-0.53-1.77-1.3-2.13
					c-6.9-3.24-13.79-6.51-20.66-9.81c-5.24-2.51-10.43-5.15-15.65-7.69c-0.89-0.43-1.12-1.61-0.44-2.34
					c8.64-9.32,17.55-18.37,26.65-27.22c10.4-10.12,21.01-20.02,31.79-29.7c6.1-5.48,12.45-10.7,18.37-16.39
					c1.47-1.41,0.24-3.5-1.33-3.5C1339.99-106.86,1339.91-106.85,1339.84-106.85"/>
			</defs>
			<clipPath id="SVGID_92_">
				<use xlink:href="#SVGID_91_"  style="overflow:visible;"/>
			</clipPath>
		</g>
		<g class="st0">
			<defs>
				
					<rect id="SVGID_93_" x="827.14" y="-583.94" transform="matrix(0.9919 -0.1271 0.1271 0.9919 37.0917 167.4223)" width="1005.64" height="754.23"/>
			</defs>
			<clipPath id="SVGID_94_">
				<use xlink:href="#SVGID_93_"  style="overflow:visible;"/>
			</clipPath>
			<g class="st8">
				<g>
					<defs>
						<rect id="SVGID_95_" x="964.2" y="-150.49" width="451.23" height="220.59"/>
					</defs>
					<clipPath id="SVGID_96_">
						<use xlink:href="#SVGID_95_"  style="overflow:visible;"/>
					</clipPath>
					<g class="st9">
						<defs>
							<path id="SVGID_97_" d="M1388.28-146.89c-4.01,6.32-7.36,13.08-11.34,19.39c-0.72-3.34-5.5-4.98-7.74-2.07
								c-3.98-0.75-8.33-0.49-12.28-1.23c-4.9-0.91-13.83-1.74-18.48-3.51c-0.16-0.06,9.36-7.26,9.2-7.32
								c-22.65,6.71-25.71,20.09-48.85,24.42c-31.18,5.83-59.96,12.67-107.68,15.85c-7.9,0.53-42.62,5.32-49.12,9.79
								c-5.98,4.11-20.66,20.37-25.08,26.09c-37.88,49.02-92.36,81.47-133.17,122.38c7.58,3.73,5.64,3.51,10.35,9.92
								c0.69,0.94,1.77,1.38,2.85,1.24h0c0.71-0.09,1.42-0.43,2.02-1.04c37.79-37.89,88.54-64.76,124.41-104.24
								c8.35-9.19,15.89-18.92,22.01-29.25c1.42-2.39,2.58-4.9,4.04-7.27c1.98-3.19,6.19-3.04,9.86-3.56
								c7.65-1.08,15.35-1.9,23.03-2.69c31.52-3.28,63.2-5.21,94.76-5.78c25.94-0.48,55.53,0.51,79.37-11.51
								c4.64-2.34,9.22-5.28,13.52-8.56c12.18-9.31,24.8-22.49,24.67-38.38c-0.02-2.28-2.01-4.11-3.9-4.11
								C1389.81-148.33,1388.92-147.9,1388.28-146.89"/>
						</defs>
						<clipPath id="SVGID_98_">
							<use xlink:href="#SVGID_97_"  style="overflow:visible;"/>
						</clipPath>
					</g>
				</g>
			</g>
		</g>
		<g class="st0">
			<defs>
				<path id="SVGID_99_" d="M1236.67-460.24c-0.18,0.02-0.35,0.08-0.52,0.17c-12.33,6.59-24.38,13.52-34.79,22.97
					c-9.69,8.81-17.59,19.66-21.74,32.16c-2.27,6.83-3.31,14.02-2.85,21.21c0.02,0.37,0.14,0.67,0.32,0.9
					c-0.07,1.35,1.79,2.53,2.9,1.21c12.51-14.96,29.86-25.47,40.03-42.44c2.64-4.4,4.64-9.15,5.79-14.16
					c0.38-1.65-1.67-2.3-2.71-1.31c-1.63,1.55-3.27,3.1-4.91,4.65c6.22-8.03,12.85-15.74,19.86-23.08c1-1.05-0.04-2.28-1.18-2.28
					C1236.81-460.26,1236.74-460.25,1236.67-460.24"/>
			</defs>
			<clipPath id="SVGID_100_">
				<use xlink:href="#SVGID_99_"  style="overflow:visible;"/>
			</clipPath>
		</g>
		<g class="st0">
			<defs>
				
					<rect id="SVGID_101_" x="827.14" y="-583.94" transform="matrix(0.9919 -0.1271 0.1271 0.9919 37.0917 167.4223)" width="1005.64" height="754.23"/>
			</defs>
			<clipPath id="SVGID_102_">
				<use xlink:href="#SVGID_101_"  style="overflow:visible;"/>
			</clipPath>
		</g>
		<g class="st0">
			<defs>
				<path id="SVGID_103_" d="M1194.98-276.02c-1.18,0.15-2.11,1.14-2.15,2.36l-2.2,69.68c-0.04,1.36,1.02,2.49,2.38,2.54
					l109.04,3.44c1.36,0.04,2.49-1.02,2.54-2.38l2.2-69.68c0.04-1.36-1.02-2.5-2.38-2.54l-109.04-3.44c-0.02,0-0.05,0-0.07,0
					C1195.19-276.03,1195.08-276.03,1194.98-276.02"/>
			</defs>
			<clipPath id="SVGID_104_">
				<use xlink:href="#SVGID_103_"  style="overflow:visible;"/>
			</clipPath>
		</g>
		<g class="st0">
			<defs>
				
					<rect id="SVGID_105_" x="827.14" y="-583.94" transform="matrix(0.9919 -0.1271 0.1271 0.9919 37.0917 167.4223)" width="1005.64" height="754.23"/>
			</defs>
			<clipPath id="SVGID_106_">
				<use xlink:href="#SVGID_105_"  style="overflow:visible;"/>
			</clipPath>
		</g>
		<g class="st0">
			<defs>
				<path id="SVGID_107_" d="M1376.44-452.93c-0.08,0.6-0.08,0.98,0.08,0.96C1376.57-451.97,1376.53-452.37,1376.44-452.93
					c0.12-0.86,0.42-2.15,0.68-3.34c-0.45-0.06-0.91-0.1-1.37-0.13C1375.77-456.38,1376.23-454.23,1376.44-452.93 M1368.08-477.09
					c-5.12,0.66-9.46,1.62-12.78,2.74c-12.43,4.17-22.82,10.33-28.39,23.61c-3.52,8.39-4.23,14.85-5.95,26.15
					c-3.19,21,1.18,13.42,5.31,21.94c2.45,5.05,5.09,10.01,7.88,14.88c1.3,2.27,3.74,3.69,6.36,2.59c2.25-0.95,3.82-4.03,2.59-6.36
					c-0.67-1.27-1.33-2.55-1.99-3.83c1.91,0.68,4.13,0.72,6.47-0.04c1.9-0.61,3.6-1.71,5.26-2.82c4.35-2.91,3.34-9.46-0.68-11.99
					c-0.96-4.16-2.65-8.27-4.15-12.1c-0.91-2.33-1.89-4.64-2.78-6.98c-1.15-3.03-1.69-4.72-2.11-7.01
					c-0.22-1.19-0.37-2.38-0.44-3.59c-0.01-0.19-0.02-0.3-0.03-0.37c0.02-0.13,0.03-0.29,0.05-0.47c0.07-0.63,0.1-1.26,0.19-1.89
					c0.27-1.88,1.01-4.18,2.42-6.6c-0.03,0.08,0.54-0.78,0.56-0.8c0.39-0.53,0.76-1.07,1.16-1.59c0.51-0.65,1.04-1.27,1.59-1.88
					c0.17-0.2,0.27-0.31,0.31-0.37c0.05-0.04,0.09-0.09,0.15-0.15c1.96-1.91,4.7-3.9,6.74-5.08c2.25-1.31,5.4-0.53,8.49,0.26
					c2.54,0.65,5.04,1.31,6.96,0.81c1.53-0.39,4.59-0.9,6.15-1.13c0.3-0.04,0.04,1.32-0.3,2.88c0.67,0.09,1.35,0.21,2.01,0.34
					c0.08,0.03,0.16,0.06,0.25,0.09c0.83,0.31,1.64,0.61,2.44,0.98c0.36,0.17,0.72,0.35,1.08,0.53c0.11,0.08,0.62,0.39,0.74,0.47
					c0.47,0.35,1.77-1.74,3.05-3.83c1.3-2.1,2.59-4.21,3.05-3.82c0.58,0.48,1.14,0.98,1.68,1.5c0.04,0.04,0.07,0.07,0.11,0.1
					c0.05,0.06,0.12,0.13,0.21,0.24c1.04,1.14,2.03,2.32,2.95,3.55c3.25,4.33,5.03,7.89,7.24,13.18
					c4.87,11.7,8.53,24.17,16.94,33.94c-0.67,1.06-1.04,2.18-1.16,3.3c-1.39-0.9-2.78-1.82-4.15-2.75
					c-0.26-2.65-2.16-5.26-4.51-6.24c-3.99-1.68-7.55,0.46-9.51,3.88c-5.3,9.19-2.7,20.54,2.7,29.01c0.04,0.06,0.09,0.12,0.13,0.19
					c-2.23,0.06-4.45,1.54-5.3,3.57c-1.32,3.15,0.35,6.03,3.08,7.57c47.4,26.61,104.51,52.89,159.29,32.75
					c25.38-9.33,43.62-29.61,65.79-44.13c10.36-6.78,22.12-12.21,34.54-13.54c5.85-0.63,11.95-0.24,17.56,1.62
					c6.64,2.19,12.69,5.78,19.14,8.43c28.04,11.55,59.56,3.8,84.56-11.39c2.35-1.43,10.73-9.35,12.77-10.92
					c7.68-5.91-2.96-3.7-10.78-1.84c-3.19,0.76-5.91,1.45-6.72,1.51c-10.85,0.79-21.87-0.77-32.05-4.65
					c-10.24-3.9-19.21-10.1-28.22-16.22c-8.38-5.69-16.91-11.11-26.13-15.35c-8.78-4.04-17.99-7.09-27.4-9.31
					c-18.08-4.26-37.41-4.86-55.58-0.71c-9.18,2.1-18.08,5.28-26.33,9.83c-8.47,4.68-16.02,10.62-23.7,16.46
					c-7.23,5.49-14.69,10.73-23.38,13.61c-10.06,3.34-21.22,1.83-31.07-1.53c-10.04-3.43-19.12-8.93-26.86-16.16
					c-4.18-3.91-21.13-19.99-26.31-23.25c-11.83-7.43-24.19-14.41-37.67-18.35c-7.41-2.16-15.58-4.01-24.12-4.3
					c-1.55-0.05-3.08-0.08-4.57-0.08C1377.49-477.99,1372.49-477.65,1368.08-477.09"/>
			</defs>
			<clipPath id="SVGID_108_">
				<use xlink:href="#SVGID_107_"  style="overflow:visible;"/>
			</clipPath>
		</g>
		<g class="st0">
			<defs>
				<path id="SVGID_109_" d="M1625.47-414.04c-13.44,3.17-25.4,10.67-37.04,17.8c-12.93,7.92-27.88,22.71-42.49,26.8
					c-28.35,7.94-58.76,1.19-87.53-6.06c-14.38-3.62-27.64-9.77-38.75-19.73c-3.9-3.49-7.43-7.3-10.73-11.31
					c-1.13,0.77-2.22,1.58-3.25,2.5c-0.68,0.62-0.74,0.7-1.71,1.94c-0.55,0.72-1.08,1.46-1.56,2.22c0.1-0.11-0.98,1.87-1.07,2.08
					c-0.41,0.9-0.78,1.82-1.11,2.74c-0.63,1.75-1.13,3.97-1.48,6.33c0.93,2.44,2.12,4.77,3.49,6.92c0.04,0.06,0.09,0.12,0.13,0.19
					c-1.53,0.04-3.05,0.76-4.13,1.87c0.04,0.77,0.09,1.59,0.15,2.59c0.12,1.92,0.25,3.84,0.44,5.75c0.4,0.34,0.85,0.66,1.33,0.93
					c47.4,26.61,104.51,52.89,159.29,32.75c25.38-9.33,43.62-29.61,65.79-44.13c10.36-6.78,22.12-12.21,34.54-13.54
					c5.85-0.63,11.95-0.24,17.56,1.62c6.64,2.19,12.69,5.78,19.14,8.43c28.04,11.55,59.56,3.8,84.56-11.39
					c2.35-1.43,10.73-9.35,12.77-10.92c3.05-2.35,3.21-3.41,1.81-3.73c-25.25,12.42-55.02,14.74-82.49,9.7
					c-15.09-2.77-29.75-7.44-44.74-10.69c-8.89-1.93-17.97-3.42-27.04-3.42C1636.04-415.8,1630.73-415.28,1625.47-414.04"/>
			</defs>
			<clipPath id="SVGID_110_">
				<use xlink:href="#SVGID_109_"  style="overflow:visible;"/>
			</clipPath>
		</g>
		<g class="st0">
			<defs>
				
					<rect id="SVGID_111_" x="827.14" y="-583.94" transform="matrix(0.9919 -0.1271 0.1271 0.9919 37.0917 167.4223)" width="1005.64" height="754.23"/>
			</defs>
			<clipPath id="SVGID_112_">
				<use xlink:href="#SVGID_111_"  style="overflow:visible;"/>
			</clipPath>
		</g>
		<g class="st0">
			<defs>
				<polygon id="SVGID_113_" points="1228.35,-360.35 892.12,-70.34 1107.41,179.25 1488.58,-149.54 1273.3,-399.12 				"/>
			</defs>
			<clipPath id="SVGID_114_">
				<use xlink:href="#SVGID_113_"  style="overflow:visible;"/>
			</clipPath>
			<g class="st10">
				<g>
					<defs>
						<rect id="SVGID_115_" x="1173.79" y="-26.05" width="52.49" height="50.29"/>
					</defs>
					<clipPath id="SVGID_116_">
						<use xlink:href="#SVGID_115_"  style="overflow:visible;"/>
					</clipPath>
				</g>
			</g>
			<g class="st11">
				<g>
					<defs>
						<rect id="SVGID_117_" x="1209.67" y="-87.67" width="137.33" height="124.37"/>
					</defs>
					<clipPath id="SVGID_118_">
						<use xlink:href="#SVGID_117_"  style="overflow:visible;"/>
					</clipPath>
				</g>
			</g>
		</g>
		<g class="st0">
			<defs>
				<polygon id="SVGID_119_" points="1228.35,-360.35 892.12,-70.34 1107.41,179.25 1488.58,-149.54 1273.3,-399.12 				"/>
			</defs>
			<clipPath id="SVGID_120_">
				<use xlink:href="#SVGID_119_"  style="overflow:visible;"/>
			</clipPath>
			<g class="st12">
				<g>
					<defs>
						<rect id="SVGID_121_" x="1037.54" y="-128.16" width="249.3" height="216.69"/>
					</defs>
					<clipPath id="SVGID_122_">
						<use xlink:href="#SVGID_121_"  style="overflow:visible;"/>
					</clipPath>
				</g>
			</g>
		</g>
		<g class="st0">
			<defs>
				<polygon id="SVGID_123_" points="889.41,-68 1120.75,200.19 1501.51,151.38 1830.41,-132.32 1460.78,-560.84 				"/>
			</defs>
			<clipPath id="SVGID_124_">
				<use xlink:href="#SVGID_123_"  style="overflow:visible;"/>
			</clipPath>
		</g>
		<g class="st0">
			<defs>
				
					<rect id="SVGID_125_" x="827.14" y="-583.94" transform="matrix(0.9919 -0.1271 0.1271 0.9919 37.0917 167.4223)" width="1005.64" height="754.23"/>
			</defs>
			<clipPath id="SVGID_126_">
				<use xlink:href="#SVGID_125_"  style="overflow:visible;"/>
			</clipPath>
		</g>
		<g class="st0">
			<defs>
				<polygon id="SVGID_127_" points="812.86,-486.38 819.41,-235.06 841.2,-65.09 1467.95,-81.41 1456.97,-503.16 				"/>
			</defs>
			<clipPath id="SVGID_128_">
				<use xlink:href="#SVGID_127_"  style="overflow:visible;"/>
			</clipPath>
			<g class="st13">
				<g>
					<defs>
						<rect id="SVGID_129_" x="1033.39" y="-191.82" width="56.48" height="47.58"/>
					</defs>
					<clipPath id="SVGID_130_">
						<use xlink:href="#SVGID_129_"  style="overflow:visible;"/>
					</clipPath>
				</g>
			</g>
			<g class="st14">
				<g>
					<defs>
						<rect id="SVGID_131_" x="1079.77" y="-182.05" width="158.7" height="106.26"/>
					</defs>
					<clipPath id="SVGID_132_">
						<use xlink:href="#SVGID_131_"  style="overflow:visible;"/>
					</clipPath>
				</g>
			</g>
		</g>
		<g class="st0">
			<defs>
				<polygon id="SVGID_133_" points="812.86,-486.38 819.41,-235.06 841.2,-65.09 1467.95,-81.41 1456.97,-503.16 				"/>
			</defs>
			<clipPath id="SVGID_134_">
				<use xlink:href="#SVGID_133_"  style="overflow:visible;"/>
			</clipPath>
			<g class="st15">
				<g>
					<defs>
						<rect id="SVGID_135_" x="888.5" y="-302.39" width="301.94" height="169.89"/>
					</defs>
					<clipPath id="SVGID_136_">
						<use xlink:href="#SVGID_135_"  style="overflow:visible;"/>
					</clipPath>
				</g>
			</g>
		</g>
		<g class="st0">
			<defs>
				<polygon id="SVGID_137_" points="808.28,-486.26 813.66,-279.93 879.17,231.16 1790.08,114.39 1773.78,-511.41 				"/>
			</defs>
			<clipPath id="SVGID_138_">
				<use xlink:href="#SVGID_137_"  style="overflow:visible;"/>
			</clipPath>
		</g>
		<g class="st0">
			<defs>
				<path id="SVGID_139_" d="M1376.61-354.65c0.01,0.03,0.02,0.03,0.02-0.01C1376.63-354.65,1376.62-354.65,1376.61-354.65
					 M1376.61-354.65C1376.61-354.65,1376.61-354.65,1376.61-354.65c0,0,0-0.01,0-0.01
					C1376.61-354.66,1376.61-354.65,1376.61-354.65 M1376.15-356.71c0.2,0.94,0.4,1.88,0.46,2.05c-0.1-0.43-0.21-0.95-0.32-1.46
					c-0.2-0.91-0.39-1.82-0.52-2.3C1375.87-358.02,1376.01-357.37,1376.15-356.71 M1375.66-358.77c0.02-0.01,0.06,0.12,0.12,0.35
					c-0.05-0.24-0.1-0.38-0.11-0.38C1375.66-358.8,1375.66-358.79,1375.66-358.77 M1412.77-399.84c-2.27,2.7-2.77,6.24-3.66,9.58
					c-0.06,0.21-0.12,0.41-0.18,0.62c-0.02,1.03-0.04,2.07-0.05,3.1c-0.25-0.12-0.53-0.2-0.8-0.24c-0.67,2.1-1.43,4.19-2.27,6.19
					c-0.35,0.83-0.76,1.62-1.19,2.4c-0.16,1.21-0.32,2.41-0.45,3.62c-0.55-0.21-1.16-0.2-1.69-0.01c-0.25,0.42-0.82-0.81-1.39-2.04
					c-0.57-1.24-1.13-2.47-1.34-2.03c-0.01,0.03-0.03,0.06-0.04,0.09c0,1.12,0.01,2.23,0.01,3.35c-1.27-0.13-5.16,0.52-5.24,2.01
					c-0.07,1.24-0.13,2.49-0.2,3.73c-1.35-0.67-3.34,0.04-3.42,2.06c-0.02,0.51-0.06,1.01-0.09,1.52c-0.27,0.03-0.96-0.6-1.67-1.23
					c-0.81-0.72-1.62-1.45-1.8-1.17c-1.13-0.75,0.8,6.56,0.15,7.93c-0.08-0.09-0.16-0.16-0.25-0.23c-0.67,0.53-1.08-0.3-1.5-1.12
					c-0.41-0.82-0.83-1.64-1.51-1.14c-0.01,0.45,0.44,4.03,0.43,4.48c-1.13,0.07-2.28,0.86-2.39,2.33
					c-0.02,0.29-0.05,0.57-0.07,0.85c-1.17-1.21-3.38-0.87-3.87,1.03c-0.5,0.07-0.98,0.3-1.35,0.69c-0.04,0.01-0.16-0.49-0.32-1.18
					c-1.19,0.44-2.45,0.79-3.81,1.11c0.05,1.75,0.62,8.97,0.66,10.72c0.07,3.01,0.16,5.99,1.63,8.69c0.39,0.73,0.86,1.42,1.37,2.1
					c8.11-7.27,16.25-14.56,22.63-23.39c4.53-6.27,8.03-13.33,10.75-20.55c1.28-3.38,3.21-7.99,3.3-11.8
					c0.21-8.41-0.19-9.08,0.79-13.46C1413.58-400.79,1413.19-400.33,1412.77-399.84"/>
			</defs>
			<clipPath id="SVGID_140_">
				<use xlink:href="#SVGID_139_"  style="overflow:visible;"/>
			</clipPath>
		</g>
		<g class="st0">
			<defs>
				<polygon id="SVGID_141_" points="808.28,-486.26 813.66,-279.93 879.17,231.16 1790.08,114.39 1773.78,-511.41 				"/>
			</defs>
			<clipPath id="SVGID_142_">
				<use xlink:href="#SVGID_141_"  style="overflow:visible;"/>
			</clipPath>
		</g>
		<g class="st0">
			<defs>
				<path id="SVGID_143_" d="M1378.39-369.89c-0.02,0-0.05,0-0.07,0.01c-0.13,0.02-0.26,0.07-0.4,0.17
					c-1.24,0.88-2.63,1.51-4.13,1.76c-1.62,0.27-3.26,0.01-4.89-0.07c-2.36-0.11-5.12,0.27-6.55,2.4c-1.47,2.19,0.2,4.7,2.5,5.28
					c2.45,0.62,5.15-0.32,7.22-1.63c2.29-1.45,4.04-3.49,5.77-5.53c0.36-0.2,0.71-0.42,1.05-0.67c0.78-0.56,0.27-1.72-0.47-1.72
					C1378.4-369.89,1378.39-369.89,1378.39-369.89"/>
			</defs>
			<clipPath id="SVGID_144_">
				<use xlink:href="#SVGID_143_"  style="overflow:visible;"/>
			</clipPath>
		</g>
		<g class="st0">
			<defs>
				<path id="SVGID_145_" d="M1363.93-394.78c-0.04,0-0.08,0-0.11,0.01c-0.44,0.06-0.85,0.38-0.86,0.94
					c-0.05,2.12-0.76,4.17-1.98,5.9c-0.6,0.85-1.33,1.61-2.14,2.27c-0.84,0.68-1.78,1.32-2.28,2.31c-0.46,0.92-0.56,2.05,0.01,2.94
					c0.53,0.84,1.52,1.24,2.45,1.44c1.17,0.24,2.41,0.29,3.6,0.17c1.19-0.12,2.52-0.31,3.52-1.01c0.64-0.45,0.45-1.77-0.49-1.63
					c-1.09,0.16-2.11,0.59-3.2,0.73c-1.02,0.13-2.08,0.15-3.09-0.03c-0.73-0.13-1.65-0.46-1.37-1.38c0.28-0.92,1.26-1.41,1.98-1.94
					c3.09-2.3,4.87-5.98,4.91-9.82c0.01-0.6-0.44-0.9-0.91-0.9C1363.95-394.78,1363.94-394.78,1363.93-394.78"/>
			</defs>
			<clipPath id="SVGID_146_">
				<use xlink:href="#SVGID_145_"  style="overflow:visible;"/>
			</clipPath>
		</g>
		<g class="st0">
			<defs>
				<polygon id="SVGID_147_" points="808.28,-486.26 813.66,-279.93 879.17,231.16 1790.08,114.39 1773.78,-511.41 				"/>
			</defs>
			<clipPath id="SVGID_148_">
				<use xlink:href="#SVGID_147_"  style="overflow:visible;"/>
			</clipPath>
		</g>
		<g class="st0">
			<defs>
				<path id="SVGID_149_" d="M1340.29-390c-5.94-1.46-10.58-6.18-10.93-12.44c-0.36-6.32,3.12-12.81,8.63-15.94
					c12.54-7.14,26.22,8.84,20.91,20.95c-0.04,0.08-0.05,0.15-0.05,0.23c-0.1,0.18-0.21,0.37-0.31,0.55
					c-0.06,0.11-0.13,0.23-0.19,0.34c-0.1,0.06-0.19,0.13-0.26,0.24c-2.42,3.8-6.55,5.89-10.91,6.45c-0.63,0.08-1.27,0.13-1.91,0.15
					c-0.17,0-0.33,0.01-0.5,0.01C1343.24-389.47,1341.73-389.65,1340.29-390 M1382.49-391.1c-5.94-1.46-10.58-6.18-10.93-12.45
					c-0.36-6.32,3.12-12.81,8.63-15.94c12.54-7.14,26.22,8.84,20.91,20.95c-0.04,0.08-0.05,0.15-0.05,0.23
					c-0.1,0.18-0.21,0.37-0.31,0.55c-0.06,0.11-0.12,0.23-0.19,0.34c-0.1,0.06-0.19,0.13-0.26,0.24c-2.42,3.79-6.55,5.9-10.91,6.45
					c-0.63,0.08-1.27,0.13-1.91,0.15c-0.17,0-0.33,0.01-0.49,0.01C1385.45-390.57,1383.94-390.74,1382.49-391.1 M1377.47-419.48
					c-4.06,3.11-6.89,7.94-7.53,13.03c-2.76-0.82-5.87-0.75-8.57,0.3c-0.77-4.55-3.36-8.89-6.94-11.76
					c-2.71-2.17-6.01-3.58-9.49-3.7c-0.27-0.01-0.54-0.01-0.81,0c-0.47,0.01-0.94,0.05-1.41,0.11c-2.7,0.35-5.29,1.46-7.44,3.12
					c-5.51,4.22-8.77,11.61-7.34,18.5c2.94,14.23,24.21,16.28,31.41,4.51c0.05-0.09,0.07-0.17,0.09-0.25
					c0.03-0.05,0.07-0.1,0.1-0.15c0.18-0.26,0.34-0.54,0.48-0.83c0.08-0.17,0.15-0.35,0.21-0.53c1.05-2.17,1.47-4.49,1.39-6.81
					c1.26-0.47,2.51-0.83,3.86-0.9c1.4-0.07,2.77,0.11,4.11,0.52c0.08,0.03,0.15,0.04,0.23,0.04c0,1.1,0.09,2.21,0.32,3.3
					c2.94,14.23,24.21,16.28,31.41,4.51c0.05-0.09,0.07-0.17,0.09-0.25c0.03-0.05,0.07-0.1,0.1-0.14c0.18-0.27,0.34-0.55,0.48-0.84
					c0.08-0.17,0.16-0.35,0.21-0.53c1.63-3.38,1.74-7.12,0.8-10.65c0.21-0.02,0.43-0.04,0.64-0.07c0.52-0.07,1.04-0.14,1.55-0.24
					c0.94-0.17,1.86-0.46,2.76-0.78c0.55-0.19,0.83-0.73,0.69-1.29c-0.14-0.53-0.78-0.86-1.29-0.69c-0.89,0.3-1.8,0.54-2.7,0.79
					c-0.45,0.13-0.9,0.25-1.36,0.36c-0.28,0.07-0.56,0.12-0.83,0.21c-1.22-3.28-3.36-6.27-6.05-8.43c-2.71-2.17-6-3.58-9.49-3.7
					c-0.15-0.01-0.3-0.01-0.45-0.01C1383.36-422.71,1380.1-421.49,1377.47-419.48"/>
			</defs>
			<clipPath id="SVGID_150_">
				<use xlink:href="#SVGID_149_"  style="overflow:visible;"/>
			</clipPath>
		</g>
		<g class="st0">
			<defs>
				<polygon id="SVGID_151_" points="808.28,-486.26 813.66,-279.93 879.17,231.16 1790.08,114.39 1773.78,-511.41 				"/>
			</defs>
			<clipPath id="SVGID_152_">
				<use xlink:href="#SVGID_151_"  style="overflow:visible;"/>
			</clipPath>
		</g>
		<g class="st0">
			<defs>
				
					<rect id="SVGID_153_" x="827.14" y="-583.94" transform="matrix(0.9919 -0.1271 0.1271 0.9919 37.0917 167.4223)" width="1005.64" height="754.23"/>
			</defs>
			<clipPath id="SVGID_154_">
				<use xlink:href="#SVGID_153_"  style="overflow:visible;"/>
			</clipPath>
		</g>
		<g class="st0">
			<defs>
				<path id="SVGID_155_" d="M1331.63-436.72c-7.77,6.47-12.88,15.93-14.47,25.88c-0.8,4.99-0.72,10.14,0.37,15.08
					c0.7,3.18,1.81,6.24,2.68,9.38c0.9,3.22,1.35,6.45,1.24,9.8c-0.2,6.16-1.46,12.25-0.1,18.36c1.22,5.49,3.95,10.55,7.5,14.89
					c7.61,9.31,18.56,14.72,29.34,19.52c1.37,0.61,2.74,1.21,4.1,1.81c0.52,0.23,1.08-0.33,0.86-0.85
					c-0.53-1.19-1.16-2.29-1.87-3.31c-0.03-0.04-0.06-0.09-0.09-0.13c-4.89-6.9-13.58-10.39-19.54-16.28
					c-0.76-0.75-1.47-1.55-2.14-2.39c-1.07-1.65-2.1-3.32-3.11-5.01c-1.16-2.42-1.98-5.01-2.39-7.66c-0.45-2.92-0.38-5.84,0.08-8.75
					c0.48-3,1.29-5.93,1.93-8.9c0.64-2.91,1.11-5.87,0.98-8.86c-0.13-3-0.93-5.92-1.89-8.75c-1.9-5.58-4.77-11.18-4.41-17.24
					c0.49-8.18,6.54-14.32,12.17-19.63c5.47-5.17,11.68-10.33,14.93-17.28c1.82,3.97,5.51,6.79,9.51,8.59
					c5.37,2.42,11.27,2.88,16.96,4.15c2.96,0.66,5.9,1.55,8.54,3.07c2.28,1.32,4.26,3.1,5.87,5.17c3.32,4.26,5.09,9.5,6.58,14.63
					c1.53,5.29,2.74,10.7,4.79,15.83c2.08,5.2,5.06,10.06,8.72,14.3c7.42,8.59,17.56,14.76,28.71,17.02
					c12.21,2.48,25.39,0.36,36.2-5.86c1.31-0.76,2.59-1.56,3.83-2.43c0.62-0.43,0.03-1.4-0.66-1.13
					c-11.57,4.67-24.19,1.28-35.27-3.13c-5.08-2.02-10.15-4.24-14.91-6.96c-4.39-2.52-8.6-5.64-11.59-9.77
					c-1.2-1.66-2.16-3.46-2.85-5.38c-0.62-2.15-1.06-4.37-1.42-6.61c-0.17-1.54-0.27-3.08-0.38-4.61
					c-0.36-5.12-1.13-10.14-2.83-15.01c-3.15-9.03-9.43-17.38-18.94-20.17c-5.56-1.63-11.39-1.45-17.12-1.64
					c-2.89-0.1-5.79-0.3-8.63-0.88c-2.88-0.59-5.67-1.57-8.31-2.87c-1.16-0.57-2.32-1.18-3.41-1.87c0.01,0,0.01-0.01,0.01-0.01
					c-0.13-0.07-0.26-0.15-0.38-0.24c-0.2-0.11-0.39-0.23-0.57-0.39C1351.35-446.67,1340.18-443.84,1331.63-436.72"/>
			</defs>
			<clipPath id="SVGID_156_">
				<use xlink:href="#SVGID_155_"  style="overflow:visible;"/>
			</clipPath>
		</g>
		<g class="st0">
			<defs>
				<rect id="SVGID_157_" y="-730" width="1920" height="1080"/>
			</defs>
			<clipPath id="SVGID_158_">
				<use xlink:href="#SVGID_157_"  style="overflow:visible;"/>
			</clipPath>
			<g class="st16">
				<g>
					<defs>
						<rect id="SVGID_159_" y="-730" width="1920" height="1080"/>
					</defs>
					<clipPath id="SVGID_160_">
						<use xlink:href="#SVGID_159_"  style="overflow:visible;"/>
					</clipPath>
				</g>
			</g>
		</g>
		<g class="st0">
			<defs>
				<rect id="SVGID_161_" y="-730" width="1920" height="1080"/>
			</defs>
			<clipPath id="SVGID_162_">
				<use xlink:href="#SVGID_161_"  style="overflow:visible;"/>
			</clipPath>
			<path class="st17" d="M0,350V95.46c0,0,207.4-14.99,364.3,0c191.3,18.28,346.92,68.92,468.97,68.92
				c119.78,0,152.18-29.04,268.49-54.42c143.3-31.26,268.89-55.63,489.92-47.42c211.04,7.84,328.31,47.42,328.31,47.42V350H0z"/>
		</g>
		<g class="st0">
			<defs>
				<rect id="SVGID_163_" x="67.12" y="-678.35" width="978.38" height="566.19"/>
			</defs>
			<clipPath id="SVGID_164_">
				<use xlink:href="#SVGID_163_"  style="overflow:visible;"/>
			</clipPath>
		</g>
	</g>
</g>
</svg>
